  0
SECTION
  2
HEADER
  9
$ANGBASE
  50
0.0
  9
$ANGDIR
  70
1
  9
$MEASUREMENT
  70
1
  0
ENDSEC
  0
SECTION
  2
TABLES
  0
TABLE
  2
LTYPE
  70
4
  0
LTYPE
  5
40F
  2
CONTINUOUS
  70
0
  3
Solid line
  72
65
  73
0
  40
0.0
  0
LTYPE
  5
410
  2
DASHDOT
 70
0
  3
Dash Dot ____ _ ____ _
 72
65
 73
4
 40
2.0
 49
1.25
 49
-0.25
 49
0.25
 49
-0.25
  0
LTYPE
  5
411
  2
DASHED
 70
0
  3
Dashed __ __ __ __ __
 72
65
 73
2
 40
0.75
 49
0.5
 49
-0.25
  0
LTYPE
  5
43B
  2
DOTTED
 70
0
  3
Dotted .  .  .  .
 72
65
 73
2
 40
0.2
 49
0.0
 49
-0.2
  0
ENDTAB
  0
TABLE
  2
STYLE
  70
4
  0
STYLE
  2
KICAD
  70
0
  40
0
  41
1
  42
1
  50
0
  71
0
  3
isocp.shx
  0
STYLE
  2
KICADB
  70
0
  40
0
  41
1
  42
1
  50
0
  71
0
  3
isocp.shx
  0
STYLE
  2
KICADI
  70
0
  40
0
  41
1
  42
1
  50
15
  71
0
  3
isocp.shx
  0
STYLE
  2
KICADBI
  70
0
  40
0
  41
1
  42
1
  50
15
  71
0
  3
isocp.shx
  0
ENDTAB
  0
TABLE
  2
LAYER
  70
1
  0
LAYER
  2
BLACK
  70
0
  62
7
  6
CONTINUOUS
  0
ENDTAB
  0
ENDSEC
  0
SECTION
  2
ENTITIES
0
LINE
8
BLACK
6
CONTINUOUS
10
88.4890539999999959
20
-101.399996999999999
11
88.4890529999999984
21
-66.3447089999999946
0
LINE
8
BLACK
6
CONTINUOUS
10
125.7989949999999908
20
-117.4947119999999927
11
121.7850009999999941
21
-117.4947119999999927
0
LINE
8
BLACK
6
CONTINUOUS
10
221.2349999999999852
20
-143.2447099999999978
11
203.1850000000000023
21
-143.2447109999999952
0
LINE
8
BLACK
6
CONTINUOUS
10
203.1849979999999789
20
-48.9947139999999948
11
221.2349979999999903
21
-48.9947129999999973
0
LINE
8
BLACK
6
CONTINUOUS
10
88.5058779999999956
20
-120.5575860000000006
11
88.4890539999999959
21
-101.399996999999999
0
LINE
8
BLACK
6
CONTINUOUS
10
164.2764310000000023
20
-115.9947129999999902
11
128.9214929999999981
21
-115.9947129999999902
0
ARC
8
BLACK
10
185.1349999999999909
20
-47.9946999999999946
40
1.0000140000005
50
-179.99919786
51
-90.00005729
0
LINE
8
BLACK
6
CONTINUOUS
10
89.4890529999999984
20
-42.2947089999999974
11
92.2390529999999984
21
-42.2947089999999974
0
LINE
8
BLACK
6
CONTINUOUS
10
89.0860950000000003
20
-121.3831239999999951
11
117.9518349999999884
21
-121.4303460000000001
0
LINE
8
BLACK
6
CONTINUOUS
10
166.0849989999999821
20
-41.9947139999999948
11
183.1349989999999934
21
-41.9947139999999948
0
LINE
8
BLACK
6
CONTINUOUS
10
184.1349989999999934
20
-42.9947139999999948
11
184.1349989999999934
21
-47.9947139999999948
0
ARC
8
BLACK
10
164.0849999999999795
20
-38.2946999999999989
40
0.9999860000005
50
-0.00080214
51
90.00005730
0
ARC
8
BLACK
10
164.2763999999999953
20
-116.9946999999999946
40
0.9999870004805061
50
-0.00074482
51
89.99822381
0
ARC
8
BLACK
10
166.2763999999999953
20
-117.4946999999999946
40
1.0000120004804942
50
-179.99931243
51
-89.99822385
0
LINE
8
BLACK
6
CONTINUOUS
10
174.7463709999999821
20
-118.4947119999999927
11
166.2764310000000023
21
-118.4947119999999927
0
LINE
8
BLACK
6
CONTINUOUS
10
147.0350009999999941
20
-38.794713999999999
11
147.0350009999999941
21
-38.294713999999999
0
LINE
8
BLACK
6
CONTINUOUS
10
127.9850009999999969
20
-41.2947089999999974
11
127.9850009999999969
21
-40.794713999999999
0
ARC
8
BLACK
10
128.9214999999999804
20
-117.9946999999999946
40
1.999997574418529
50
90.00020054
51
141.31819730
0
ARC
8
BLACK
10
126.9849999999999994
20
-41.2946999999999989
40
1.0000010000405
50
-89.99994270
51
-0.00051566
0
ARC
8
BLACK
10
128.9849999999999852
20
-40.7946999999999989
40
0.999999000098
50
-270.00005730
51
-179.99919786
0
ARC
8
BLACK
10
146.0349999999999966
20
-38.7946999999999989
40
1.000001000098
50
-89.99994271
51
-0.00080214
0
LINE
8
BLACK
6
CONTINUOUS
10
128.9850009999999827
20
-39.794713999999999
11
146.0350009999999941
21
-39.794713999999999
0
ARC
8
BLACK
10
89.4890999999999934
20
-43.2946999999999989
40
1.000047000040498
50
-269.99730707
51
-179.99948436
0
LINE
8
BLACK
6
CONTINUOUS
10
175.7463709999999821
20
-142.7447109999999952
11
175.7463709999999821
21
-132.5447120000000041
0
LINE
8
BLACK
6
CONTINUOUS
10
148.0350009999999941
20
-37.294713999999999
11
164.0849989999999821
21
-37.294713999999999
0
ARC
8
BLACK
10
148.0349999999999966
20
-38.2946999999999989
40
0.999999000098
50
-270.00005730
51
-179.99919786
0
LINE
8
BLACK
6
CONTINUOUS
10
222.2349979999999903
20
-49.9947129999999973
11
222.2349999999999852
21
-142.2447099999999978
0
LINE
8
BLACK
6
CONTINUOUS
10
165.2764310000000023
20
-117.4947119999999927
11
165.2764310000000023
21
-116.9947129999999902
0
ARC
8
BLACK
10
166.0849999999999795
20
-40.9947000000000017
40
1.0000140000005
50
-179.99919786
51
-90.00005729
0
LINE
8
BLACK
6
CONTINUOUS
10
165.0849989999999821
20
-38.294713999999999
11
165.0849989999999821
21
-40.9947139999999948
0
LINE
8
BLACK
6
CONTINUOUS
10
203.1850000000000023
20
-143.2447109999999952
11
176.2463709999999821
21
-143.2447109999999952
0
ARC
8
BLACK
10
174.7463999999999942
20
-119.4946999999999946
40
0.9999880004205051
50
-0.00068757
51
90.00166160
0
ARC
8
BLACK
10
176.2463999999999942
20
-142.7446999999999946
40
0.5000110008409815
50
-179.99873957
51
-90.00332308
0
ARC
8
BLACK
10
121.7849999999999966
20
-120.4946999999999946
40
2.999999597425306
50
-270.00001910
51
-177.43163932
0
ARC
8
BLACK
10
89.3174999999999955
20
-120.6037999999999926
40
0.8129539784028368
50
-183.25842732
51
-106.53775578
0
ARC
8
BLACK
10
117.9960999999999984
20
-120.6396000000000015
40
0.7919841566477197
50
-93.27023618
51
0.75718066
0
LINE
8
BLACK
6
CONTINUOUS
10
88.4890529999999984
20
-66.3447089999999946
11
88.4890529999999984
21
-43.2947089999999974
0
ARC
8
BLACK
10
221.2349999999999852
20
-142.2446999999999946
40
1.00000000005
50
-90.00000000
51
-0.00057296
0
LINE
8
BLACK
6
CONTINUOUS
10
92.2390529999999984
20
-42.2947089999999974
11
126.9850009999999969
21
-42.2947089999999974
0
ARC
8
BLACK
10
125.7989999999999924
20
-115.4946999999999946
40
2.0000038319225788
50
-90.00014324
51
-38.68257664
0
ARC
8
BLACK
10
221.2349999999999852
20
-49.9946999999999946
40
0.9999870000019999
50
-0.00074485
51
90.00011459
0
LINE
8
BLACK
6
CONTINUOUS
10
175.7463709999999821
20
-132.5447120000000041
11
175.7463709999999821
21
-119.4947119999999927
0
ARC
8
BLACK
10
183.1349999999999909
20
-42.9946999999999946
40
0.9999860000005
50
-0.00080214
51
90.00005730
0
LINE
8
BLACK
6
CONTINUOUS
10
185.1349989999999934
20
-48.9947139999999948
11
203.1849979999999789
21
-48.9947139999999948
0
LINE
8
BLACK
6
CONTINUOUS
10
135.5099999999999909
20
-52.4499999999999957
11
135.5099999999999909
21
-55.5499999999999972
0
LINE
8
BLACK
6
CONTINUOUS
10
135.5099999999999909
20
-55.5499999999999972
11
139.1099999999999852
21
-55.5499999999999972
0
LINE
8
BLACK
6
CONTINUOUS
10
139.1099999999999852
20
-52.4499999999999957
11
135.5099999999999909
21
-52.4499999999999957
0
LINE
8
BLACK
6
CONTINUOUS
10
139.1099999999999852
20
-55.5499999999999972
11
139.1099999999999852
21
-52.4499999999999957
0
LINE
8
BLACK
6
CONTINUOUS
10
154.2443199999999877
20
-49.815140999999997
11
154.2443199999999877
21
-52.9151409999999984
0
LINE
8
BLACK
6
CONTINUOUS
10
154.2443199999999877
20
-52.9151409999999984
11
157.844319999999982
21
-52.9151409999999984
0
LINE
8
BLACK
6
CONTINUOUS
10
157.844319999999982
20
-49.815140999999997
11
154.2443199999999877
21
-49.815140999999997
0
LINE
8
BLACK
6
CONTINUOUS
10
157.844319999999982
20
-52.9151409999999984
11
157.844319999999982
21
-49.815140999999997
0
LINE
8
BLACK
6
CONTINUOUS
10
173.1999999999999886
20
-54.4499999999999957
11
173.1999999999999886
21
-57.5499999999999972
0
LINE
8
BLACK
6
CONTINUOUS
10
173.1999999999999886
20
-57.5499999999999972
11
176.7999999999999829
21
-57.5499999999999972
0
LINE
8
BLACK
6
CONTINUOUS
10
176.7999999999999829
20
-54.4499999999999957
11
173.1999999999999886
21
-54.4499999999999957
0
LINE
8
BLACK
6
CONTINUOUS
10
176.7999999999999829
20
-57.5499999999999972
11
176.7999999999999829
21
-54.4499999999999957
0
LINE
8
BLACK
6
CONTINUOUS
10
192.5635639999999853
20
-61.5626459999999938
11
192.5635639999999853
21
-64.6626459999999952
0
LINE
8
BLACK
6
CONTINUOUS
10
192.5635639999999853
20
-64.6626459999999952
11
196.1635639999999796
21
-64.6626459999999952
0
LINE
8
BLACK
6
CONTINUOUS
10
196.1635639999999796
20
-61.5626459999999938
11
192.5635639999999853
21
-61.5626459999999938
0
LINE
8
BLACK
6
CONTINUOUS
10
196.1635639999999796
20
-64.6626459999999952
11
196.1635639999999796
21
-61.5626459999999938
0
LINE
8
BLACK
6
CONTINUOUS
10
211.3100000000000023
20
-61.4499999999999957
11
211.3100000000000023
21
-64.5499999999999972
0
LINE
8
BLACK
6
CONTINUOUS
10
211.3100000000000023
20
-64.5499999999999972
11
214.9099999999999966
21
-64.5499999999999972
0
LINE
8
BLACK
6
CONTINUOUS
10
214.9099999999999966
20
-61.4499999999999957
11
211.3100000000000023
21
-61.4499999999999957
0
LINE
8
BLACK
6
CONTINUOUS
10
214.9099999999999966
20
-64.5499999999999972
11
214.9099999999999966
21
-61.4499999999999957
0
LINE
8
BLACK
6
CONTINUOUS
10
211.1999999999999886
20
-80.4500000000000028
11
211.1999999999999886
21
-83.5499999999999972
0
LINE
8
BLACK
6
CONTINUOUS
10
211.1999999999999886
20
-83.5499999999999972
11
214.7999999999999829
21
-83.5499999999999972
0
LINE
8
BLACK
6
CONTINUOUS
10
214.7999999999999829
20
-80.4500000000000028
11
211.1999999999999886
21
-80.4500000000000028
0
LINE
8
BLACK
6
CONTINUOUS
10
214.7999999999999829
20
-83.5499999999999972
11
214.7999999999999829
21
-80.4500000000000028
0
LINE
8
BLACK
6
CONTINUOUS
10
192.3991790000000037
20
-80.6564889999999934
11
192.3991790000000037
21
-83.756489000000002
0
LINE
8
BLACK
6
CONTINUOUS
10
192.3991790000000037
20
-83.756489000000002
11
195.999178999999998
21
-83.756489000000002
0
LINE
8
BLACK
6
CONTINUOUS
10
195.999178999999998
20
-80.6564889999999934
11
192.3991790000000037
21
-80.6564889999999934
0
LINE
8
BLACK
6
CONTINUOUS
10
195.999178999999998
20
-83.756489000000002
11
195.999178999999998
21
-80.6564889999999934
0
LINE
8
BLACK
6
CONTINUOUS
10
173.3100000000000023
20
-73.4500000000000028
11
173.3100000000000023
21
-76.5499999999999972
0
LINE
8
BLACK
6
CONTINUOUS
10
173.3100000000000023
20
-76.5499999999999972
11
176.9099999999999966
21
-76.5499999999999972
0
LINE
8
BLACK
6
CONTINUOUS
10
176.9099999999999966
20
-73.4500000000000028
11
173.3100000000000023
21
-73.4500000000000028
0
LINE
8
BLACK
6
CONTINUOUS
10
176.9099999999999966
20
-76.5499999999999972
11
176.9099999999999966
21
-73.4500000000000028
0
LINE
8
BLACK
6
CONTINUOUS
10
154.0535689999999818
20
-68.994608999999997
11
154.0535689999999818
21
-72.0946089999999913
0
LINE
8
BLACK
6
CONTINUOUS
10
154.0535689999999818
20
-72.0946089999999913
11
157.6535690000000045
21
-72.0946089999999913
0
LINE
8
BLACK
6
CONTINUOUS
10
157.6535690000000045
20
-68.994608999999997
11
154.0535689999999818
21
-68.994608999999997
0
LINE
8
BLACK
6
CONTINUOUS
10
157.6535690000000045
20
-72.0946089999999913
11
157.6535690000000045
21
-68.994608999999997
0
LINE
8
BLACK
6
CONTINUOUS
10
135.1999999999999886
20
-71.4500000000000028
11
135.1999999999999886
21
-74.5499999999999972
0
LINE
8
BLACK
6
CONTINUOUS
10
135.1999999999999886
20
-74.5499999999999972
11
138.7999999999999829
21
-74.5499999999999972
0
LINE
8
BLACK
6
CONTINUOUS
10
138.7999999999999829
20
-71.4500000000000028
11
135.1999999999999886
21
-71.4500000000000028
0
LINE
8
BLACK
6
CONTINUOUS
10
138.7999999999999829
20
-74.5499999999999972
11
138.7999999999999829
21
-71.4500000000000028
0
LINE
8
BLACK
6
CONTINUOUS
10
116.1999999999999886
20
-73.9500000000000028
11
116.1999999999999886
21
-77.0499999999999972
0
LINE
8
BLACK
6
CONTINUOUS
10
116.1999999999999886
20
-77.0499999999999972
11
119.7999999999999972
21
-77.0499999999999972
0
LINE
8
BLACK
6
CONTINUOUS
10
119.7999999999999972
20
-73.9500000000000028
11
116.1999999999999886
21
-73.9500000000000028
0
LINE
8
BLACK
6
CONTINUOUS
10
119.7999999999999972
20
-77.0499999999999972
11
119.7999999999999972
21
-73.9500000000000028
0
LINE
8
BLACK
6
CONTINUOUS
10
116.2055019999999956
20
-93.1081409999999892
11
116.2055019999999956
21
-96.2081409999999977
0
LINE
8
BLACK
6
CONTINUOUS
10
116.2055019999999956
20
-96.2081409999999977
11
119.8055019999999899
21
-96.2081409999999977
0
LINE
8
BLACK
6
CONTINUOUS
10
119.8055019999999899
20
-93.1081409999999892
11
116.2055019999999956
21
-93.1081409999999892
0
LINE
8
BLACK
6
CONTINUOUS
10
119.8055019999999899
20
-96.2081409999999977
11
119.8055019999999899
21
-93.1081409999999892
0
LINE
8
BLACK
6
CONTINUOUS
10
135.1999999999999886
20
-90.9500000000000028
11
135.1999999999999886
21
-94.0499999999999972
0
LINE
8
BLACK
6
CONTINUOUS
10
135.1999999999999886
20
-94.0499999999999972
11
138.7999999999999829
21
-94.0499999999999972
0
LINE
8
BLACK
6
CONTINUOUS
10
138.7999999999999829
20
-90.9500000000000028
11
135.1999999999999886
21
-90.9500000000000028
0
LINE
8
BLACK
6
CONTINUOUS
10
138.7999999999999829
20
-94.0499999999999972
11
138.7999999999999829
21
-90.9500000000000028
0
LINE
8
BLACK
6
CONTINUOUS
10
154.6999999999999886
20
-87.9500000000000028
11
154.6999999999999886
21
-91.0499999999999972
0
LINE
8
BLACK
6
CONTINUOUS
10
154.6999999999999886
20
-91.0499999999999972
11
158.2999999999999829
21
-91.0499999999999972
0
LINE
8
BLACK
6
CONTINUOUS
10
158.2999999999999829
20
-87.9500000000000028
11
154.6999999999999886
21
-87.9500000000000028
0
LINE
8
BLACK
6
CONTINUOUS
10
158.2999999999999829
20
-91.0499999999999972
11
158.2999999999999829
21
-87.9500000000000028
0
LINE
8
BLACK
6
CONTINUOUS
10
173.1999999999999886
20
-92.9500000000000028
11
173.1999999999999886
21
-96.0499999999999972
0
LINE
8
BLACK
6
CONTINUOUS
10
173.1999999999999886
20
-96.0499999999999972
11
176.7999999999999829
21
-96.0499999999999972
0
LINE
8
BLACK
6
CONTINUOUS
10
176.7999999999999829
20
-92.9500000000000028
11
173.1999999999999886
21
-92.9500000000000028
0
LINE
8
BLACK
6
CONTINUOUS
10
176.7999999999999829
20
-96.0499999999999972
11
176.7999999999999829
21
-92.9500000000000028
0
LINE
8
BLACK
6
CONTINUOUS
10
192.3133069999999805
20
-99.7041260000000023
11
192.3133069999999805
21
-102.8041259999999966
0
LINE
8
BLACK
6
CONTINUOUS
10
192.3133069999999805
20
-102.8041259999999966
11
195.9133070000000032
21
-102.8041259999999966
0
LINE
8
BLACK
6
CONTINUOUS
10
195.9133070000000032
20
-99.7041260000000023
11
192.3133069999999805
21
-99.7041260000000023
0
LINE
8
BLACK
6
CONTINUOUS
10
195.9133070000000032
20
-102.8041259999999966
11
195.9133070000000032
21
-99.7041260000000023
0
LINE
8
BLACK
6
CONTINUOUS
10
211.5881529999999771
20
-99.8022169999999988
11
211.5881529999999771
21
-102.9022169999999932
0
LINE
8
BLACK
6
CONTINUOUS
10
211.5881529999999771
20
-102.9022169999999932
11
215.1881529999999998
21
-102.9022169999999932
0
LINE
8
BLACK
6
CONTINUOUS
10
215.1881529999999998
20
-99.8022169999999988
11
211.5881529999999771
21
-99.8022169999999988
0
LINE
8
BLACK
6
CONTINUOUS
10
215.1881529999999998
20
-102.9022169999999932
11
215.1881529999999998
21
-99.8022169999999988
0
LINE
8
BLACK
6
CONTINUOUS
10
211.4099999999999966
20
-118.8676589999999891
11
211.4099999999999966
21
-121.9676589999999976
0
LINE
8
BLACK
6
CONTINUOUS
10
211.4099999999999966
20
-121.9676589999999976
11
215.0099999999999909
21
-121.9676589999999976
0
LINE
8
BLACK
6
CONTINUOUS
10
215.0099999999999909
20
-118.8676589999999891
11
211.4099999999999966
21
-118.8676589999999891
0
LINE
8
BLACK
6
CONTINUOUS
10
215.0099999999999909
20
-121.9676589999999976
11
215.0099999999999909
21
-118.8676589999999891
0
LINE
8
BLACK
6
CONTINUOUS
10
192.1999999999999886
20
-118.4499999999999886
11
192.1999999999999886
21
-121.5499999999999972
0
LINE
8
BLACK
6
CONTINUOUS
10
192.1999999999999886
20
-121.5499999999999972
11
195.7999999999999829
21
-121.5499999999999972
0
LINE
8
BLACK
6
CONTINUOUS
10
195.7999999999999829
20
-118.4499999999999886
11
192.1999999999999886
21
-118.4499999999999886
0
LINE
8
BLACK
6
CONTINUOUS
10
195.7999999999999829
20
-121.5499999999999972
11
195.7999999999999829
21
-118.4499999999999886
0
LINE
8
BLACK
6
CONTINUOUS
10
211.4499999999999886
20
-137.6500000000000057
11
211.4499999999999886
21
-140.75
0
LINE
8
BLACK
6
CONTINUOUS
10
211.4499999999999886
20
-140.75
11
215.0499999999999829
21
-140.75
0
LINE
8
BLACK
6
CONTINUOUS
10
215.0499999999999829
20
-137.6500000000000057
11
211.4499999999999886
21
-137.6500000000000057
0
LINE
8
BLACK
6
CONTINUOUS
10
215.0499999999999829
20
-140.75
11
215.0499999999999829
21
-137.6500000000000057
0
LINE
8
BLACK
6
CONTINUOUS
10
192.3599999999999852
20
-138.4499999999999886
11
192.3599999999999852
21
-141.5499999999999829
0
LINE
8
BLACK
6
CONTINUOUS
10
192.3599999999999852
20
-141.5499999999999829
11
195.9599999999999795
21
-141.5499999999999829
0
LINE
8
BLACK
6
CONTINUOUS
10
195.9599999999999795
20
-138.4499999999999886
11
192.3599999999999852
21
-138.4499999999999886
0
LINE
8
BLACK
6
CONTINUOUS
10
195.9599999999999795
20
-141.5499999999999829
11
195.9599999999999795
21
-138.4499999999999886
0
LINE
8
BLACK
6
CONTINUOUS
10
173.1999999999999886
20
-111.9499999999999886
11
173.1999999999999886
21
-115.0499999999999972
0
LINE
8
BLACK
6
CONTINUOUS
10
173.1999999999999886
20
-115.0499999999999972
11
176.7999999999999829
21
-115.0499999999999972
0
LINE
8
BLACK
6
CONTINUOUS
10
176.7999999999999829
20
-111.9499999999999886
11
173.1999999999999886
21
-111.9499999999999886
0
LINE
8
BLACK
6
CONTINUOUS
10
176.7999999999999829
20
-115.0499999999999972
11
176.7999999999999829
21
-111.9499999999999886
0
LINE
8
BLACK
6
CONTINUOUS
10
154.3172289999999975
20
-107.0571939999999955
11
154.3172289999999975
21
-110.1571939999999898
0
LINE
8
BLACK
6
CONTINUOUS
10
154.3172289999999975
20
-110.1571939999999898
11
157.9172289999999919
21
-110.1571939999999898
0
LINE
8
BLACK
6
CONTINUOUS
10
157.9172289999999919
20
-107.0571939999999955
11
154.3172289999999975
21
-107.0571939999999955
0
LINE
8
BLACK
6
CONTINUOUS
10
157.9172289999999919
20
-110.1571939999999898
11
157.9172289999999919
21
-107.0571939999999955
0
LINE
8
BLACK
6
CONTINUOUS
10
135.210000000000008
20
-109.9499999999999886
11
135.210000000000008
21
-113.0499999999999972
0
LINE
8
BLACK
6
CONTINUOUS
10
135.210000000000008
20
-113.0499999999999972
11
138.8100000000000023
21
-113.0499999999999972
0
LINE
8
BLACK
6
CONTINUOUS
10
138.8100000000000023
20
-109.9499999999999886
11
135.210000000000008
21
-109.9499999999999886
0
LINE
8
BLACK
6
CONTINUOUS
10
138.8100000000000023
20
-113.0499999999999972
11
138.8100000000000023
21
-109.9499999999999886
0
LINE
8
BLACK
6
CONTINUOUS
10
116.1599999999999966
20
-112.4499999999999886
11
116.1599999999999966
21
-115.5499999999999972
0
LINE
8
BLACK
6
CONTINUOUS
10
116.1599999999999966
20
-115.5499999999999972
11
119.7599999999999909
21
-115.5499999999999972
0
LINE
8
BLACK
6
CONTINUOUS
10
119.7599999999999909
20
-112.4499999999999886
11
116.1599999999999966
21
-112.4499999999999886
0
LINE
8
BLACK
6
CONTINUOUS
10
119.7599999999999909
20
-115.5499999999999972
11
119.7599999999999909
21
-112.4499999999999886
0
LINE
8
BLACK
6
CONTINUOUS
10
97.1099999999999994
20
-115.4499999999999886
11
97.1099999999999994
21
-118.5499999999999972
0
LINE
8
BLACK
6
CONTINUOUS
10
97.1099999999999994
20
-118.5499999999999972
11
100.7099999999999937
21
-118.5499999999999972
0
LINE
8
BLACK
6
CONTINUOUS
10
100.7099999999999937
20
-115.4499999999999886
11
97.1099999999999994
21
-115.4499999999999886
0
LINE
8
BLACK
6
CONTINUOUS
10
100.7099999999999937
20
-118.5499999999999972
11
100.7099999999999937
21
-115.4499999999999886
0
LINE
8
BLACK
6
CONTINUOUS
10
-26.6999999999999993
20
-88.4496999999999929
11
-26.6999999999999993
21
-91.5497000000000014
0
LINE
8
BLACK
6
CONTINUOUS
10
-26.6999999999999993
20
-91.5497000000000014
11
-23.0999999999999979
21
-91.5497000000000014
0
LINE
8
BLACK
6
CONTINUOUS
10
-23.0999999999999979
20
-88.4496999999999929
11
-26.6999999999999993
21
-88.4496999999999929
0
LINE
8
BLACK
6
CONTINUOUS
10
-23.0999999999999979
20
-91.5497000000000014
11
-23.0999999999999979
21
-88.4496999999999929
0
LINE
8
BLACK
6
CONTINUOUS
10
-26.6999999999999993
20
-107.5
11
-26.6999999999999993
21
-110.5999999999999943
0
LINE
8
BLACK
6
CONTINUOUS
10
-26.6999999999999993
20
-110.5999999999999943
11
-23.0999999999999979
21
-110.5999999999999943
0
LINE
8
BLACK
6
CONTINUOUS
10
-23.0999999999999979
20
-107.5
11
-26.6999999999999993
21
-107.5
0
LINE
8
BLACK
6
CONTINUOUS
10
-23.0999999999999979
20
-110.5999999999999943
11
-23.0999999999999979
21
-107.5
0
LINE
8
BLACK
6
CONTINUOUS
10
-45.75
20
-52.8496999999999986
11
-45.75
21
-55.9497
0
LINE
8
BLACK
6
CONTINUOUS
10
-45.75
20
-55.9497
11
-42.1499999999999986
21
-55.9497
0
LINE
8
BLACK
6
CONTINUOUS
10
-42.1499999999999986
20
-52.8496999999999986
11
-45.75
21
-52.8496999999999986
0
LINE
8
BLACK
6
CONTINUOUS
10
-42.1499999999999986
20
-55.9497
11
-42.1499999999999986
21
-52.8496999999999986
0
LINE
8
BLACK
6
CONTINUOUS
10
-45.75
20
-71.8996999999999957
11
-45.75
21
-74.99969999999999
0
LINE
8
BLACK
6
CONTINUOUS
10
-45.75
20
-74.99969999999999
11
-42.1499999999999986
21
-74.99969999999999
0
LINE
8
BLACK
6
CONTINUOUS
10
-42.1499999999999986
20
-71.8996999999999957
11
-45.75
21
-71.8996999999999957
0
LINE
8
BLACK
6
CONTINUOUS
10
-42.1499999999999986
20
-74.99969999999999
11
-42.1499999999999986
21
-71.8996999999999957
0
LINE
8
BLACK
6
CONTINUOUS
10
-45.75
20
-90.9496999999999929
11
-45.75
21
-94.0497000000000014
0
LINE
8
BLACK
6
CONTINUOUS
10
-45.75
20
-94.0497000000000014
11
-42.1499999999999986
21
-94.0497000000000014
0
LINE
8
BLACK
6
CONTINUOUS
10
-42.1499999999999986
20
-90.9496999999999929
11
-45.75
21
-90.9496999999999929
0
LINE
8
BLACK
6
CONTINUOUS
10
-42.1499999999999986
20
-94.0497000000000014
11
-42.1499999999999986
21
-90.9496999999999929
0
LINE
8
BLACK
6
CONTINUOUS
10
-45.75
20
-110.
11
-45.75
21
-113.0999999999999943
0
LINE
8
BLACK
6
CONTINUOUS
10
-45.75
20
-113.0999999999999943
11
-42.1499999999999986
21
-113.0999999999999943
0
LINE
8
BLACK
6
CONTINUOUS
10
-42.1499999999999986
20
-110.
11
-45.75
21
-110.
0
LINE
8
BLACK
6
CONTINUOUS
10
-42.1499999999999986
20
-113.0999999999999943
11
-42.1499999999999986
21
-110.
0
LINE
8
BLACK
6
CONTINUOUS
10
-64.7999999999999972
20
-113.5
11
-64.7999999999999972
21
-116.5999999999999943
0
LINE
8
BLACK
6
CONTINUOUS
10
-64.7999999999999972
20
-116.5999999999999943
11
-61.1999999999999957
21
-116.5999999999999943
0
LINE
8
BLACK
6
CONTINUOUS
10
-61.1999999999999957
20
-113.5
11
-64.7999999999999972
21
-113.5
0
LINE
8
BLACK
6
CONTINUOUS
10
-61.1999999999999957
20
-116.5999999999999943
11
-61.1999999999999957
21
-113.5
0
LINE
8
BLACK
6
CONTINUOUS
10
116.5999999999999943
20
-55.0999999999999943
11
116.5999999999999943
21
-58.1999999999999957
0
LINE
8
BLACK
6
CONTINUOUS
10
116.5999999999999943
20
-58.1999999999999957
11
120.1999999999999886
21
-58.1999999999999957
0
LINE
8
BLACK
6
CONTINUOUS
10
120.1999999999999886
20
-55.0999999999999943
11
116.5999999999999943
21
-55.0999999999999943
0
LINE
8
BLACK
6
CONTINUOUS
10
120.1999999999999886
20
-58.1999999999999957
11
120.1999999999999886
21
-55.0999999999999943
  0
ENDSEC
  0
EOF
