G04 #@! TF.GenerationSoftware,KiCad,Pcbnew,9.0.4*
G04 #@! TF.CreationDate,2025-10-25T01:26:29+09:00*
G04 #@! TF.ProjectId,molak_right,6d6f6c61-6b5f-4726-9967-68742e6b6963,rev?*
G04 #@! TF.SameCoordinates,Original*
G04 #@! TF.FileFunction,Soldermask,Top*
G04 #@! TF.FilePolarity,Negative*
%FSLAX46Y46*%
G04 Gerber Fmt 4.6, Leading zero omitted, Abs format (unit mm)*
G04 Created by KiCad (PCBNEW 9.0.4) date 2025-10-25 01:26:29*
%MOMM*%
%LPD*%
G01*
G04 APERTURE LIST*
G04 Aperture macros list*
%AMRoundRect*
0 Rectangle with rounded corners*
0 $1 Rounding radius*
0 $2 $3 $4 $5 $6 $7 $8 $9 X,Y pos of 4 corners*
0 Add a 4 corners polygon primitive as box body*
4,1,4,$2,$3,$4,$5,$6,$7,$8,$9,$2,$3,0*
0 Add four circle primitives for the rounded corners*
1,1,$1+$1,$2,$3*
1,1,$1+$1,$4,$5*
1,1,$1+$1,$6,$7*
1,1,$1+$1,$8,$9*
0 Add four rect primitives between the rounded corners*
20,1,$1+$1,$2,$3,$4,$5,0*
20,1,$1+$1,$4,$5,$6,$7,0*
20,1,$1+$1,$6,$7,$8,$9,0*
20,1,$1+$1,$8,$9,$2,$3,0*%
%AMFreePoly0*
4,1,15,-0.616000,0.142500,-0.283500,0.475000,0.521000,0.475000,0.557355,0.467769,0.588175,0.447175,0.608769,0.416355,0.616000,0.380000,0.616000,-0.380000,0.608769,-0.416355,0.588175,-0.447175,0.557355,-0.467769,0.521000,-0.475000,-0.283500,-0.475000,-0.616000,-0.142500,-0.616000,0.142500,-0.616000,0.142500,$1*%
G04 Aperture macros list end*
%ADD10C,0.850000*%
%ADD11R,0.850000X0.850000*%
%ADD12C,4.300000*%
%ADD13R,0.400000X0.600000*%
%ADD14R,0.635000X1.143000*%
%ADD15R,0.381000X0.250000*%
%ADD16R,1.700000X1.000000*%
%ADD17RoundRect,0.200000X0.275000X-0.200000X0.275000X0.200000X-0.275000X0.200000X-0.275000X-0.200000X0*%
%ADD18C,1.900000*%
%ADD19C,1.700000*%
%ADD20C,3.000000*%
%ADD21C,4.100000*%
%ADD22R,2.300000X2.000000*%
%ADD23R,1.300000X0.950000*%
%ADD24R,0.950000X1.300000*%
%ADD25RoundRect,0.095000X0.921000X0.380000X-0.921000X0.380000X-0.921000X-0.380000X0.921000X-0.380000X0*%
%ADD26RoundRect,0.095000X-0.921000X-0.380000X0.921000X-0.380000X0.921000X0.380000X-0.921000X0.380000X0*%
%ADD27FreePoly0,180.000000*%
%ADD28FreePoly0,0.000000*%
%ADD29RoundRect,0.110000X-0.440000X1.140000X-0.440000X-1.140000X0.440000X-1.140000X0.440000X1.140000X0*%
%ADD30R,0.800000X1.000000*%
%ADD31C,0.900000*%
%ADD32R,1.500000X0.700000*%
%ADD33R,2.000000X2.000000*%
%ADD34C,2.000000*%
%ADD35R,2.500000X3.000000*%
G04 APERTURE END LIST*
D10*
X93125000Y-64575000D03*
X92125000Y-64575000D03*
D11*
X91125000Y-64575000D03*
D12*
X165167000Y-55844700D03*
X127903000Y-58344700D03*
X127067000Y-98944700D03*
X203685000Y-67544700D03*
X203685000Y-124695000D03*
X166003000Y-98644700D03*
D13*
X106500000Y-67000000D03*
D14*
X107000380Y-67000000D03*
X105999620Y-67000000D03*
D15*
X106499600Y-65000000D03*
D14*
X105999220Y-65000000D03*
X106999980Y-65000000D03*
D16*
X140060000Y-54700000D03*
X140060000Y-53300000D03*
X134560000Y-53300000D03*
X134560000Y-54700000D03*
X158794300Y-52065100D03*
X158794300Y-50665100D03*
X153294300Y-50665100D03*
X153294300Y-52065100D03*
X177750000Y-56700000D03*
X177750000Y-55300000D03*
X172250000Y-55300000D03*
X172250000Y-56700000D03*
X197113600Y-63812600D03*
X197113600Y-62412600D03*
X191613600Y-62412600D03*
X191613600Y-63812600D03*
X215750000Y-82700000D03*
X215750000Y-81300000D03*
X210250000Y-81300000D03*
X210250000Y-82700000D03*
X196949200Y-81506500D03*
X196949200Y-82906500D03*
X191449200Y-82906500D03*
X191449200Y-81506500D03*
X177860000Y-74300000D03*
X177860000Y-75700000D03*
X172360000Y-75700000D03*
X172360000Y-74300000D03*
X158603600Y-69844600D03*
X158603600Y-71244600D03*
X153103600Y-71244600D03*
X153103600Y-69844600D03*
X139750000Y-72300000D03*
X139750000Y-73700000D03*
X134250000Y-73700000D03*
X134250000Y-72300000D03*
X120750000Y-74800000D03*
X120750000Y-76200000D03*
X115250000Y-76200000D03*
X115250000Y-74800000D03*
X120755500Y-93958100D03*
X120755500Y-95358100D03*
X115255500Y-95358100D03*
X115255500Y-93958100D03*
X139750000Y-91800000D03*
X139750000Y-93200000D03*
X134250000Y-93200000D03*
X134250000Y-91800000D03*
X159250000Y-88800000D03*
X159250000Y-90200000D03*
X153750000Y-90200000D03*
X153750000Y-88800000D03*
X177750000Y-93800000D03*
X177750000Y-95200000D03*
X172250000Y-95200000D03*
X172250000Y-93800000D03*
X196863300Y-100554100D03*
X196863300Y-101954100D03*
X191363300Y-101954100D03*
X191363300Y-100554100D03*
X216138200Y-100652200D03*
X216138200Y-102052200D03*
X210638200Y-102052200D03*
X210638200Y-100652200D03*
X215960000Y-119717700D03*
X215960000Y-121117700D03*
X210460000Y-121117700D03*
X210460000Y-119717700D03*
X196750000Y-119300000D03*
X196750000Y-120700000D03*
X191250000Y-120700000D03*
X191250000Y-119300000D03*
X216000000Y-138500000D03*
X216000000Y-139900000D03*
X210500000Y-139900000D03*
X210500000Y-138500000D03*
X196910000Y-139300000D03*
X196910000Y-140700000D03*
X191410000Y-140700000D03*
X191410000Y-139300000D03*
X177750000Y-112800000D03*
X177750000Y-114200000D03*
X172250000Y-114200000D03*
X172250000Y-112800000D03*
X158867200Y-107907200D03*
X158867200Y-109307200D03*
X153367200Y-109307200D03*
X153367200Y-107907200D03*
X139760000Y-110800000D03*
X139760000Y-112200000D03*
X134260000Y-112200000D03*
X134260000Y-110800000D03*
X120710000Y-113300000D03*
X120710000Y-114700000D03*
X115210000Y-114700000D03*
X115210000Y-113300000D03*
X101660000Y-116300000D03*
X101660000Y-117700000D03*
X96160000Y-117700000D03*
X96160000Y-116300000D03*
D17*
X107103700Y-72350700D03*
X107103700Y-70700700D03*
X105500000Y-72325000D03*
X105500000Y-70675000D03*
D18*
X208130000Y-58019700D03*
D19*
X208710000Y-58019700D03*
D20*
X209400000Y-55479700D03*
X210670000Y-52939700D03*
D21*
X213210000Y-58019700D03*
D20*
X215750000Y-52939700D03*
X217020000Y-55479699D03*
D19*
X217710000Y-58019700D03*
D18*
X218290000Y-58019700D03*
D22*
X207510000Y-52899700D03*
X220210000Y-55439700D03*
D18*
X189080000Y-58019700D03*
D19*
X189660000Y-58019700D03*
D20*
X190350000Y-55479700D03*
X191620000Y-52939700D03*
D21*
X194160000Y-58019700D03*
D20*
X196700000Y-52939700D03*
X197970000Y-55479699D03*
D19*
X198660000Y-58019700D03*
D18*
X199240000Y-58019700D03*
D22*
X188460000Y-52899700D03*
X201160000Y-55439700D03*
D18*
X170030000Y-51019700D03*
D19*
X170610000Y-51019700D03*
D20*
X171300000Y-48479700D03*
X172570000Y-45939700D03*
D21*
X175110000Y-51019700D03*
D20*
X177650000Y-45939700D03*
X178920000Y-48479699D03*
D19*
X179610000Y-51019700D03*
D18*
X180190000Y-51019700D03*
D22*
X169410000Y-45899700D03*
X182110000Y-48439700D03*
D18*
X150980000Y-46319700D03*
D19*
X151560000Y-46319700D03*
D20*
X152250000Y-43779700D03*
X153520000Y-41239700D03*
D21*
X156060000Y-46319700D03*
D20*
X158600000Y-41239700D03*
X159870000Y-43779699D03*
D19*
X160560000Y-46319700D03*
D18*
X161140000Y-46319700D03*
D22*
X150360000Y-41199700D03*
X163060000Y-43739700D03*
D18*
X131930000Y-48819700D03*
D19*
X132510000Y-48819700D03*
D20*
X133200000Y-46279700D03*
X134470000Y-43739700D03*
D21*
X137010000Y-48819700D03*
D20*
X139550000Y-43739700D03*
X140820000Y-46279699D03*
D19*
X141510000Y-48819700D03*
D18*
X142090000Y-48819700D03*
D22*
X131310000Y-43699700D03*
X144010000Y-46239700D03*
D18*
X112880000Y-51319700D03*
D19*
X113460000Y-51319700D03*
D20*
X114150000Y-48779700D03*
X115420000Y-46239700D03*
D21*
X117960000Y-51319700D03*
D20*
X120500000Y-46239700D03*
X121770000Y-48779699D03*
D19*
X122460000Y-51319700D03*
D18*
X123040000Y-51319700D03*
D22*
X112260000Y-46199700D03*
X124960000Y-48739700D03*
D18*
X208130000Y-77069700D03*
D19*
X208710000Y-77069700D03*
D20*
X209400000Y-74529700D03*
X210670000Y-71989700D03*
D21*
X213210000Y-77069700D03*
D20*
X215750000Y-71989700D03*
X217020000Y-74529699D03*
D19*
X217710000Y-77069700D03*
D18*
X218290000Y-77069700D03*
D22*
X207510000Y-71949700D03*
X220210000Y-74489700D03*
D18*
X189080000Y-77069700D03*
D19*
X189660000Y-77069700D03*
D20*
X190350000Y-74529700D03*
X191620000Y-71989700D03*
D21*
X194160000Y-77069700D03*
D20*
X196700000Y-71989700D03*
X197970000Y-74529699D03*
D19*
X198660000Y-77069700D03*
D18*
X199240000Y-77069700D03*
D22*
X188460000Y-71949700D03*
X201160000Y-74489700D03*
D18*
X170030000Y-70069700D03*
D19*
X170610000Y-70069700D03*
D20*
X171300000Y-67529700D03*
X172570000Y-64989700D03*
D21*
X175110000Y-70069700D03*
D20*
X177650000Y-64989700D03*
X178920000Y-67529699D03*
D19*
X179610000Y-70069700D03*
D18*
X180190000Y-70069700D03*
D22*
X169410000Y-64949700D03*
X182110000Y-67489700D03*
D18*
X150980000Y-65369700D03*
D19*
X151560000Y-65369700D03*
D20*
X152250000Y-62829700D03*
X153520000Y-60289700D03*
D21*
X156060000Y-65369700D03*
D20*
X158600000Y-60289700D03*
X159870000Y-62829699D03*
D19*
X160560000Y-65369700D03*
D18*
X161140000Y-65369700D03*
D22*
X150360000Y-60249700D03*
X163060000Y-62789700D03*
D18*
X131930000Y-67869700D03*
D19*
X132510000Y-67869700D03*
D20*
X133200000Y-65329700D03*
X134470000Y-62789700D03*
D21*
X137010000Y-67869700D03*
D20*
X139550000Y-62789700D03*
X140820000Y-65329699D03*
D19*
X141510000Y-67869700D03*
D18*
X142090000Y-67869700D03*
D22*
X131310000Y-62749700D03*
X144010000Y-65289700D03*
D18*
X112880000Y-70369700D03*
D19*
X113460000Y-70369700D03*
D20*
X114150000Y-67829700D03*
X115420000Y-65289700D03*
D21*
X117960000Y-70369700D03*
D20*
X120500000Y-65289700D03*
X121770000Y-67829699D03*
D19*
X122460000Y-70369700D03*
D18*
X123040000Y-70369700D03*
D22*
X112260000Y-65249700D03*
X124960000Y-67789700D03*
D18*
X208130000Y-96119700D03*
D19*
X208710000Y-96119700D03*
D20*
X209400000Y-93579700D03*
X210670000Y-91039700D03*
D21*
X213210000Y-96119700D03*
D20*
X215750000Y-91039700D03*
X217020000Y-93579699D03*
D19*
X217710000Y-96119700D03*
D18*
X218290000Y-96119700D03*
D22*
X207510000Y-90999700D03*
X220210000Y-93539700D03*
D18*
X189080000Y-96119700D03*
D19*
X189660000Y-96119700D03*
D20*
X190350000Y-93579700D03*
X191620000Y-91039700D03*
D21*
X194160000Y-96119700D03*
D20*
X196700000Y-91039700D03*
X197970000Y-93579699D03*
D19*
X198660000Y-96119700D03*
D18*
X199240000Y-96119700D03*
D22*
X188460000Y-90999700D03*
X201160000Y-93539700D03*
D18*
X170030000Y-89119700D03*
D19*
X170610000Y-89119700D03*
D20*
X171300000Y-86579700D03*
X172570000Y-84039700D03*
D21*
X175110000Y-89119700D03*
D20*
X177650000Y-84039700D03*
X178920000Y-86579699D03*
D19*
X179610000Y-89119700D03*
D18*
X180190000Y-89119700D03*
D22*
X169410000Y-83999700D03*
X182110000Y-86539700D03*
D18*
X150980000Y-84419700D03*
D19*
X151560000Y-84419700D03*
D20*
X152250000Y-81879700D03*
X153520000Y-79339700D03*
D21*
X156060000Y-84419700D03*
D20*
X158600000Y-79339700D03*
X159870000Y-81879699D03*
D19*
X160560000Y-84419700D03*
D18*
X161140000Y-84419700D03*
D22*
X150360000Y-79299700D03*
X163060000Y-81839700D03*
D18*
X131930000Y-86919700D03*
D19*
X132510000Y-86919700D03*
D20*
X133200000Y-84379700D03*
X134470000Y-81839700D03*
D21*
X137010000Y-86919700D03*
D20*
X139550000Y-81839700D03*
X140820000Y-84379699D03*
D19*
X141510000Y-86919700D03*
D18*
X142090000Y-86919700D03*
D22*
X131310000Y-81799700D03*
X144010000Y-84339700D03*
D18*
X112880000Y-89419700D03*
D19*
X113460000Y-89419700D03*
D20*
X114150000Y-86879700D03*
X115420000Y-84339700D03*
D21*
X117960000Y-89419700D03*
D20*
X120500000Y-84339700D03*
X121770000Y-86879699D03*
D19*
X122460000Y-89419700D03*
D18*
X123040000Y-89419700D03*
D22*
X112260000Y-84299700D03*
X124960000Y-86839700D03*
D18*
X208130000Y-115170000D03*
D19*
X208710000Y-115170000D03*
D20*
X209400000Y-112630000D03*
X210670000Y-110090000D03*
D21*
X213210000Y-115170000D03*
D20*
X215750000Y-110090000D03*
X217020000Y-112629999D03*
D19*
X217710000Y-115170000D03*
D18*
X218290000Y-115170000D03*
D22*
X207510000Y-110050000D03*
X220210000Y-112590000D03*
D18*
X189080000Y-115170000D03*
D19*
X189660000Y-115170000D03*
D20*
X190350000Y-112630000D03*
X191620000Y-110090000D03*
D21*
X194160000Y-115170000D03*
D20*
X196700000Y-110090000D03*
X197970000Y-112629999D03*
D19*
X198660000Y-115170000D03*
D18*
X199240000Y-115170000D03*
D22*
X188460000Y-110050000D03*
X201160000Y-112590000D03*
D18*
X170030000Y-108170000D03*
D19*
X170610000Y-108170000D03*
D20*
X171300000Y-105630000D03*
X172570000Y-103090000D03*
D21*
X175110000Y-108170000D03*
D20*
X177650000Y-103090000D03*
X178920000Y-105629999D03*
D19*
X179610000Y-108170000D03*
D18*
X180190000Y-108170000D03*
D22*
X169410000Y-103050000D03*
X182110000Y-105590000D03*
D18*
X150980000Y-103470000D03*
D19*
X151560000Y-103470000D03*
D20*
X152250000Y-100930000D03*
X153520000Y-98390000D03*
D21*
X156060000Y-103470000D03*
D20*
X158600000Y-98390000D03*
X159870000Y-100929999D03*
D19*
X160560000Y-103470000D03*
D18*
X161140000Y-103470000D03*
D22*
X150360000Y-98350000D03*
X163060000Y-100890000D03*
D18*
X131930000Y-105970000D03*
D19*
X132510000Y-105970000D03*
D20*
X133200000Y-103430000D03*
X134470000Y-100890000D03*
D21*
X137010000Y-105970000D03*
D20*
X139550000Y-100890000D03*
X140820000Y-103429999D03*
D19*
X141510000Y-105970000D03*
D18*
X142090000Y-105970000D03*
D22*
X131310000Y-100850000D03*
X144010000Y-103390000D03*
D18*
X112880000Y-108470000D03*
D19*
X113460000Y-108470000D03*
D20*
X114150000Y-105930000D03*
X115420000Y-103390000D03*
D21*
X117960000Y-108470000D03*
D20*
X120500000Y-103390000D03*
X121770000Y-105929999D03*
D19*
X122460000Y-108470000D03*
D18*
X123040000Y-108470000D03*
D22*
X112260000Y-103350000D03*
X124960000Y-105890000D03*
D18*
X93830000Y-111970000D03*
D19*
X94410000Y-111970000D03*
D20*
X95100000Y-109430000D03*
X96370000Y-106890000D03*
D21*
X98910000Y-111970000D03*
D20*
X101450000Y-106890000D03*
X102720000Y-109429999D03*
D19*
X103410000Y-111970000D03*
D18*
X103990000Y-111970000D03*
D22*
X93210000Y-106850000D03*
X105910000Y-109390000D03*
D18*
X208130000Y-134220000D03*
D19*
X208710000Y-134220000D03*
D20*
X209400000Y-131680000D03*
X210670000Y-129140000D03*
D21*
X213210000Y-134220000D03*
D20*
X215750000Y-129140000D03*
X217020000Y-131679999D03*
D19*
X217710000Y-134220000D03*
D18*
X218290000Y-134220000D03*
D22*
X207510000Y-129100000D03*
X220210000Y-131640000D03*
D18*
X189080000Y-134220000D03*
D19*
X189660000Y-134220000D03*
D20*
X190350000Y-131680000D03*
X191620000Y-129140000D03*
D21*
X194160000Y-134220000D03*
D20*
X196700000Y-129140000D03*
X197970000Y-131679999D03*
D19*
X198660000Y-134220000D03*
D18*
X199240000Y-134220000D03*
D22*
X188460000Y-129100000D03*
X201160000Y-131640000D03*
D23*
X201910000Y-62994700D03*
X205460000Y-62994700D03*
X201910000Y-61250000D03*
X205460000Y-61250000D03*
X163810000Y-52000000D03*
X167360000Y-52000000D03*
X163810000Y-50500000D03*
X167360000Y-50500000D03*
X125725000Y-53750000D03*
X129275000Y-53750000D03*
X125725000Y-52250000D03*
X129275000Y-52250000D03*
X201910000Y-83202500D03*
X205460000Y-83202500D03*
X163610000Y-75500000D03*
X167160000Y-75500000D03*
X125640800Y-75092400D03*
X129190800Y-75092400D03*
X201725000Y-103000000D03*
X205275000Y-103000000D03*
X163810000Y-93000000D03*
X167360000Y-93000000D03*
X163810000Y-91250000D03*
X167360000Y-91250000D03*
X125725000Y-93000000D03*
X129275000Y-93000000D03*
X125725000Y-91500000D03*
X129275000Y-91500000D03*
X201910000Y-120145000D03*
X205460000Y-120145000D03*
X201910000Y-118495300D03*
X205460000Y-118495300D03*
X163810000Y-112995000D03*
X167360000Y-112995000D03*
X163810000Y-111351900D03*
X167360000Y-111351900D03*
X125725000Y-112500000D03*
X129275000Y-112500000D03*
X125725000Y-111000000D03*
X129275000Y-111000000D03*
X106660000Y-115000000D03*
X110210000Y-115000000D03*
X201725000Y-139000000D03*
X205275000Y-139000000D03*
X201725000Y-137500000D03*
X205275000Y-137500000D03*
X135250000Y-58344700D03*
X138800000Y-58344700D03*
X116185000Y-60844700D03*
X119735000Y-60844700D03*
D24*
X104750000Y-74975000D03*
X104750000Y-78525000D03*
X104000000Y-64725000D03*
X104000000Y-68275000D03*
D23*
X98450000Y-98500000D03*
X102000000Y-98500000D03*
D25*
X90344900Y-45273800D03*
X90344900Y-47813800D03*
X90344900Y-50353800D03*
X90344900Y-52893800D03*
X90344900Y-55433800D03*
X90344900Y-57973800D03*
X90344900Y-60513800D03*
D26*
X106854900Y-60513800D03*
X106854900Y-57973800D03*
X106854900Y-55433800D03*
X106854900Y-52893800D03*
X106854900Y-50353800D03*
X106854900Y-47813800D03*
X106854900Y-45273800D03*
D27*
X89944900Y-46543800D03*
X89944900Y-49083800D03*
X89944900Y-51623800D03*
X89944900Y-54163800D03*
X89944900Y-56703800D03*
X89944900Y-59243800D03*
D28*
X107254900Y-59243800D03*
X107254900Y-56703800D03*
X107254900Y-54163800D03*
D19*
X97329900Y-44321300D03*
X99869900Y-44321300D03*
X97329900Y-46861300D03*
X99869900Y-46861300D03*
D29*
X97605912Y-58411623D03*
X99605912Y-58411623D03*
D16*
X121150000Y-55950000D03*
X121150000Y-57350000D03*
X115650000Y-57350000D03*
X115650000Y-55950000D03*
D23*
X163610000Y-74000000D03*
X167160000Y-74000000D03*
D30*
X91280000Y-93850000D03*
X89070000Y-93850000D03*
D31*
X90170000Y-96000000D03*
X90170000Y-99000000D03*
D30*
X91280000Y-101150000D03*
X89070000Y-101150000D03*
D32*
X91930000Y-95250000D03*
X91930000Y-98250000D03*
X91930000Y-99750000D03*
D23*
X125625000Y-73500000D03*
X129175000Y-73500000D03*
D33*
X102810500Y-81742100D03*
D34*
X97810500Y-81742100D03*
X100310500Y-81742100D03*
D35*
X105910500Y-89242100D03*
X94710500Y-89242100D03*
D34*
X102810500Y-96242100D03*
X97810500Y-96242100D03*
D23*
X201725000Y-101479409D03*
X205275000Y-101479409D03*
X201910000Y-81500000D03*
X205460000Y-81500000D03*
D16*
X215860000Y-63700000D03*
X215860000Y-62300000D03*
X210360000Y-62300000D03*
X210360000Y-63700000D03*
M02*
