M48
; DRILL file {KiCad 9.0.4} date 2025-10-25T01:26:31+0900
; FORMAT={-:-/ absolute / metric / decimal}
; #@! TF.CreationDate,2025-10-25T01:26:31+09:00
; #@! TF.GenerationSoftware,Kicad,Pcbnew,9.0.4
; #@! TF.FileFunction,Plated,1,2,PTH
FMAT,2
METRIC
; #@! TA.AperFunction,Plated,PTH,ViaDrill
T1C0.400
; #@! TA.AperFunction,Plated,PTH,ComponentDrill
T2C0.500
; #@! TA.AperFunction,Plated,PTH,ComponentDrill
T3C1.000
; #@! TA.AperFunction,Plated,PTH,ComponentDrill
T4C2.000
%
G90
G05
T1
X88.9Y-85.9
X89.075Y-62.2
X89.1Y-82.225
X89.1Y-112.3
X89.1Y-115.6
X89.15Y-69.3
X89.2Y-92.4
X89.2Y-105.0
X89.4Y-120.7
X89.646Y-70.168
X89.8Y-84.5
X91.0Y-102.75
X91.025Y-54.125
X91.25Y-72.0
X91.35Y-70.816
X91.7Y-118.4
X91.9Y-111.7
X91.91Y-109.39
X92.075Y-55.4
X92.2Y-114.8
X92.475Y-80.75
X92.5Y-104.3
X92.6Y-90.0
X92.649Y-50.849
X92.8Y-86.275
X93.2Y-77.5
X93.3Y-101.4
X93.319Y-74.4
X93.375Y-51.625
X93.4Y-56.7
X93.5Y-99.5
X93.501Y-79.143
X93.57Y-68.746
X93.7Y-116.6
X93.74Y-72.5
X93.75Y-48.0
X93.75Y-71.5
X93.901Y-67.491
X94.1Y-75.025
X94.25Y-53.05
X94.28Y-52.05
X94.3Y-95.8
X94.4Y-120.8
X94.426Y-84.0
X94.5Y-92.15
X95.061Y-69.3
X95.124Y-62.7
X95.25Y-94.65
X95.468Y-81.968
X95.5Y-113.6
X95.513Y-119.237
X95.525Y-78.125
X95.575Y-74.425
X95.575Y-76.175
X95.654Y-57.675
X95.825Y-56.37
X96.45Y-98.05
X96.898Y-54.45
X96.9Y-102.5
X97.0Y-119.25
X97.25Y-114.75
X97.275Y-99.675
X97.864Y-71.131
X97.975Y-61.3
X98.0Y-60.5
X98.0Y-62.125
X98.002Y-70.002
X98.019Y-72.118
X98.093Y-73.612
X98.1Y-74.8
X98.5Y-85.651
X99.0Y-93.7
X99.1Y-89.9
X99.4Y-108.7
X99.5Y-63.75
X99.5Y-78.5
X100.0Y-100.0
X100.5Y-72.1
X100.75Y-49.0
X101.4Y-86.7
X101.9Y-48.0
X101.9Y-75.3
X101.9Y-79.8
X102.1Y-44.3
X102.1Y-113.5
X102.3Y-50.9
X102.5Y-102.3
X102.602Y-65.092
X102.674Y-119.601
X102.676Y-55.834
X102.9Y-93.5
X103.0Y-89.9
X103.075Y-83.55
X103.4Y-63.4
X103.701Y-78.48
X103.8Y-48.6
X104.356Y-56.664
X104.4Y-104.2
X104.776Y-73.5
X104.8Y-120.6
X104.95Y-60.55
X105.1Y-81.7
X105.2Y-51.8
X105.25Y-116.25
X105.4Y-117.8
X105.5Y-85.9
X105.7Y-98.1
X105.746Y-58.764
X105.9Y-92.1
X106.66Y-109.0
X106.66Y-114.0
X107.2Y-69.1
X107.25Y-73.25
X108.1Y-82.9
X108.2Y-77.3
X108.2Y-105.5
X108.25Y-49.25
X108.3Y-74.5
X108.5Y-71.0
X109.1Y-54.7
X109.216Y-61.998
X109.3Y-51.8
X109.3Y-98.0
X109.4Y-63.6
X109.45Y-103.65
X109.7Y-88.8
X109.75Y-61.0
X109.8Y-44.2
X109.8Y-84.2
X109.9Y-71.7
X109.9Y-75.6
X109.9Y-79.2
X110.048Y-58.298
X110.185Y-59.5
X110.21Y-114.0
X110.6Y-120.7
X110.96Y-48.74
X110.96Y-66.35
X110.96Y-82.21
X110.96Y-100.5
X111.0Y-108.3
X111.105Y-115.8
X111.5Y-117.9
X112.0Y-43.689
X112.2Y-75.7
X112.2Y-113.8
X112.25Y-59.0
X112.3Y-78.2
X112.4Y-71.8
X112.5Y-63.1
X112.5Y-81.5
X112.8Y-54.8
X113.0Y-73.5
X113.612Y-56.862
X113.75Y-112.5
X113.8Y-110.1
X114.0Y-72.0
X114.2Y-42.8
X114.2Y-63.1
X114.5Y-79.5
X114.75Y-115.8
X114.893Y-96.941
X115.0Y-60.845
X115.25Y-58.75
X115.25Y-73.7
X115.488Y-52.405
X115.9Y-117.9
X115.956Y-110.287
X116.2Y-81.8
X116.4Y-48.15
X116.4Y-53.5
X116.44Y-62.45
X116.75Y-111.99
X116.8Y-100.1
X116.9Y-120.7
X117.45Y-46.95
X117.5Y-58.75
X117.5Y-78.75
X117.75Y-62.5
X118.0Y-92.5
X118.1Y-60.65
X118.25Y-54.64
X118.25Y-96.75
X118.3Y-105.2
X118.4Y-119.0
X118.5Y-116.01
X118.9Y-63.5
X119.5Y-73.0
X119.6Y-80.5
X119.65Y-67.25
X119.7Y-82.2
X119.7Y-86.2
X119.775Y-78.025
X120.75Y-96.75
X121.0Y-92.0
X121.0Y-110.8
X121.063Y-77.833
X121.2Y-42.8
X121.2Y-69.9
X121.25Y-60.845
X123.0Y-115.5
X123.2Y-59.2
X123.213Y-63.275
X123.5Y-73.0
X123.6Y-101.4
X123.66Y-65.25
X123.7Y-112.125
X124.05Y-78.9
X124.5Y-96.8
X124.6Y-117.0
X124.7Y-107.9
X124.96Y-48.74
X124.96Y-72.25
X124.96Y-86.84
X124.96Y-105.89
X125.7Y-65.5
X125.725Y-51.25
X125.725Y-90.5
X125.725Y-110.0
X125.8Y-103.7
X126.045Y-60.845
X126.4Y-77.7
X126.641Y-74.451
X126.799Y-53.149
X126.9Y-71.6
X126.95Y-92.147
X127.1Y-42.8
X127.1Y-82.15
X127.1Y-105.3
X127.2Y-89.9
X127.2Y-109.8
X127.226Y-111.226
X127.5Y-115.8
X127.8Y-67.7
X127.8Y-112.6
X128.4Y-77.7
X128.4Y-87.0
X128.4Y-88.4
X128.7Y-114.0
X128.9Y-96.6
X129.1Y-40.6
X129.1Y-80.4
X129.225Y-72.05
X129.275Y-51.275
X129.524Y-90.499
X129.776Y-77.25
X129.9Y-106.9
X130.01Y-46.24
X130.01Y-65.29
X130.01Y-84.34
X130.01Y-103.39
X130.5Y-112.5
X130.9Y-109.8
X131.25Y-93.75
X131.476Y-76.549
X131.5Y-95.7
X131.7Y-72.6
X131.7Y-115.5
X132.0Y-53.75
X132.0Y-78.6
X132.103Y-91.801
X132.3Y-112.4
X132.5Y-54.975
X132.5Y-74.5
X132.5Y-109.9
X132.6Y-94.3
X133.067Y-55.799
X134.0Y-58.25
X134.0Y-108.75
X134.1Y-69.0
X134.1Y-106.9
X134.12Y-75.13
X134.3Y-88.2
X135.7Y-95.8
X136.0Y-109.49
X136.9Y-102.3
X137.0Y-64.6
X137.0Y-83.5
X137.3Y-40.6
X137.5Y-94.51
X137.75Y-113.51
X139.0Y-71.021
X139.2Y-75.849
X139.25Y-56.0
X139.5Y-88.2
X139.9Y-87.0
X139.905Y-113.745
X140.2Y-69.0
X140.229Y-57.718
X140.3Y-60.7
X140.6Y-78.75
X140.6Y-88.2
X140.6Y-107.4
X141.5Y-115.5
X141.51Y-52.975
X141.9Y-94.3
X142.4Y-75.9
X142.5Y-53.9
X142.5Y-110.4
X142.5Y-112.97
X142.6Y-58.4
X142.71Y-43.7
X143.6Y-69.9
X143.6Y-71.4
X144.0Y-51.7
X144.0Y-88.7
X144.01Y-65.29
X144.01Y-84.34
X144.01Y-103.39
X144.4Y-74.7
X144.7Y-107.9
X144.9Y-61.7
X145.0Y-50.5
X145.1Y-67.5
X145.3Y-54.9
X145.4Y-40.6
X146.2Y-43.4
X146.4Y-104.7
X147.3Y-53.4
X147.3Y-76.0
X147.4Y-78.7
X147.5Y-58.2
X147.7Y-46.2
X147.7Y-50.4
X147.7Y-54.9
X147.7Y-68.35
X147.7Y-88.7
X147.7Y-94.4
X147.7Y-98.5
X147.8Y-60.7
X147.8Y-64.8
X147.8Y-107.3
X147.9Y-71.6
X148.0Y-74.8
X149.06Y-43.74
X149.06Y-62.79
X149.06Y-81.84
X149.06Y-100.89
X149.2Y-38.2
X149.5Y-104.9
X150.0Y-75.5
X150.2Y-110.4
X150.3Y-86.8
X150.3Y-93.2
X150.3Y-95.9
X150.3Y-112.995
X150.4Y-54.7
X150.4Y-115.5
X150.474Y-91.474
X150.6Y-53.4
X150.8Y-107.4
X150.9Y-50.4
X151.4Y-76.8
X151.5Y-71.5
X151.5Y-74.5
X151.75Y-106.0
X152.0Y-91.4
X152.3Y-67.7
X152.331Y-88.11
X152.35Y-54.35
X152.75Y-72.75
X152.9Y-47.4
X153.0Y-104.7
X153.75Y-92.0
X154.0Y-111.5
X154.03Y-106.698
X154.2Y-55.3
X155.6Y-76.7
X155.6Y-81.2
X155.75Y-53.5
X155.9Y-43.3
X156.1Y-62.0
X156.1Y-99.9
X156.25Y-92.0
X156.25Y-110.75
X156.3Y-38.2
X157.4Y-58.3
X157.8Y-113.0
X158.0Y-74.226
X158.154Y-49.475
X158.2Y-115.5
X158.5Y-68.745
X158.9Y-47.6
X159.2Y-104.7
X159.233Y-91.792
X159.6Y-54.2
X159.6Y-86.0
X160.0Y-76.8
X160.25Y-49.75
X160.3Y-73.1
X160.5Y-56.8
X160.6Y-67.4
X160.9Y-109.2
X160.975Y-71.221
X161.25Y-51.05
X161.6Y-111.7
X161.7Y-95.0
X162.2Y-48.4
X162.2Y-54.3
X162.4Y-57.1
X162.4Y-106.6
X162.5Y-109.1
X162.5Y-113.0
X162.501Y-75.452
X162.56Y-50.8
X162.662Y-92.059
X162.7Y-45.8
X163.06Y-62.79
X163.06Y-81.84
X163.06Y-100.89
X163.3Y-38.2
X163.61Y-73.0
X163.75Y-110.25
X163.8Y-60.5
X163.81Y-44.0
X163.81Y-48.75
X163.81Y-90.25
X164.2Y-79.4
X164.6Y-65.2
X164.8Y-85.5
X165.0Y-105.2
X165.0Y-109.1
X165.1Y-89.2
X165.2Y-47.85
X165.2Y-101.6
X165.4Y-111.6
X165.5Y-91.6
X165.6Y-72.0
X165.6Y-95.7
X165.7Y-50.0
X166.0Y-106.9
X166.1Y-46.2
X166.1Y-115.7
X166.55Y-44.313
X166.7Y-42.8
X166.8Y-79.4
X166.9Y-83.8
X166.9Y-118.0
X167.0Y-65.1
X167.1Y-60.5
X167.2Y-89.3
X167.3Y-101.3
X167.3Y-103.6
X167.4Y-95.8
X167.475Y-73.0
X167.475Y-76.85
X167.611Y-52.995
X167.804Y-92.325
X168.0Y-109.5
X168.11Y-48.44
X168.25Y-81.75
X168.386Y-62.5
X168.5Y-112.995
X168.579Y-101.0
X168.75Y-111.352
X169.161Y-56.336
X169.195Y-58.168
X169.225Y-74.225
X169.5Y-79.4
X169.6Y-54.45
X169.7Y-97.9
X169.7Y-115.7
X169.75Y-59.0
X169.9Y-72.0
X170.0Y-76.0
X170.2Y-100.8
X170.25Y-77.526
X170.4Y-95.3
X170.7Y-81.9
X170.75Y-56.7
X170.75Y-93.75
X170.8Y-113.75
X170.9Y-117.9
X171.3Y-109.7
X171.4Y-60.1
X171.5Y-111.271
X171.8Y-90.5
X172.0Y-92.7
X172.2Y-71.1
X173.25Y-111.49
X174.4Y-42.4
X174.8Y-79.6
X174.9Y-104.2
X175.1Y-66.6
X175.1Y-85.5
X175.25Y-96.75
X176.3Y-117.8
X177.25Y-72.188
X177.5Y-54.2
X177.5Y-115.3
X177.9Y-79.4
X178.2Y-70.7
X178.3Y-90.2
X178.4Y-109.3
X179.1Y-111.6
X179.2Y-97.1
X179.4Y-54.1
X179.75Y-76.5
X179.9Y-59.5
X180.42Y-73.83
X180.75Y-75.25
X180.95Y-115.25
X181.0Y-53.8
X181.0Y-92.5
X181.0Y-117.95
X182.1Y-57.1
X182.1Y-72.3
X182.11Y-48.44
X182.11Y-67.49
X182.11Y-86.54
X182.11Y-105.59
X182.2Y-109.7
X182.225Y-78.975
X182.4Y-113.5
X182.7Y-50.5
X182.9Y-62.5
X183.1Y-43.0
X183.4Y-88.8
X183.5Y-58.9
X183.9Y-56.5
X183.95Y-114.6
X184.25Y-119.75
X184.25Y-130.65
X184.3Y-124.5
X184.4Y-105.6
X184.7Y-49.7
X184.8Y-138.8
X185.1Y-75.2
X185.4Y-65.0
X185.4Y-115.8
X185.575Y-82.325
X185.6Y-68.8
X185.7Y-101.8
X185.8Y-96.4
X185.9Y-58.6
X185.9Y-109.8
X186.0Y-87.1
X186.9Y-136.5
X187.16Y-55.44
X187.16Y-70.5
X187.16Y-89.25
X187.16Y-108.0
X187.16Y-126.5
X187.3Y-133.9
X188.0Y-100.243
X188.275Y-85.025
X188.5Y-63.813
X188.5Y-118.2
X188.7Y-121.9
X188.8Y-61.8
X188.888Y-142.112
X188.9Y-66.8
X188.9Y-103.3
X188.9Y-106.9
X189.1Y-70.1
X189.226Y-99.518
X189.379Y-140.621
X189.394Y-82.604
X189.4Y-88.9
X189.5Y-81.5
X189.5Y-139.1
X189.794Y-120.206
X189.8Y-118.75
X190.574Y-64.882
X190.9Y-78.4
X191.0Y-97.7
X191.0Y-136.6
X191.006Y-61.202
X191.1Y-116.2
X191.2Y-59.1
X191.5Y-85.7
X191.75Y-117.95
X192.0Y-61.313
X192.5Y-137.99
X193.9Y-49.7
X194.0Y-54.7
X194.0Y-73.8
X194.0Y-130.8
X194.1Y-66.5
X194.1Y-93.1
X194.2Y-111.8
X195.5Y-88.8
X195.598Y-123.125
X195.9Y-85.7
X196.25Y-103.25
X196.5Y-80.406
X196.5Y-122.425
X196.8Y-117.2
X197.2Y-78.3
X197.3Y-97.5
X197.3Y-135.8
X197.4Y-59.4
X198.0Y-65.5
X198.3Y-118.0
X198.36Y-140.212
X198.4Y-69.0
X198.4Y-104.0
X198.5Y-121.5
X198.87Y-119.38
X198.93Y-81.448
X199.1Y-125.9
X199.3Y-85.9
X199.3Y-88.9
X199.516Y-139.026
X199.8Y-117.9
X200.0Y-137.7
X200.25Y-123.0
X200.498Y-100.252
X200.5Y-142.8
X200.75Y-60.5
X200.75Y-119.25
X200.891Y-139.834
X200.9Y-66.2
X201.08Y-80.67
X201.147Y-120.908
X201.16Y-55.44
X201.16Y-74.49
X201.16Y-93.54
X201.16Y-131.64
X201.4Y-133.8
X201.7Y-114.8
X202.0Y-72.5
X202.05Y-77.55
X202.1Y-91.2
X202.15Y-53.2
X202.15Y-95.55
X202.2Y-117.0
X202.4Y-80.0
X202.5Y-140.7
X202.55Y-99.5
X202.9Y-87.5
X203.1Y-102.6
X203.255Y-113.445
X203.5Y-78.25
X203.55Y-96.8
X203.6Y-135.9
X203.6Y-137.7
X203.6Y-139.4
X203.685Y-60.5
X203.685Y-63.15
X203.7Y-120.5
X203.7Y-131.2
X203.8Y-70.8
X203.9Y-116.2
X203.95Y-55.35
X204.0Y-93.3
X204.4Y-110.0
X204.6Y-49.7
X204.6Y-105.7
X205.1Y-141.1
X205.275Y-136.25
X205.35Y-57.75
X205.46Y-59.96
X205.46Y-80.5
X205.46Y-117.1
X205.5Y-77.0
X205.54Y-100.477
X206.025Y-103.75
X206.2Y-87.4
X206.21Y-55.44
X206.261Y-127.25
X206.3Y-66.2
X206.492Y-138.242
X206.6Y-136.3
X206.695Y-62.195
X206.791Y-119.041
X206.875Y-82.875
X207.0Y-108.25
X207.138Y-122.449
X207.25Y-88.75
X207.5Y-70.0
X207.75Y-119.75
X208.158Y-99.95
X208.2Y-140.2
X208.25Y-122.5
X208.5Y-121.5
X208.599Y-141.8
X208.6Y-106.4
X208.691Y-85.329
X208.7Y-66.3
X208.8Y-118.6
X208.857Y-64.251
X208.857Y-64.251
X208.91Y-62.3
X208.95Y-137.3
X209.0Y-79.75
X209.0Y-102.25
X209.179Y-99.8
X209.25Y-84.5
X209.5Y-87.4
X210.0Y-64.951
X210.0Y-78.7
X210.1Y-97.6
X210.2Y-59.3
X210.6Y-116.9
X211.0Y-124.4
X211.024Y-137.4
X211.7Y-66.9
X211.85Y-105.3
X212.5Y-108.8
X212.6Y-49.7
X213.0Y-73.9
X213.0Y-84.01
X213.0Y-92.9
X213.2Y-54.8
X213.2Y-126.7
X213.6Y-87.0
X213.75Y-103.75
X213.824Y-105.216
X214.7Y-112.0
X214.7Y-124.3
X215.1Y-66.8
X215.261Y-118.482
X215.4Y-106.5
X216.2Y-59.1
X216.4Y-78.4
X216.5Y-97.6
X216.7Y-142.7
X216.8Y-117.0
X217.0Y-83.75
X217.0Y-135.6
X217.2Y-137.2
X217.307Y-61.739
X217.7Y-104.9
X217.7Y-123.4
X217.75Y-80.75
X217.8Y-118.6
X218.0Y-100.75
X218.25Y-64.3
X218.3Y-85.1
X218.3Y-139.5
X218.7Y-108.0
X218.7Y-127.0
X218.9Y-120.9
X219.0Y-61.6
X219.3Y-135.6
X219.356Y-73.636
X219.5Y-69.9
X219.55Y-66.8
X219.9Y-133.8
X220.21Y-55.44
X220.21Y-93.54
X220.21Y-112.59
X220.21Y-131.64
X220.6Y-50.0
X221.0Y-89.3
X221.2Y-101.6
X221.2Y-115.0
X221.2Y-123.6
X221.3Y-53.2
X221.3Y-57.9
X221.3Y-110.4
X221.3Y-129.4
X221.3Y-133.8
X221.3Y-142.5
X221.4Y-82.6
X221.4Y-95.7
X221.5Y-63.8
X221.5Y-136.6
X221.6Y-140.0
X221.752Y-77.856
X221.8Y-67.9
X221.8Y-71.4
T2
X91.125Y-64.575
X92.125Y-64.575
X93.125Y-64.575
T3
X97.81Y-81.742
X97.81Y-96.242
X100.31Y-81.742
X102.81Y-81.742
X102.81Y-96.242
T4
G00X94.71Y-88.992
M15
G01X94.71Y-89.492
M16
G05
G00X105.91Y-88.992
M15
G01X105.91Y-89.492
M16
G05
M30
