M48
; DRILL file {KiCad 9.0.4} date 2025-10-25T01:26:31+0900
; FORMAT={-:-/ absolute / metric / decimal}
; #@! TF.CreationDate,2025-10-25T01:26:31+09:00
; #@! TF.GenerationSoftware,Kicad,Pcbnew,9.0.4
; #@! TF.FileFunction,NonPlated,1,2,NPTH
FMAT,2
METRIC
; #@! TA.AperFunction,NonPlated,NPTH,ComponentDrill
T1C0.900
; #@! TA.AperFunction,NonPlated,NPTH,ComponentDrill
T2C1.700
; #@! TA.AperFunction,NonPlated,NPTH,ComponentDrill
T3C1.900
; #@! TA.AperFunction,NonPlated,NPTH,ComponentDrill
T4C3.000
; #@! TA.AperFunction,NonPlated,NPTH,ComponentDrill
T5C4.100
; #@! TA.AperFunction,NonPlated,NPTH,ComponentDrill
T6C4.300
%
G90
G05
T1
X90.17Y-96.0
X90.17Y-99.0
T2
X94.41Y-111.97
X103.41Y-111.97
X113.46Y-51.32
X113.46Y-70.37
X113.46Y-89.42
X113.46Y-108.47
X122.46Y-51.32
X122.46Y-70.37
X122.46Y-89.42
X122.46Y-108.47
X132.51Y-48.82
X132.51Y-67.87
X132.51Y-86.92
X132.51Y-105.97
X141.51Y-48.82
X141.51Y-67.87
X141.51Y-86.92
X141.51Y-105.97
X151.56Y-46.32
X151.56Y-65.37
X151.56Y-84.42
X151.56Y-103.47
X160.56Y-46.32
X160.56Y-65.37
X160.56Y-84.42
X160.56Y-103.47
X170.61Y-51.02
X170.61Y-70.07
X170.61Y-89.12
X170.61Y-108.17
X179.61Y-51.02
X179.61Y-70.07
X179.61Y-89.12
X179.61Y-108.17
X189.66Y-58.02
X189.66Y-77.07
X189.66Y-96.12
X189.66Y-115.17
X189.66Y-134.22
X198.66Y-58.02
X198.66Y-77.07
X198.66Y-96.12
X198.66Y-115.17
X198.66Y-134.22
X208.71Y-58.02
X208.71Y-77.07
X208.71Y-96.12
X208.71Y-115.17
X208.71Y-134.22
X217.71Y-58.02
X217.71Y-77.07
X217.71Y-96.12
X217.71Y-115.17
X217.71Y-134.22
T3
X93.83Y-111.97
X103.99Y-111.97
X112.88Y-51.32
X112.88Y-70.37
X112.88Y-89.42
X112.88Y-108.47
X123.04Y-51.32
X123.04Y-70.37
X123.04Y-89.42
X123.04Y-108.47
X131.93Y-48.82
X131.93Y-67.87
X131.93Y-86.92
X131.93Y-105.97
X142.09Y-48.82
X142.09Y-67.87
X142.09Y-86.92
X142.09Y-105.97
X150.98Y-46.32
X150.98Y-65.37
X150.98Y-84.42
X150.98Y-103.47
X161.14Y-46.32
X161.14Y-65.37
X161.14Y-84.42
X161.14Y-103.47
X170.03Y-51.02
X170.03Y-70.07
X170.03Y-89.12
X170.03Y-108.17
X180.19Y-51.02
X180.19Y-70.07
X180.19Y-89.12
X180.19Y-108.17
X189.08Y-58.02
X189.08Y-77.07
X189.08Y-96.12
X189.08Y-115.17
X189.08Y-134.22
X199.24Y-58.02
X199.24Y-77.07
X199.24Y-96.12
X199.24Y-115.17
X199.24Y-134.22
X208.13Y-58.02
X208.13Y-77.07
X208.13Y-96.12
X208.13Y-115.17
X208.13Y-134.22
X218.29Y-58.02
X218.29Y-77.07
X218.29Y-96.12
X218.29Y-115.17
X218.29Y-134.22
T4
X95.1Y-109.43
X96.37Y-106.89
X101.45Y-106.89
X102.72Y-109.43
X114.15Y-48.78
X114.15Y-67.83
X114.15Y-86.88
X114.15Y-105.93
X115.42Y-46.24
X115.42Y-65.29
X115.42Y-84.34
X115.42Y-103.39
X120.5Y-46.24
X120.5Y-65.29
X120.5Y-84.34
X120.5Y-103.39
X121.77Y-48.78
X121.77Y-67.83
X121.77Y-86.88
X121.77Y-105.93
X133.2Y-46.28
X133.2Y-65.33
X133.2Y-84.38
X133.2Y-103.43
X134.47Y-43.74
X134.47Y-62.79
X134.47Y-81.84
X134.47Y-100.89
X139.55Y-43.74
X139.55Y-62.79
X139.55Y-81.84
X139.55Y-100.89
X140.82Y-46.28
X140.82Y-65.33
X140.82Y-84.38
X140.82Y-103.43
X152.25Y-43.78
X152.25Y-62.83
X152.25Y-81.88
X152.25Y-100.93
X153.52Y-41.24
X153.52Y-60.29
X153.52Y-79.34
X153.52Y-98.39
X158.6Y-41.24
X158.6Y-60.29
X158.6Y-79.34
X158.6Y-98.39
X159.87Y-43.78
X159.87Y-62.83
X159.87Y-81.88
X159.87Y-100.93
X171.3Y-48.48
X171.3Y-67.53
X171.3Y-86.58
X171.3Y-105.63
X172.57Y-45.94
X172.57Y-64.99
X172.57Y-84.04
X172.57Y-103.09
X177.65Y-45.94
X177.65Y-64.99
X177.65Y-84.04
X177.65Y-103.09
X178.92Y-48.48
X178.92Y-67.53
X178.92Y-86.58
X178.92Y-105.63
X190.35Y-55.48
X190.35Y-74.53
X190.35Y-93.58
X190.35Y-112.63
X190.35Y-131.68
X191.62Y-52.94
X191.62Y-71.99
X191.62Y-91.04
X191.62Y-110.09
X191.62Y-129.14
X196.7Y-52.94
X196.7Y-71.99
X196.7Y-91.04
X196.7Y-110.09
X196.7Y-129.14
X197.97Y-55.48
X197.97Y-74.53
X197.97Y-93.58
X197.97Y-112.63
X197.97Y-131.68
X209.4Y-55.48
X209.4Y-74.53
X209.4Y-93.58
X209.4Y-112.63
X209.4Y-131.68
X210.67Y-52.94
X210.67Y-71.99
X210.67Y-91.04
X210.67Y-110.09
X210.67Y-129.14
X215.75Y-52.94
X215.75Y-71.99
X215.75Y-91.04
X215.75Y-110.09
X215.75Y-129.14
X217.02Y-55.48
X217.02Y-74.53
X217.02Y-93.58
X217.02Y-112.63
X217.02Y-131.68
T5
X98.91Y-111.97
X117.96Y-51.32
X117.96Y-70.37
X117.96Y-89.42
X117.96Y-108.47
X137.01Y-48.82
X137.01Y-67.87
X137.01Y-86.92
X137.01Y-105.97
X156.06Y-46.32
X156.06Y-65.37
X156.06Y-84.42
X156.06Y-103.47
X175.11Y-51.02
X175.11Y-70.07
X175.11Y-89.12
X175.11Y-108.17
X194.16Y-58.02
X194.16Y-77.07
X194.16Y-96.12
X194.16Y-115.17
X194.16Y-134.22
X213.21Y-58.02
X213.21Y-77.07
X213.21Y-96.12
X213.21Y-115.17
X213.21Y-134.22
T6
X127.067Y-98.945
X127.903Y-58.345
X165.167Y-55.845
X166.003Y-98.645
X203.685Y-67.545
X203.685Y-124.695
M30
