G04 #@! TF.GenerationSoftware,KiCad,Pcbnew,9.0.4*
G04 #@! TF.CreationDate,2025-10-25T01:26:29+09:00*
G04 #@! TF.ProjectId,molak_right,6d6f6c61-6b5f-4726-9967-68742e6b6963,rev?*
G04 #@! TF.SameCoordinates,Original*
G04 #@! TF.FileFunction,Legend,Bot*
G04 #@! TF.FilePolarity,Positive*
%FSLAX46Y46*%
G04 Gerber Fmt 4.6, Leading zero omitted, Abs format (unit mm)*
G04 Created by KiCad (PCBNEW 9.0.4) date 2025-10-25 01:26:29*
%MOMM*%
%LPD*%
G01*
G04 APERTURE LIST*
%ADD10C,0.150000*%
%ADD11C,0.200000*%
%ADD12C,0.000000*%
%ADD13C,0.120000*%
G04 APERTURE END LIST*
D10*
X93529819Y-70891666D02*
X94244104Y-70891666D01*
X94244104Y-70891666D02*
X94386961Y-70844047D01*
X94386961Y-70844047D02*
X94482200Y-70748809D01*
X94482200Y-70748809D02*
X94529819Y-70605952D01*
X94529819Y-70605952D02*
X94529819Y-70510714D01*
X93625057Y-71320238D02*
X93577438Y-71367857D01*
X93577438Y-71367857D02*
X93529819Y-71463095D01*
X93529819Y-71463095D02*
X93529819Y-71701190D01*
X93529819Y-71701190D02*
X93577438Y-71796428D01*
X93577438Y-71796428D02*
X93625057Y-71844047D01*
X93625057Y-71844047D02*
X93720295Y-71891666D01*
X93720295Y-71891666D02*
X93815533Y-71891666D01*
X93815533Y-71891666D02*
X93958390Y-71844047D01*
X93958390Y-71844047D02*
X94529819Y-71272619D01*
X94529819Y-71272619D02*
X94529819Y-71891666D01*
D11*
X137556714Y-50802169D02*
X137509095Y-50754550D01*
X137509095Y-50754550D02*
X137413857Y-50706931D01*
X137413857Y-50706931D02*
X137175762Y-50706931D01*
X137175762Y-50706931D02*
X137080524Y-50754550D01*
X137080524Y-50754550D02*
X137032905Y-50802169D01*
X137032905Y-50802169D02*
X136985286Y-50897407D01*
X136985286Y-50897407D02*
X136985286Y-50992645D01*
X136985286Y-50992645D02*
X137032905Y-51135502D01*
X137032905Y-51135502D02*
X137604333Y-51706931D01*
X137604333Y-51706931D02*
X136985286Y-51706931D01*
X156307633Y-48137031D02*
X155688586Y-48137031D01*
X155688586Y-48137031D02*
X156021919Y-48517983D01*
X156021919Y-48517983D02*
X155879062Y-48517983D01*
X155879062Y-48517983D02*
X155783824Y-48565602D01*
X155783824Y-48565602D02*
X155736205Y-48613221D01*
X155736205Y-48613221D02*
X155688586Y-48708459D01*
X155688586Y-48708459D02*
X155688586Y-48946554D01*
X155688586Y-48946554D02*
X155736205Y-49041792D01*
X155736205Y-49041792D02*
X155783824Y-49089412D01*
X155783824Y-49089412D02*
X155879062Y-49137031D01*
X155879062Y-49137031D02*
X156164776Y-49137031D01*
X156164776Y-49137031D02*
X156260014Y-49089412D01*
X156260014Y-49089412D02*
X156307633Y-49041792D01*
X170380524Y-55770264D02*
X170380524Y-56436931D01*
X170618619Y-55389312D02*
X170856714Y-56103597D01*
X170856714Y-56103597D02*
X170237667Y-56103597D01*
X189556505Y-62569831D02*
X190032695Y-62569831D01*
X190032695Y-62569831D02*
X190080314Y-63046021D01*
X190080314Y-63046021D02*
X190032695Y-62998402D01*
X190032695Y-62998402D02*
X189937457Y-62950783D01*
X189937457Y-62950783D02*
X189699362Y-62950783D01*
X189699362Y-62950783D02*
X189604124Y-62998402D01*
X189604124Y-62998402D02*
X189556505Y-63046021D01*
X189556505Y-63046021D02*
X189508886Y-63141259D01*
X189508886Y-63141259D02*
X189508886Y-63379354D01*
X189508886Y-63379354D02*
X189556505Y-63474592D01*
X189556505Y-63474592D02*
X189604124Y-63522212D01*
X189604124Y-63522212D02*
X189699362Y-63569831D01*
X189699362Y-63569831D02*
X189937457Y-63569831D01*
X189937457Y-63569831D02*
X190032695Y-63522212D01*
X190032695Y-63522212D02*
X190080314Y-63474592D01*
X213214333Y-78757231D02*
X212547667Y-78757231D01*
X212547667Y-78757231D02*
X212976238Y-79757231D01*
X191224438Y-79477302D02*
X191319676Y-79429683D01*
X191319676Y-79429683D02*
X191367295Y-79382064D01*
X191367295Y-79382064D02*
X191414914Y-79286826D01*
X191414914Y-79286826D02*
X191414914Y-79239207D01*
X191414914Y-79239207D02*
X191367295Y-79143969D01*
X191367295Y-79143969D02*
X191319676Y-79096350D01*
X191319676Y-79096350D02*
X191224438Y-79048731D01*
X191224438Y-79048731D02*
X191033962Y-79048731D01*
X191033962Y-79048731D02*
X190938724Y-79096350D01*
X190938724Y-79096350D02*
X190891105Y-79143969D01*
X190891105Y-79143969D02*
X190843486Y-79239207D01*
X190843486Y-79239207D02*
X190843486Y-79286826D01*
X190843486Y-79286826D02*
X190891105Y-79382064D01*
X190891105Y-79382064D02*
X190938724Y-79429683D01*
X190938724Y-79429683D02*
X191033962Y-79477302D01*
X191033962Y-79477302D02*
X191224438Y-79477302D01*
X191224438Y-79477302D02*
X191319676Y-79524921D01*
X191319676Y-79524921D02*
X191367295Y-79572540D01*
X191367295Y-79572540D02*
X191414914Y-79667778D01*
X191414914Y-79667778D02*
X191414914Y-79858254D01*
X191414914Y-79858254D02*
X191367295Y-79953492D01*
X191367295Y-79953492D02*
X191319676Y-80001112D01*
X191319676Y-80001112D02*
X191224438Y-80048731D01*
X191224438Y-80048731D02*
X191033962Y-80048731D01*
X191033962Y-80048731D02*
X190938724Y-80001112D01*
X190938724Y-80001112D02*
X190891105Y-79953492D01*
X190891105Y-79953492D02*
X190843486Y-79858254D01*
X190843486Y-79858254D02*
X190843486Y-79667778D01*
X190843486Y-79667778D02*
X190891105Y-79572540D01*
X190891105Y-79572540D02*
X190938724Y-79524921D01*
X190938724Y-79524921D02*
X191033962Y-79477302D01*
X172230476Y-72742231D02*
X172040000Y-72742231D01*
X172040000Y-72742231D02*
X171944762Y-72694612D01*
X171944762Y-72694612D02*
X171897143Y-72646992D01*
X171897143Y-72646992D02*
X171801905Y-72504135D01*
X171801905Y-72504135D02*
X171754286Y-72313659D01*
X171754286Y-72313659D02*
X171754286Y-71932707D01*
X171754286Y-71932707D02*
X171801905Y-71837469D01*
X171801905Y-71837469D02*
X171849524Y-71789850D01*
X171849524Y-71789850D02*
X171944762Y-71742231D01*
X171944762Y-71742231D02*
X172135238Y-71742231D01*
X172135238Y-71742231D02*
X172230476Y-71789850D01*
X172230476Y-71789850D02*
X172278095Y-71837469D01*
X172278095Y-71837469D02*
X172325714Y-71932707D01*
X172325714Y-71932707D02*
X172325714Y-72170802D01*
X172325714Y-72170802D02*
X172278095Y-72266040D01*
X172278095Y-72266040D02*
X172230476Y-72313659D01*
X172230476Y-72313659D02*
X172135238Y-72361278D01*
X172135238Y-72361278D02*
X171944762Y-72361278D01*
X171944762Y-72361278D02*
X171849524Y-72313659D01*
X171849524Y-72313659D02*
X171801905Y-72266040D01*
X171801905Y-72266040D02*
X171754286Y-72170802D01*
X153144077Y-68286531D02*
X153715505Y-68286531D01*
X153429791Y-68286531D02*
X153429791Y-67286531D01*
X153429791Y-67286531D02*
X153525029Y-67429388D01*
X153525029Y-67429388D02*
X153620267Y-67524626D01*
X153620267Y-67524626D02*
X153715505Y-67572245D01*
X152525029Y-67286531D02*
X152429791Y-67286531D01*
X152429791Y-67286531D02*
X152334553Y-67334150D01*
X152334553Y-67334150D02*
X152286934Y-67381769D01*
X152286934Y-67381769D02*
X152239315Y-67477007D01*
X152239315Y-67477007D02*
X152191696Y-67667483D01*
X152191696Y-67667483D02*
X152191696Y-67905578D01*
X152191696Y-67905578D02*
X152239315Y-68096054D01*
X152239315Y-68096054D02*
X152286934Y-68191292D01*
X152286934Y-68191292D02*
X152334553Y-68238912D01*
X152334553Y-68238912D02*
X152429791Y-68286531D01*
X152429791Y-68286531D02*
X152525029Y-68286531D01*
X152525029Y-68286531D02*
X152620267Y-68238912D01*
X152620267Y-68238912D02*
X152667886Y-68191292D01*
X152667886Y-68191292D02*
X152715505Y-68096054D01*
X152715505Y-68096054D02*
X152763124Y-67905578D01*
X152763124Y-67905578D02*
X152763124Y-67667483D01*
X152763124Y-67667483D02*
X152715505Y-67477007D01*
X152715505Y-67477007D02*
X152667886Y-67381769D01*
X152667886Y-67381769D02*
X152620267Y-67334150D01*
X152620267Y-67334150D02*
X152525029Y-67286531D01*
X134340477Y-70801931D02*
X134911905Y-70801931D01*
X134626191Y-70801931D02*
X134626191Y-69801931D01*
X134626191Y-69801931D02*
X134721429Y-69944788D01*
X134721429Y-69944788D02*
X134816667Y-70040026D01*
X134816667Y-70040026D02*
X134911905Y-70087645D01*
X133388096Y-70801931D02*
X133959524Y-70801931D01*
X133673810Y-70801931D02*
X133673810Y-69801931D01*
X133673810Y-69801931D02*
X133769048Y-69944788D01*
X133769048Y-69944788D02*
X133864286Y-70040026D01*
X133864286Y-70040026D02*
X133959524Y-70087645D01*
X115250477Y-73301931D02*
X115821905Y-73301931D01*
X115536191Y-73301931D02*
X115536191Y-72301931D01*
X115536191Y-72301931D02*
X115631429Y-72444788D01*
X115631429Y-72444788D02*
X115726667Y-72540026D01*
X115726667Y-72540026D02*
X115821905Y-72587645D01*
X114869524Y-72397169D02*
X114821905Y-72349550D01*
X114821905Y-72349550D02*
X114726667Y-72301931D01*
X114726667Y-72301931D02*
X114488572Y-72301931D01*
X114488572Y-72301931D02*
X114393334Y-72349550D01*
X114393334Y-72349550D02*
X114345715Y-72397169D01*
X114345715Y-72397169D02*
X114298096Y-72492407D01*
X114298096Y-72492407D02*
X114298096Y-72587645D01*
X114298096Y-72587645D02*
X114345715Y-72730502D01*
X114345715Y-72730502D02*
X114917143Y-73301931D01*
X114917143Y-73301931D02*
X114298096Y-73301931D01*
X115375977Y-92490331D02*
X115947405Y-92490331D01*
X115661691Y-92490331D02*
X115661691Y-91490331D01*
X115661691Y-91490331D02*
X115756929Y-91633188D01*
X115756929Y-91633188D02*
X115852167Y-91728426D01*
X115852167Y-91728426D02*
X115947405Y-91776045D01*
X115042643Y-91490331D02*
X114423596Y-91490331D01*
X114423596Y-91490331D02*
X114756929Y-91871283D01*
X114756929Y-91871283D02*
X114614072Y-91871283D01*
X114614072Y-91871283D02*
X114518834Y-91918902D01*
X114518834Y-91918902D02*
X114471215Y-91966521D01*
X114471215Y-91966521D02*
X114423596Y-92061759D01*
X114423596Y-92061759D02*
X114423596Y-92299854D01*
X114423596Y-92299854D02*
X114471215Y-92395092D01*
X114471215Y-92395092D02*
X114518834Y-92442712D01*
X114518834Y-92442712D02*
X114614072Y-92490331D01*
X114614072Y-92490331D02*
X114899786Y-92490331D01*
X114899786Y-92490331D02*
X114995024Y-92442712D01*
X114995024Y-92442712D02*
X115042643Y-92395092D01*
X134300477Y-90302231D02*
X134871905Y-90302231D01*
X134586191Y-90302231D02*
X134586191Y-89302231D01*
X134586191Y-89302231D02*
X134681429Y-89445088D01*
X134681429Y-89445088D02*
X134776667Y-89540326D01*
X134776667Y-89540326D02*
X134871905Y-89587945D01*
X133443334Y-89635564D02*
X133443334Y-90302231D01*
X133681429Y-89254612D02*
X133919524Y-89968897D01*
X133919524Y-89968897D02*
X133300477Y-89968897D01*
X153730477Y-87281931D02*
X154301905Y-87281931D01*
X154016191Y-87281931D02*
X154016191Y-86281931D01*
X154016191Y-86281931D02*
X154111429Y-86424788D01*
X154111429Y-86424788D02*
X154206667Y-86520026D01*
X154206667Y-86520026D02*
X154301905Y-86567645D01*
X152825715Y-86281931D02*
X153301905Y-86281931D01*
X153301905Y-86281931D02*
X153349524Y-86758121D01*
X153349524Y-86758121D02*
X153301905Y-86710502D01*
X153301905Y-86710502D02*
X153206667Y-86662883D01*
X153206667Y-86662883D02*
X152968572Y-86662883D01*
X152968572Y-86662883D02*
X152873334Y-86710502D01*
X152873334Y-86710502D02*
X152825715Y-86758121D01*
X152825715Y-86758121D02*
X152778096Y-86853359D01*
X152778096Y-86853359D02*
X152778096Y-87091454D01*
X152778096Y-87091454D02*
X152825715Y-87186692D01*
X152825715Y-87186692D02*
X152873334Y-87234312D01*
X152873334Y-87234312D02*
X152968572Y-87281931D01*
X152968572Y-87281931D02*
X153206667Y-87281931D01*
X153206667Y-87281931D02*
X153301905Y-87234312D01*
X153301905Y-87234312D02*
X153349524Y-87186692D01*
X172290477Y-92361931D02*
X172861905Y-92361931D01*
X172576191Y-92361931D02*
X172576191Y-91361931D01*
X172576191Y-91361931D02*
X172671429Y-91504788D01*
X172671429Y-91504788D02*
X172766667Y-91600026D01*
X172766667Y-91600026D02*
X172861905Y-91647645D01*
X171433334Y-91361931D02*
X171623810Y-91361931D01*
X171623810Y-91361931D02*
X171719048Y-91409550D01*
X171719048Y-91409550D02*
X171766667Y-91457169D01*
X171766667Y-91457169D02*
X171861905Y-91600026D01*
X171861905Y-91600026D02*
X171909524Y-91790502D01*
X171909524Y-91790502D02*
X171909524Y-92171454D01*
X171909524Y-92171454D02*
X171861905Y-92266692D01*
X171861905Y-92266692D02*
X171814286Y-92314312D01*
X171814286Y-92314312D02*
X171719048Y-92361931D01*
X171719048Y-92361931D02*
X171528572Y-92361931D01*
X171528572Y-92361931D02*
X171433334Y-92314312D01*
X171433334Y-92314312D02*
X171385715Y-92266692D01*
X171385715Y-92266692D02*
X171338096Y-92171454D01*
X171338096Y-92171454D02*
X171338096Y-91933359D01*
X171338096Y-91933359D02*
X171385715Y-91838121D01*
X171385715Y-91838121D02*
X171433334Y-91790502D01*
X171433334Y-91790502D02*
X171528572Y-91742883D01*
X171528572Y-91742883D02*
X171719048Y-91742883D01*
X171719048Y-91742883D02*
X171814286Y-91790502D01*
X171814286Y-91790502D02*
X171861905Y-91838121D01*
X171861905Y-91838121D02*
X171909524Y-91933359D01*
X191353777Y-99036031D02*
X191925205Y-99036031D01*
X191639491Y-99036031D02*
X191639491Y-98036031D01*
X191639491Y-98036031D02*
X191734729Y-98178888D01*
X191734729Y-98178888D02*
X191829967Y-98274126D01*
X191829967Y-98274126D02*
X191925205Y-98321745D01*
X191020443Y-98036031D02*
X190353777Y-98036031D01*
X190353777Y-98036031D02*
X190782348Y-99036031D01*
X210708677Y-99184431D02*
X211280105Y-99184431D01*
X210994391Y-99184431D02*
X210994391Y-98184431D01*
X210994391Y-98184431D02*
X211089629Y-98327288D01*
X211089629Y-98327288D02*
X211184867Y-98422526D01*
X211184867Y-98422526D02*
X211280105Y-98470145D01*
X210137248Y-98613002D02*
X210232486Y-98565383D01*
X210232486Y-98565383D02*
X210280105Y-98517764D01*
X210280105Y-98517764D02*
X210327724Y-98422526D01*
X210327724Y-98422526D02*
X210327724Y-98374907D01*
X210327724Y-98374907D02*
X210280105Y-98279669D01*
X210280105Y-98279669D02*
X210232486Y-98232050D01*
X210232486Y-98232050D02*
X210137248Y-98184431D01*
X210137248Y-98184431D02*
X209946772Y-98184431D01*
X209946772Y-98184431D02*
X209851534Y-98232050D01*
X209851534Y-98232050D02*
X209803915Y-98279669D01*
X209803915Y-98279669D02*
X209756296Y-98374907D01*
X209756296Y-98374907D02*
X209756296Y-98422526D01*
X209756296Y-98422526D02*
X209803915Y-98517764D01*
X209803915Y-98517764D02*
X209851534Y-98565383D01*
X209851534Y-98565383D02*
X209946772Y-98613002D01*
X209946772Y-98613002D02*
X210137248Y-98613002D01*
X210137248Y-98613002D02*
X210232486Y-98660621D01*
X210232486Y-98660621D02*
X210280105Y-98708240D01*
X210280105Y-98708240D02*
X210327724Y-98803478D01*
X210327724Y-98803478D02*
X210327724Y-98993954D01*
X210327724Y-98993954D02*
X210280105Y-99089192D01*
X210280105Y-99089192D02*
X210232486Y-99136812D01*
X210232486Y-99136812D02*
X210137248Y-99184431D01*
X210137248Y-99184431D02*
X209946772Y-99184431D01*
X209946772Y-99184431D02*
X209851534Y-99136812D01*
X209851534Y-99136812D02*
X209803915Y-99089192D01*
X209803915Y-99089192D02*
X209756296Y-98993954D01*
X209756296Y-98993954D02*
X209756296Y-98803478D01*
X209756296Y-98803478D02*
X209803915Y-98708240D01*
X209803915Y-98708240D02*
X209851534Y-98660621D01*
X209851534Y-98660621D02*
X209946772Y-98613002D01*
X210490477Y-118239931D02*
X211061905Y-118239931D01*
X210776191Y-118239931D02*
X210776191Y-117239931D01*
X210776191Y-117239931D02*
X210871429Y-117382788D01*
X210871429Y-117382788D02*
X210966667Y-117478026D01*
X210966667Y-117478026D02*
X211061905Y-117525645D01*
X210014286Y-118239931D02*
X209823810Y-118239931D01*
X209823810Y-118239931D02*
X209728572Y-118192312D01*
X209728572Y-118192312D02*
X209680953Y-118144692D01*
X209680953Y-118144692D02*
X209585715Y-118001835D01*
X209585715Y-118001835D02*
X209538096Y-117811359D01*
X209538096Y-117811359D02*
X209538096Y-117430407D01*
X209538096Y-117430407D02*
X209585715Y-117335169D01*
X209585715Y-117335169D02*
X209633334Y-117287550D01*
X209633334Y-117287550D02*
X209728572Y-117239931D01*
X209728572Y-117239931D02*
X209919048Y-117239931D01*
X209919048Y-117239931D02*
X210014286Y-117287550D01*
X210014286Y-117287550D02*
X210061905Y-117335169D01*
X210061905Y-117335169D02*
X210109524Y-117430407D01*
X210109524Y-117430407D02*
X210109524Y-117668502D01*
X210109524Y-117668502D02*
X210061905Y-117763740D01*
X210061905Y-117763740D02*
X210014286Y-117811359D01*
X210014286Y-117811359D02*
X209919048Y-117858978D01*
X209919048Y-117858978D02*
X209728572Y-117858978D01*
X209728572Y-117858978D02*
X209633334Y-117811359D01*
X209633334Y-117811359D02*
X209585715Y-117763740D01*
X209585715Y-117763740D02*
X209538096Y-117668502D01*
X191871905Y-116867469D02*
X191824286Y-116819850D01*
X191824286Y-116819850D02*
X191729048Y-116772231D01*
X191729048Y-116772231D02*
X191490953Y-116772231D01*
X191490953Y-116772231D02*
X191395715Y-116819850D01*
X191395715Y-116819850D02*
X191348096Y-116867469D01*
X191348096Y-116867469D02*
X191300477Y-116962707D01*
X191300477Y-116962707D02*
X191300477Y-117057945D01*
X191300477Y-117057945D02*
X191348096Y-117200802D01*
X191348096Y-117200802D02*
X191919524Y-117772231D01*
X191919524Y-117772231D02*
X191300477Y-117772231D01*
X190681429Y-116772231D02*
X190586191Y-116772231D01*
X190586191Y-116772231D02*
X190490953Y-116819850D01*
X190490953Y-116819850D02*
X190443334Y-116867469D01*
X190443334Y-116867469D02*
X190395715Y-116962707D01*
X190395715Y-116962707D02*
X190348096Y-117153183D01*
X190348096Y-117153183D02*
X190348096Y-117391278D01*
X190348096Y-117391278D02*
X190395715Y-117581754D01*
X190395715Y-117581754D02*
X190443334Y-117676992D01*
X190443334Y-117676992D02*
X190490953Y-117724612D01*
X190490953Y-117724612D02*
X190586191Y-117772231D01*
X190586191Y-117772231D02*
X190681429Y-117772231D01*
X190681429Y-117772231D02*
X190776667Y-117724612D01*
X190776667Y-117724612D02*
X190824286Y-117676992D01*
X190824286Y-117676992D02*
X190871905Y-117581754D01*
X190871905Y-117581754D02*
X190919524Y-117391278D01*
X190919524Y-117391278D02*
X190919524Y-117153183D01*
X190919524Y-117153183D02*
X190871905Y-116962707D01*
X190871905Y-116962707D02*
X190824286Y-116867469D01*
X190824286Y-116867469D02*
X190776667Y-116819850D01*
X190776667Y-116819850D02*
X190681429Y-116772231D01*
X211021905Y-136017169D02*
X210974286Y-135969550D01*
X210974286Y-135969550D02*
X210879048Y-135921931D01*
X210879048Y-135921931D02*
X210640953Y-135921931D01*
X210640953Y-135921931D02*
X210545715Y-135969550D01*
X210545715Y-135969550D02*
X210498096Y-136017169D01*
X210498096Y-136017169D02*
X210450477Y-136112407D01*
X210450477Y-136112407D02*
X210450477Y-136207645D01*
X210450477Y-136207645D02*
X210498096Y-136350502D01*
X210498096Y-136350502D02*
X211069524Y-136921931D01*
X211069524Y-136921931D02*
X210450477Y-136921931D01*
X209498096Y-136921931D02*
X210069524Y-136921931D01*
X209783810Y-136921931D02*
X209783810Y-135921931D01*
X209783810Y-135921931D02*
X209879048Y-136064788D01*
X209879048Y-136064788D02*
X209974286Y-136160026D01*
X209974286Y-136160026D02*
X210069524Y-136207645D01*
X191961905Y-136967469D02*
X191914286Y-136919850D01*
X191914286Y-136919850D02*
X191819048Y-136872231D01*
X191819048Y-136872231D02*
X191580953Y-136872231D01*
X191580953Y-136872231D02*
X191485715Y-136919850D01*
X191485715Y-136919850D02*
X191438096Y-136967469D01*
X191438096Y-136967469D02*
X191390477Y-137062707D01*
X191390477Y-137062707D02*
X191390477Y-137157945D01*
X191390477Y-137157945D02*
X191438096Y-137300802D01*
X191438096Y-137300802D02*
X192009524Y-137872231D01*
X192009524Y-137872231D02*
X191390477Y-137872231D01*
X191009524Y-136967469D02*
X190961905Y-136919850D01*
X190961905Y-136919850D02*
X190866667Y-136872231D01*
X190866667Y-136872231D02*
X190628572Y-136872231D01*
X190628572Y-136872231D02*
X190533334Y-136919850D01*
X190533334Y-136919850D02*
X190485715Y-136967469D01*
X190485715Y-136967469D02*
X190438096Y-137062707D01*
X190438096Y-137062707D02*
X190438096Y-137157945D01*
X190438096Y-137157945D02*
X190485715Y-137300802D01*
X190485715Y-137300802D02*
X191057143Y-137872231D01*
X191057143Y-137872231D02*
X190438096Y-137872231D01*
X172841905Y-110407469D02*
X172794286Y-110359850D01*
X172794286Y-110359850D02*
X172699048Y-110312231D01*
X172699048Y-110312231D02*
X172460953Y-110312231D01*
X172460953Y-110312231D02*
X172365715Y-110359850D01*
X172365715Y-110359850D02*
X172318096Y-110407469D01*
X172318096Y-110407469D02*
X172270477Y-110502707D01*
X172270477Y-110502707D02*
X172270477Y-110597945D01*
X172270477Y-110597945D02*
X172318096Y-110740802D01*
X172318096Y-110740802D02*
X172889524Y-111312231D01*
X172889524Y-111312231D02*
X172270477Y-111312231D01*
X171937143Y-110312231D02*
X171318096Y-110312231D01*
X171318096Y-110312231D02*
X171651429Y-110693183D01*
X171651429Y-110693183D02*
X171508572Y-110693183D01*
X171508572Y-110693183D02*
X171413334Y-110740802D01*
X171413334Y-110740802D02*
X171365715Y-110788421D01*
X171365715Y-110788421D02*
X171318096Y-110883659D01*
X171318096Y-110883659D02*
X171318096Y-111121754D01*
X171318096Y-111121754D02*
X171365715Y-111216992D01*
X171365715Y-111216992D02*
X171413334Y-111264612D01*
X171413334Y-111264612D02*
X171508572Y-111312231D01*
X171508572Y-111312231D02*
X171794286Y-111312231D01*
X171794286Y-111312231D02*
X171889524Y-111264612D01*
X171889524Y-111264612D02*
X171937143Y-111216992D01*
X154009105Y-105544669D02*
X153961486Y-105497050D01*
X153961486Y-105497050D02*
X153866248Y-105449431D01*
X153866248Y-105449431D02*
X153628153Y-105449431D01*
X153628153Y-105449431D02*
X153532915Y-105497050D01*
X153532915Y-105497050D02*
X153485296Y-105544669D01*
X153485296Y-105544669D02*
X153437677Y-105639907D01*
X153437677Y-105639907D02*
X153437677Y-105735145D01*
X153437677Y-105735145D02*
X153485296Y-105878002D01*
X153485296Y-105878002D02*
X154056724Y-106449431D01*
X154056724Y-106449431D02*
X153437677Y-106449431D01*
X152580534Y-105782764D02*
X152580534Y-106449431D01*
X152818629Y-105401812D02*
X153056724Y-106116097D01*
X153056724Y-106116097D02*
X152437677Y-106116097D01*
X134801905Y-108307169D02*
X134754286Y-108259550D01*
X134754286Y-108259550D02*
X134659048Y-108211931D01*
X134659048Y-108211931D02*
X134420953Y-108211931D01*
X134420953Y-108211931D02*
X134325715Y-108259550D01*
X134325715Y-108259550D02*
X134278096Y-108307169D01*
X134278096Y-108307169D02*
X134230477Y-108402407D01*
X134230477Y-108402407D02*
X134230477Y-108497645D01*
X134230477Y-108497645D02*
X134278096Y-108640502D01*
X134278096Y-108640502D02*
X134849524Y-109211931D01*
X134849524Y-109211931D02*
X134230477Y-109211931D01*
X133325715Y-108211931D02*
X133801905Y-108211931D01*
X133801905Y-108211931D02*
X133849524Y-108688121D01*
X133849524Y-108688121D02*
X133801905Y-108640502D01*
X133801905Y-108640502D02*
X133706667Y-108592883D01*
X133706667Y-108592883D02*
X133468572Y-108592883D01*
X133468572Y-108592883D02*
X133373334Y-108640502D01*
X133373334Y-108640502D02*
X133325715Y-108688121D01*
X133325715Y-108688121D02*
X133278096Y-108783359D01*
X133278096Y-108783359D02*
X133278096Y-109021454D01*
X133278096Y-109021454D02*
X133325715Y-109116692D01*
X133325715Y-109116692D02*
X133373334Y-109164312D01*
X133373334Y-109164312D02*
X133468572Y-109211931D01*
X133468572Y-109211931D02*
X133706667Y-109211931D01*
X133706667Y-109211931D02*
X133801905Y-109164312D01*
X133801905Y-109164312D02*
X133849524Y-109116692D01*
X115941905Y-110937469D02*
X115894286Y-110889850D01*
X115894286Y-110889850D02*
X115799048Y-110842231D01*
X115799048Y-110842231D02*
X115560953Y-110842231D01*
X115560953Y-110842231D02*
X115465715Y-110889850D01*
X115465715Y-110889850D02*
X115418096Y-110937469D01*
X115418096Y-110937469D02*
X115370477Y-111032707D01*
X115370477Y-111032707D02*
X115370477Y-111127945D01*
X115370477Y-111127945D02*
X115418096Y-111270802D01*
X115418096Y-111270802D02*
X115989524Y-111842231D01*
X115989524Y-111842231D02*
X115370477Y-111842231D01*
X114513334Y-110842231D02*
X114703810Y-110842231D01*
X114703810Y-110842231D02*
X114799048Y-110889850D01*
X114799048Y-110889850D02*
X114846667Y-110937469D01*
X114846667Y-110937469D02*
X114941905Y-111080326D01*
X114941905Y-111080326D02*
X114989524Y-111270802D01*
X114989524Y-111270802D02*
X114989524Y-111651754D01*
X114989524Y-111651754D02*
X114941905Y-111746992D01*
X114941905Y-111746992D02*
X114894286Y-111794612D01*
X114894286Y-111794612D02*
X114799048Y-111842231D01*
X114799048Y-111842231D02*
X114608572Y-111842231D01*
X114608572Y-111842231D02*
X114513334Y-111794612D01*
X114513334Y-111794612D02*
X114465715Y-111746992D01*
X114465715Y-111746992D02*
X114418096Y-111651754D01*
X114418096Y-111651754D02*
X114418096Y-111413659D01*
X114418096Y-111413659D02*
X114465715Y-111318421D01*
X114465715Y-111318421D02*
X114513334Y-111270802D01*
X114513334Y-111270802D02*
X114608572Y-111223183D01*
X114608572Y-111223183D02*
X114799048Y-111223183D01*
X114799048Y-111223183D02*
X114894286Y-111270802D01*
X114894286Y-111270802D02*
X114941905Y-111318421D01*
X114941905Y-111318421D02*
X114989524Y-111413659D01*
X96841905Y-113917469D02*
X96794286Y-113869850D01*
X96794286Y-113869850D02*
X96699048Y-113822231D01*
X96699048Y-113822231D02*
X96460953Y-113822231D01*
X96460953Y-113822231D02*
X96365715Y-113869850D01*
X96365715Y-113869850D02*
X96318096Y-113917469D01*
X96318096Y-113917469D02*
X96270477Y-114012707D01*
X96270477Y-114012707D02*
X96270477Y-114107945D01*
X96270477Y-114107945D02*
X96318096Y-114250802D01*
X96318096Y-114250802D02*
X96889524Y-114822231D01*
X96889524Y-114822231D02*
X96270477Y-114822231D01*
X95937143Y-113822231D02*
X95270477Y-113822231D01*
X95270477Y-113822231D02*
X95699048Y-114822231D01*
X115690477Y-54391931D02*
X116261905Y-54391931D01*
X115976191Y-54391931D02*
X115976191Y-53391931D01*
X115976191Y-53391931D02*
X116071429Y-53534788D01*
X116071429Y-53534788D02*
X116166667Y-53630026D01*
X116166667Y-53630026D02*
X116261905Y-53677645D01*
X115071429Y-53391931D02*
X114976191Y-53391931D01*
X114976191Y-53391931D02*
X114880953Y-53439550D01*
X114880953Y-53439550D02*
X114833334Y-53487169D01*
X114833334Y-53487169D02*
X114785715Y-53582407D01*
X114785715Y-53582407D02*
X114738096Y-53772883D01*
X114738096Y-53772883D02*
X114738096Y-54010978D01*
X114738096Y-54010978D02*
X114785715Y-54201454D01*
X114785715Y-54201454D02*
X114833334Y-54296692D01*
X114833334Y-54296692D02*
X114880953Y-54344312D01*
X114880953Y-54344312D02*
X114976191Y-54391931D01*
X114976191Y-54391931D02*
X115071429Y-54391931D01*
X115071429Y-54391931D02*
X115166667Y-54344312D01*
X115166667Y-54344312D02*
X115214286Y-54296692D01*
X115214286Y-54296692D02*
X115261905Y-54201454D01*
X115261905Y-54201454D02*
X115309524Y-54010978D01*
X115309524Y-54010978D02*
X115309524Y-53772883D01*
X115309524Y-53772883D02*
X115261905Y-53582407D01*
X115261905Y-53582407D02*
X115214286Y-53487169D01*
X115214286Y-53487169D02*
X115166667Y-53439550D01*
X115166667Y-53439550D02*
X115071429Y-53391931D01*
X214229047Y-60847231D02*
X214705237Y-60847231D01*
X214705237Y-60847231D02*
X214705237Y-59847231D01*
X213895713Y-60323421D02*
X213562380Y-60323421D01*
X213419523Y-60847231D02*
X213895713Y-60847231D01*
X213895713Y-60847231D02*
X213895713Y-59847231D01*
X213895713Y-59847231D02*
X213419523Y-59847231D01*
X212990951Y-60847231D02*
X212990951Y-59847231D01*
X212990951Y-59847231D02*
X212752856Y-59847231D01*
X212752856Y-59847231D02*
X212609999Y-59894850D01*
X212609999Y-59894850D02*
X212514761Y-59990088D01*
X212514761Y-59990088D02*
X212467142Y-60085326D01*
X212467142Y-60085326D02*
X212419523Y-60275802D01*
X212419523Y-60275802D02*
X212419523Y-60418659D01*
X212419523Y-60418659D02*
X212467142Y-60609135D01*
X212467142Y-60609135D02*
X212514761Y-60704373D01*
X212514761Y-60704373D02*
X212609999Y-60799612D01*
X212609999Y-60799612D02*
X212752856Y-60847231D01*
X212752856Y-60847231D02*
X212990951Y-60847231D01*
X211562380Y-59847231D02*
X211752856Y-59847231D01*
X211752856Y-59847231D02*
X211848094Y-59894850D01*
X211848094Y-59894850D02*
X211895713Y-59942469D01*
X211895713Y-59942469D02*
X211990951Y-60085326D01*
X211990951Y-60085326D02*
X212038570Y-60275802D01*
X212038570Y-60275802D02*
X212038570Y-60656754D01*
X212038570Y-60656754D02*
X211990951Y-60751992D01*
X211990951Y-60751992D02*
X211943332Y-60799612D01*
X211943332Y-60799612D02*
X211848094Y-60847231D01*
X211848094Y-60847231D02*
X211657618Y-60847231D01*
X211657618Y-60847231D02*
X211562380Y-60799612D01*
X211562380Y-60799612D02*
X211514761Y-60751992D01*
X211514761Y-60751992D02*
X211467142Y-60656754D01*
X211467142Y-60656754D02*
X211467142Y-60418659D01*
X211467142Y-60418659D02*
X211514761Y-60323421D01*
X211514761Y-60323421D02*
X211562380Y-60275802D01*
X211562380Y-60275802D02*
X211657618Y-60228183D01*
X211657618Y-60228183D02*
X211848094Y-60228183D01*
X211848094Y-60228183D02*
X211943332Y-60275802D01*
X211943332Y-60275802D02*
X211990951Y-60323421D01*
X211990951Y-60323421D02*
X212038570Y-60418659D01*
D10*
X99285714Y-80231009D02*
X99142857Y-80278628D01*
X99142857Y-80278628D02*
X99095238Y-80326247D01*
X99095238Y-80326247D02*
X99047619Y-80421485D01*
X99047619Y-80421485D02*
X99047619Y-80564342D01*
X99047619Y-80564342D02*
X99095238Y-80659580D01*
X99095238Y-80659580D02*
X99142857Y-80707200D01*
X99142857Y-80707200D02*
X99238095Y-80754819D01*
X99238095Y-80754819D02*
X99619047Y-80754819D01*
X99619047Y-80754819D02*
X99619047Y-79754819D01*
X99619047Y-79754819D02*
X99285714Y-79754819D01*
X99285714Y-79754819D02*
X99190476Y-79802438D01*
X99190476Y-79802438D02*
X99142857Y-79850057D01*
X99142857Y-79850057D02*
X99095238Y-79945295D01*
X99095238Y-79945295D02*
X99095238Y-80040533D01*
X99095238Y-80040533D02*
X99142857Y-80135771D01*
X99142857Y-80135771D02*
X99190476Y-80183390D01*
X99190476Y-80183390D02*
X99285714Y-80231009D01*
X99285714Y-80231009D02*
X99619047Y-80231009D01*
X98761904Y-79754819D02*
X98190476Y-79754819D01*
X98476190Y-80754819D02*
X98476190Y-79754819D01*
X97333333Y-80754819D02*
X97904761Y-80754819D01*
X97619047Y-80754819D02*
X97619047Y-79754819D01*
X97619047Y-79754819D02*
X97714285Y-79897676D01*
X97714285Y-79897676D02*
X97809523Y-79992914D01*
X97809523Y-79992914D02*
X97904761Y-80040533D01*
X93529819Y-82916666D02*
X94244104Y-82916666D01*
X94244104Y-82916666D02*
X94386961Y-82869047D01*
X94386961Y-82869047D02*
X94482200Y-82773809D01*
X94482200Y-82773809D02*
X94529819Y-82630952D01*
X94529819Y-82630952D02*
X94529819Y-82535714D01*
X93529819Y-83297619D02*
X93529819Y-83916666D01*
X93529819Y-83916666D02*
X93910771Y-83583333D01*
X93910771Y-83583333D02*
X93910771Y-83726190D01*
X93910771Y-83726190D02*
X93958390Y-83821428D01*
X93958390Y-83821428D02*
X94006009Y-83869047D01*
X94006009Y-83869047D02*
X94101247Y-83916666D01*
X94101247Y-83916666D02*
X94339342Y-83916666D01*
X94339342Y-83916666D02*
X94434580Y-83869047D01*
X94434580Y-83869047D02*
X94482200Y-83821428D01*
X94482200Y-83821428D02*
X94529819Y-83726190D01*
X94529819Y-83726190D02*
X94529819Y-83440476D01*
X94529819Y-83440476D02*
X94482200Y-83345238D01*
X94482200Y-83345238D02*
X94434580Y-83297619D01*
D12*
G36*
X99838211Y-48584112D02*
G01*
X99853614Y-48594826D01*
X99892521Y-48621042D01*
X99928379Y-48646404D01*
X99953501Y-48669164D01*
X99961777Y-48685446D01*
X99959641Y-48698994D01*
X99948561Y-48708946D01*
X99926703Y-48707867D01*
X99892586Y-48695586D01*
X99844728Y-48671932D01*
X99838421Y-48668587D01*
X99800325Y-48649227D01*
X99775536Y-48638770D01*
X99761406Y-48636295D01*
X99755285Y-48640884D01*
X99754721Y-48642374D01*
X99751079Y-48655552D01*
X99751946Y-48668001D01*
X99759111Y-48681761D01*
X99774360Y-48698876D01*
X99799483Y-48721388D01*
X99836267Y-48751341D01*
X99886500Y-48790775D01*
X99895024Y-48797925D01*
X99909239Y-48813736D01*
X99911470Y-48823569D01*
X99910290Y-48824384D01*
X99897142Y-48822121D01*
X99878036Y-48810069D01*
X99872332Y-48805671D01*
X99846477Y-48788691D01*
X99816209Y-48771841D01*
X99786666Y-48757647D01*
X99762985Y-48748631D01*
X99750304Y-48747318D01*
X99749860Y-48747605D01*
X99746034Y-48759187D01*
X99757342Y-48775551D01*
X99781658Y-48793560D01*
X99797279Y-48804128D01*
X99825438Y-48825282D01*
X99860218Y-48852784D01*
X99897376Y-48883340D01*
X99897771Y-48883672D01*
X99936518Y-48917665D01*
X99960364Y-48941647D01*
X99970456Y-48955949D01*
X99967944Y-48960904D01*
X99953978Y-48956844D01*
X99929706Y-48944101D01*
X99896278Y-48923007D01*
X99854843Y-48893894D01*
X99806549Y-48857094D01*
X99774055Y-48832578D01*
X99747384Y-48815957D01*
X99733441Y-48812932D01*
X99731898Y-48823454D01*
X99742429Y-48847474D01*
X99747607Y-48853680D01*
X99767032Y-48870344D01*
X99797408Y-48893255D01*
X99835793Y-48920482D01*
X99879243Y-48950096D01*
X99924816Y-48980167D01*
X99969568Y-49008765D01*
X100010558Y-49033961D01*
X100044842Y-49053824D01*
X100069478Y-49066425D01*
X100081522Y-49069835D01*
X100089512Y-49068929D01*
X100095511Y-49079636D01*
X100093616Y-49086335D01*
X100078932Y-49097773D01*
X100055438Y-49103186D01*
X100030037Y-49100387D01*
X100020800Y-49095821D01*
X99998758Y-49079903D01*
X99974421Y-49058080D01*
X99957051Y-49042769D01*
X99924415Y-49017567D01*
X99884496Y-48989216D01*
X99842371Y-48961430D01*
X99808739Y-48939766D01*
X99767394Y-48912138D01*
X99731973Y-48887414D01*
X99707653Y-48869140D01*
X99692392Y-48857454D01*
X99669888Y-48842927D01*
X99655628Y-48837252D01*
X99652943Y-48838092D01*
X99655885Y-48847835D01*
X99672273Y-48867505D01*
X99700878Y-48895856D01*
X99740474Y-48931639D01*
X99789832Y-48973609D01*
X99816813Y-48996201D01*
X99848229Y-49023086D01*
X99872321Y-49044375D01*
X99885357Y-49056817D01*
X99892922Y-49064525D01*
X99917499Y-49086894D01*
X99951971Y-49116361D01*
X99992799Y-49149984D01*
X100036444Y-49184825D01*
X100079365Y-49217943D01*
X100106658Y-49237513D01*
X100144872Y-49259670D01*
X100171702Y-49267113D01*
X100178980Y-49266250D01*
X100205069Y-49256470D01*
X100243158Y-49235432D01*
X100294028Y-49202680D01*
X100358457Y-49157759D01*
X100374927Y-49155126D01*
X100403893Y-49166363D01*
X100422929Y-49174652D01*
X100467315Y-49179923D01*
X100515015Y-49166907D01*
X100566686Y-49135479D01*
X100608000Y-49106411D01*
X100651953Y-49080245D01*
X100689340Y-49063107D01*
X100716421Y-49056958D01*
X100717319Y-49056966D01*
X100747771Y-49063415D01*
X100779055Y-49079109D01*
X100804619Y-49099879D01*
X100817910Y-49121554D01*
X100824976Y-49144395D01*
X100837069Y-49173311D01*
X100840981Y-49179230D01*
X100860142Y-49199877D01*
X100891462Y-49228703D01*
X100932500Y-49263776D01*
X100980816Y-49303164D01*
X101033969Y-49344935D01*
X101089520Y-49387157D01*
X101145027Y-49427896D01*
X101198050Y-49465222D01*
X101246149Y-49497201D01*
X101269887Y-49513033D01*
X101307667Y-49539745D01*
X101350251Y-49571049D01*
X101394243Y-49604335D01*
X101436248Y-49636990D01*
X101472872Y-49666404D01*
X101500718Y-49689965D01*
X101516393Y-49705062D01*
X101519866Y-49709243D01*
X101524726Y-49716214D01*
X101528621Y-49724977D01*
X101531656Y-49737457D01*
X101533941Y-49755576D01*
X101535582Y-49781259D01*
X101536687Y-49816428D01*
X101537362Y-49863009D01*
X101537716Y-49922923D01*
X101537854Y-49998095D01*
X101537886Y-50090449D01*
X101537905Y-50117811D01*
X101538306Y-50217843D01*
X101539213Y-50301048D01*
X101540614Y-50366971D01*
X101542497Y-50415157D01*
X101544850Y-50445152D01*
X101547660Y-50456502D01*
X101550141Y-50457290D01*
X101566715Y-50453964D01*
X101589385Y-50442737D01*
X101606186Y-50433752D01*
X101636966Y-50424365D01*
X101661593Y-50425720D01*
X101675422Y-50438071D01*
X101675976Y-50440438D01*
X101677647Y-50459491D01*
X101679088Y-50493642D01*
X101680218Y-50539834D01*
X101680956Y-50595009D01*
X101681220Y-50656112D01*
X101681184Y-50711013D01*
X101680899Y-50764942D01*
X101680111Y-50804479D01*
X101678565Y-50832249D01*
X101676008Y-50850875D01*
X101672186Y-50862983D01*
X101666843Y-50871198D01*
X101659727Y-50878145D01*
X101646973Y-50888517D01*
X101613632Y-50912494D01*
X101567109Y-50943616D01*
X101509588Y-50980513D01*
X101443250Y-51021816D01*
X101370276Y-51066156D01*
X101292849Y-51112163D01*
X101213149Y-51158467D01*
X101204691Y-51163339D01*
X101163664Y-51187235D01*
X101116989Y-51214725D01*
X101073204Y-51240788D01*
X101059777Y-51248819D01*
X101018172Y-51273515D01*
X100978920Y-51296578D01*
X100949022Y-51313886D01*
X100948481Y-51314194D01*
X100917884Y-51332177D01*
X100875687Y-51357650D01*
X100826300Y-51387898D01*
X100774133Y-51420204D01*
X100723593Y-51451855D01*
X100679090Y-51480134D01*
X100655487Y-51494450D01*
X100618931Y-51515476D01*
X100575373Y-51539778D01*
X100529900Y-51564480D01*
X100487721Y-51587395D01*
X100444065Y-51611941D01*
X100397852Y-51638877D01*
X100346396Y-51669817D01*
X100287012Y-51706378D01*
X100217016Y-51750174D01*
X100133721Y-51802820D01*
X100091565Y-51829059D01*
X100033499Y-51864221D01*
X99973288Y-51899850D01*
X99918791Y-51931249D01*
X99861924Y-51963511D01*
X99801657Y-51998075D01*
X99754461Y-52025702D01*
X99718250Y-52047636D01*
X99690934Y-52065124D01*
X99670427Y-52079411D01*
X99653367Y-52091352D01*
X99622355Y-52111808D01*
X99589231Y-52132646D01*
X99581183Y-52137574D01*
X99544738Y-52159967D01*
X99501880Y-52186379D01*
X99460272Y-52212090D01*
X99423674Y-52234650D01*
X99360572Y-52273167D01*
X99298261Y-52310778D01*
X99240593Y-52345178D01*
X99191420Y-52374059D01*
X99154594Y-52395117D01*
X99138086Y-52404503D01*
X99098830Y-52427763D01*
X99063845Y-52449544D01*
X99056345Y-52454393D01*
X99027708Y-52472892D01*
X98988787Y-52498027D01*
X98943728Y-52527118D01*
X98896677Y-52557490D01*
X98875188Y-52571386D01*
X98831745Y-52599642D01*
X98794008Y-52624397D01*
X98765433Y-52643378D01*
X98749479Y-52654311D01*
X98726462Y-52670980D01*
X98754255Y-52694076D01*
X98754562Y-52694331D01*
X98782506Y-52715852D01*
X98810705Y-52735268D01*
X98820004Y-52741386D01*
X98846885Y-52760410D01*
X98880360Y-52785277D01*
X98917299Y-52813521D01*
X98954569Y-52842679D01*
X98989041Y-52870285D01*
X99017581Y-52893876D01*
X99037060Y-52910987D01*
X99044346Y-52919153D01*
X99042390Y-52921208D01*
X99029356Y-52917509D01*
X99007792Y-52906338D01*
X98982057Y-52890303D01*
X98956507Y-52872009D01*
X98935502Y-52854063D01*
X98932067Y-52850800D01*
X98902024Y-52826608D01*
X98870780Y-52806723D01*
X98864496Y-52803246D01*
X98832427Y-52782317D01*
X98802774Y-52758961D01*
X98797276Y-52754210D01*
X98765244Y-52729973D01*
X98733134Y-52709773D01*
X98675575Y-52678008D01*
X98627903Y-52650260D01*
X98590122Y-52626288D01*
X98558455Y-52603800D01*
X98540792Y-52591104D01*
X98521501Y-52579076D01*
X98512419Y-52576016D01*
X98511064Y-52581389D01*
X98517902Y-52593694D01*
X98535701Y-52612828D01*
X98565598Y-52639871D01*
X98608733Y-52675903D01*
X98666244Y-52722005D01*
X98690330Y-52741070D01*
X98747724Y-52786537D01*
X98807493Y-52833927D01*
X98863849Y-52878650D01*
X98911006Y-52916115D01*
X98915320Y-52919539D01*
X98963735Y-52957114D01*
X99014886Y-52995546D01*
X99062938Y-53030509D01*
X99102055Y-53057680D01*
X99122245Y-53071372D01*
X99160597Y-53098436D01*
X99193914Y-53123217D01*
X99216685Y-53141677D01*
X99217906Y-53142762D01*
X99266235Y-53179355D01*
X99308766Y-53198145D01*
X99346160Y-53199300D01*
X99379076Y-53182988D01*
X99384228Y-53178869D01*
X99437962Y-53139648D01*
X99506737Y-53094825D01*
X99588196Y-53045880D01*
X99679979Y-52994291D01*
X99710595Y-52977409D01*
X99762316Y-52948081D01*
X99809930Y-52920147D01*
X99849179Y-52896125D01*
X99875805Y-52878530D01*
X99881209Y-52874681D01*
X99935314Y-52837990D01*
X100001800Y-52795479D01*
X100076513Y-52749700D01*
X100155305Y-52703201D01*
X100234022Y-52658531D01*
X100240316Y-52655024D01*
X100286555Y-52628741D01*
X100343719Y-52595581D01*
X100407224Y-52558238D01*
X100472487Y-52519403D01*
X100534925Y-52481769D01*
X100535711Y-52481291D01*
X100609564Y-52436495D01*
X100670675Y-52399606D01*
X100722559Y-52368567D01*
X100768728Y-52341322D01*
X100812696Y-52315815D01*
X100857977Y-52289989D01*
X100908085Y-52261788D01*
X100966532Y-52229156D01*
X100976446Y-52223622D01*
X101030445Y-52193148D01*
X101085478Y-52161622D01*
X101135619Y-52132457D01*
X101174940Y-52109071D01*
X101186497Y-52102108D01*
X101235619Y-52073165D01*
X101287461Y-52043419D01*
X101332555Y-52018321D01*
X101344035Y-52012032D01*
X101384097Y-51989419D01*
X101420723Y-51967848D01*
X101447185Y-51951258D01*
X101468578Y-51937963D01*
X101503509Y-51917660D01*
X101545801Y-51893987D01*
X101590472Y-51869778D01*
X101630123Y-51848295D01*
X101677144Y-51821991D01*
X101718926Y-51797790D01*
X101749607Y-51779035D01*
X101793955Y-51751582D01*
X101827216Y-51734298D01*
X101852604Y-51726325D01*
X101873791Y-51726517D01*
X101894447Y-51733725D01*
X101914674Y-51745426D01*
X101944889Y-51766143D01*
X101976087Y-51790094D01*
X101997779Y-51807420D01*
X102054363Y-51850416D01*
X102124857Y-51901654D01*
X102207645Y-51959970D01*
X102301110Y-52024199D01*
X102302213Y-52024949D01*
X102348953Y-52057366D01*
X102396031Y-52091068D01*
X102438024Y-52122114D01*
X102469507Y-52146561D01*
X102491423Y-52164007D01*
X102531848Y-52195244D01*
X102577140Y-52229443D01*
X102620999Y-52261810D01*
X102651353Y-52283972D01*
X102696811Y-52317404D01*
X102739320Y-52348918D01*
X102772610Y-52373879D01*
X102777003Y-52377199D01*
X102816157Y-52406430D01*
X102860857Y-52439334D01*
X102902270Y-52469403D01*
X102906481Y-52472435D01*
X102950669Y-52504537D01*
X102999228Y-52540205D01*
X103042385Y-52572265D01*
X103081841Y-52600950D01*
X103143746Y-52643784D01*
X103211938Y-52689103D01*
X103281036Y-52733406D01*
X103345654Y-52773194D01*
X103400410Y-52804970D01*
X103421878Y-52817407D01*
X103463282Y-52846289D01*
X103487576Y-52871979D01*
X103494312Y-52893898D01*
X103483039Y-52911465D01*
X103478142Y-52914820D01*
X103465263Y-52918980D01*
X103448242Y-52915133D01*
X103420948Y-52902385D01*
X103416700Y-52900153D01*
X103385830Y-52881454D01*
X103348751Y-52856063D01*
X103312569Y-52828805D01*
X103297989Y-52817377D01*
X103255944Y-52785625D01*
X103208977Y-52751389D01*
X103164794Y-52720328D01*
X103146145Y-52707434D01*
X103100353Y-52675128D01*
X103055421Y-52642686D01*
X103018853Y-52615499D01*
X103010837Y-52609413D01*
X102962108Y-52573119D01*
X102909466Y-52534910D01*
X102855324Y-52496438D01*
X102802098Y-52459355D01*
X102752204Y-52425312D01*
X102708056Y-52395959D01*
X102672070Y-52372948D01*
X102646662Y-52357931D01*
X102634246Y-52352558D01*
X102629357Y-52353376D01*
X102617115Y-52365893D01*
X102606885Y-52395256D01*
X102598159Y-52423685D01*
X102583958Y-52447457D01*
X102564875Y-52455583D01*
X102538418Y-52450054D01*
X102536121Y-52449205D01*
X102515389Y-52443211D01*
X102504570Y-52443061D01*
X102501865Y-52447433D01*
X102506421Y-52461372D01*
X102525680Y-52476944D01*
X102556952Y-52491654D01*
X102590039Y-52504763D01*
X102612254Y-52516732D01*
X102621368Y-52527885D01*
X102620213Y-52540404D01*
X102609978Y-52549160D01*
X102583476Y-52550491D01*
X102542213Y-52541880D01*
X102486976Y-52523429D01*
X102473516Y-52518390D01*
X102445851Y-52509157D01*
X102425401Y-52506273D01*
X102404394Y-52509367D01*
X102375060Y-52518065D01*
X102351995Y-52526145D01*
X102327436Y-52537017D01*
X102315271Y-52545529D01*
X102316383Y-52555652D01*
X102331857Y-52575760D01*
X102362977Y-52605060D01*
X102410090Y-52643908D01*
X102446269Y-52672566D01*
X102448664Y-52777643D01*
X102449240Y-52804849D01*
X102449474Y-52842401D01*
X102448040Y-52867134D01*
X102444241Y-52883115D01*
X102437376Y-52894413D01*
X102426745Y-52905095D01*
X102420515Y-52910430D01*
X102393829Y-52930317D01*
X102355210Y-52956683D01*
X102308049Y-52987348D01*
X102255734Y-53020136D01*
X102201657Y-53052869D01*
X102149207Y-53083369D01*
X102139046Y-53089209D01*
X102096621Y-53114858D01*
X102055806Y-53141223D01*
X102024214Y-53163428D01*
X101997640Y-53182450D01*
X101956416Y-53209619D01*
X101916967Y-53233492D01*
X101913554Y-53235435D01*
X101851568Y-53271299D01*
X101789291Y-53308319D01*
X101729543Y-53344732D01*
X101675142Y-53378776D01*
X101628907Y-53408689D01*
X101593656Y-53432709D01*
X101572209Y-53449071D01*
X101564614Y-53455453D01*
X101530863Y-53480014D01*
X101497262Y-53500109D01*
X101489517Y-53504202D01*
X101454595Y-53524991D01*
X101423496Y-53546472D01*
X101405442Y-53559012D01*
X101372916Y-53579503D01*
X101332661Y-53603504D01*
X101289569Y-53628036D01*
X101258815Y-53645335D01*
X101200951Y-53678685D01*
X101141357Y-53713822D01*
X101088967Y-53745514D01*
X101050189Y-53769406D01*
X100971111Y-53818109D01*
X100905597Y-53858426D01*
X100851764Y-53891507D01*
X100807730Y-53918502D01*
X100771612Y-53940563D01*
X100741528Y-53958841D01*
X100715597Y-53974485D01*
X100691934Y-53988647D01*
X100668659Y-54002478D01*
X100656924Y-54009398D01*
X100608411Y-54037516D01*
X100557780Y-54066255D01*
X100514264Y-54090361D01*
X100501630Y-54097336D01*
X100468499Y-54116730D01*
X100442886Y-54133299D01*
X100429510Y-54144052D01*
X100423417Y-54150509D01*
X100406680Y-54157381D01*
X100392497Y-54145408D01*
X100381010Y-54114675D01*
X100376070Y-54097011D01*
X100365404Y-54073314D01*
X100350469Y-54061740D01*
X100328324Y-54061851D01*
X100296025Y-54073214D01*
X100250631Y-54095393D01*
X100231342Y-54105639D01*
X100192522Y-54127643D01*
X100159718Y-54147975D01*
X100138497Y-54163265D01*
X100129439Y-54171072D01*
X100117531Y-54182448D01*
X100119190Y-54185577D01*
X100133721Y-54183384D01*
X100157092Y-54178041D01*
X100186348Y-54169771D01*
X100202691Y-54166424D01*
X100228998Y-54167237D01*
X100249585Y-54174375D01*
X100257903Y-54186323D01*
X100257124Y-54190131D01*
X100256354Y-54193898D01*
X100241404Y-54212404D01*
X100214730Y-54228284D01*
X100181465Y-54238065D01*
X100167782Y-54240914D01*
X100135004Y-54255362D01*
X100101897Y-54283075D01*
X100074172Y-54309421D01*
X100049314Y-54328024D01*
X100026878Y-54337086D01*
X100001784Y-54339471D01*
X99978163Y-54335944D01*
X99959521Y-54320124D01*
X99950681Y-54289193D01*
X99949455Y-54279181D01*
X99999987Y-54279181D01*
X100000320Y-54287901D01*
X100004127Y-54298749D01*
X100013420Y-54296114D01*
X100029735Y-54279084D01*
X100054610Y-54246747D01*
X100065495Y-54231709D01*
X100083563Y-54204228D01*
X100089065Y-54190131D01*
X100082109Y-54188798D01*
X100062804Y-54199605D01*
X100033118Y-54222642D01*
X100008712Y-54251916D01*
X99999987Y-54279181D01*
X99949455Y-54279181D01*
X99947448Y-54262797D01*
X99899686Y-54287908D01*
X99879870Y-54298625D01*
X99855995Y-54312474D01*
X99843074Y-54321243D01*
X99841481Y-54332910D01*
X99853734Y-54350447D01*
X99877316Y-54370357D01*
X99909238Y-54389557D01*
X99920611Y-54395582D01*
X99955373Y-54415808D01*
X99988599Y-54437142D01*
X99989966Y-54438081D01*
X100014417Y-54457102D01*
X100025495Y-54472949D01*
X100026809Y-54490680D01*
X100025652Y-54499073D01*
X100022042Y-54511749D01*
X100015170Y-54518733D01*
X100003250Y-54519298D01*
X99984496Y-54512713D01*
X99957123Y-54498250D01*
X99919345Y-54475179D01*
X99869375Y-54442772D01*
X99805428Y-54400300D01*
X99787356Y-54386993D01*
X99757299Y-54360079D01*
X99735390Y-54334617D01*
X99728658Y-54324871D01*
X99715583Y-54309334D01*
X99704914Y-54306465D01*
X99691137Y-54313651D01*
X99683742Y-54319132D01*
X99668886Y-54340950D01*
X99672793Y-54365285D01*
X99695426Y-54391485D01*
X99732390Y-54428149D01*
X99775394Y-54484244D01*
X99812915Y-54548049D01*
X99827387Y-54581131D01*
X99830502Y-54605020D01*
X99820316Y-54620739D01*
X99796134Y-54631756D01*
X99789617Y-54634607D01*
X99767018Y-54647392D01*
X99734158Y-54667809D01*
X99694499Y-54693533D01*
X99651501Y-54722238D01*
X99608625Y-54751602D01*
X99569331Y-54779298D01*
X99537080Y-54803001D01*
X99515333Y-54820388D01*
X99508711Y-54825753D01*
X99476217Y-54845853D01*
X99441764Y-54860378D01*
X99424255Y-54866991D01*
X99390007Y-54883026D01*
X99349095Y-54904532D01*
X99307001Y-54928727D01*
X99279794Y-54945043D01*
X99233376Y-54972608D01*
X99189888Y-54998141D01*
X99156027Y-55017696D01*
X99138265Y-55027845D01*
X99073825Y-55065891D01*
X99021566Y-55099365D01*
X98977389Y-55131177D01*
X98937193Y-55164232D01*
X98896880Y-55201436D01*
X98872919Y-55224028D01*
X98838739Y-55253364D01*
X98813822Y-55269942D01*
X98796376Y-55275077D01*
X98794789Y-55275052D01*
X98785840Y-55274259D01*
X98776075Y-55271360D01*
X98763462Y-55264973D01*
X98745970Y-55253715D01*
X98721567Y-55236203D01*
X98688221Y-55211056D01*
X98643900Y-55176891D01*
X98586572Y-55132325D01*
X98572757Y-55121599D01*
X98525639Y-55085424D01*
X98479472Y-55050516D01*
X98438938Y-55020398D01*
X98408721Y-54998591D01*
X98396901Y-54990325D01*
X98349840Y-54957785D01*
X98299510Y-54923467D01*
X98248627Y-54889170D01*
X98199906Y-54856698D01*
X98156061Y-54827852D01*
X98119808Y-54804434D01*
X98093861Y-54788244D01*
X98080937Y-54781086D01*
X98070450Y-54775309D01*
X98048205Y-54759687D01*
X98022012Y-54738934D01*
X98002009Y-54723018D01*
X97980774Y-54708188D01*
X97968752Y-54702464D01*
X97960561Y-54699210D01*
X97939225Y-54686183D01*
X97909096Y-54665531D01*
X97873615Y-54639767D01*
X97836226Y-54611405D01*
X97800369Y-54582959D01*
X97769486Y-54556943D01*
X97755350Y-54545103D01*
X97719879Y-54517806D01*
X97677897Y-54487621D01*
X97635752Y-54459190D01*
X97610905Y-54442732D01*
X97572535Y-54416046D01*
X97540091Y-54392006D01*
X97518716Y-54374342D01*
X97503938Y-54361475D01*
X97487582Y-54352550D01*
X97476612Y-54356279D01*
X97475317Y-54357705D01*
X97472951Y-54373505D01*
X97487321Y-54392098D01*
X97516912Y-54411407D01*
X97538153Y-54429817D01*
X97549508Y-54460927D01*
X97551398Y-54470261D01*
X97561696Y-54500909D01*
X97576459Y-54515212D01*
X97597593Y-54515325D01*
X97612683Y-54514323D01*
X97626077Y-54520770D01*
X97627991Y-54534105D01*
X97622008Y-54556941D01*
X97610217Y-54579001D01*
X97596184Y-54591810D01*
X97587258Y-54590804D01*
X97565479Y-54582425D01*
X97536724Y-54568515D01*
X97505869Y-54551756D01*
X97477793Y-54534828D01*
X97457370Y-54520410D01*
X97449479Y-54511184D01*
X97447670Y-54507899D01*
X97434366Y-54495729D01*
X97412375Y-54479847D01*
X97406108Y-54475576D01*
X97378099Y-54455059D01*
X97343453Y-54428235D01*
X97308234Y-54399770D01*
X97296562Y-54390225D01*
X97262386Y-54363492D01*
X97231689Y-54341072D01*
X97209972Y-54327038D01*
X97202691Y-54322996D01*
X97187276Y-54312747D01*
X97186093Y-54304482D01*
X97197096Y-54292752D01*
X97207850Y-54284865D01*
X97232780Y-54267923D01*
X97269668Y-54243392D01*
X97316406Y-54212633D01*
X97370885Y-54177010D01*
X97430998Y-54137886D01*
X97494634Y-54096622D01*
X97559687Y-54054582D01*
X97624046Y-54013128D01*
X97685604Y-53973623D01*
X97742251Y-53937429D01*
X97791880Y-53905909D01*
X97832382Y-53880426D01*
X97861647Y-53862342D01*
X97877568Y-53853019D01*
X97884555Y-53849095D01*
X97893676Y-53839188D01*
X97887696Y-53826972D01*
X97887141Y-53826296D01*
X97880531Y-53811219D01*
X97887916Y-53792994D01*
X97889519Y-53790367D01*
X97895242Y-53774107D01*
X97887341Y-53761367D01*
X97885562Y-53759895D01*
X97870754Y-53748425D01*
X97842133Y-53726599D01*
X97800766Y-53695222D01*
X97747720Y-53655098D01*
X97684063Y-53607032D01*
X97610861Y-53551829D01*
X97529181Y-53490294D01*
X97440090Y-53423232D01*
X97344656Y-53351448D01*
X97243945Y-53275746D01*
X97139024Y-53196931D01*
X97122177Y-53184280D01*
X96994317Y-53088253D01*
X96855858Y-52984249D01*
X96709675Y-52874431D01*
X96558645Y-52760958D01*
X96405641Y-52645991D01*
X96253539Y-52531690D01*
X96105216Y-52420216D01*
X95963545Y-52313730D01*
X95831403Y-52214393D01*
X95711664Y-52124364D01*
X95019844Y-51604146D01*
X94993480Y-51635726D01*
X94967116Y-51667305D01*
X94943522Y-51649326D01*
X94938431Y-51645385D01*
X94917406Y-51628779D01*
X94886249Y-51603935D01*
X94848265Y-51573492D01*
X94806761Y-51540092D01*
X94791959Y-51528171D01*
X94748390Y-51493224D01*
X94707648Y-51460740D01*
X94673740Y-51433906D01*
X94650671Y-51415910D01*
X94649251Y-51414815D01*
X94624562Y-51394874D01*
X94590334Y-51366141D01*
X94550899Y-51332294D01*
X94510591Y-51297011D01*
X94493693Y-51282090D01*
X94430547Y-51226864D01*
X94368362Y-51173248D01*
X94309353Y-51123096D01*
X94255730Y-51078263D01*
X94209709Y-51040604D01*
X94173500Y-51011973D01*
X94149318Y-50994225D01*
X94126845Y-50977299D01*
X94094778Y-50949623D01*
X94064316Y-50920194D01*
X94063414Y-50919262D01*
X94038605Y-50895380D01*
X94017796Y-50878394D01*
X94005409Y-50871927D01*
X94000884Y-50871434D01*
X93989895Y-50864206D01*
X93984297Y-50858051D01*
X93966435Y-50843552D01*
X93941190Y-50825437D01*
X93922753Y-50811912D01*
X93897064Y-50789838D01*
X93880805Y-50771701D01*
X93867203Y-50755822D01*
X93842715Y-50732713D01*
X93813598Y-50708633D01*
X93788536Y-50688161D01*
X93760501Y-50660682D01*
X93746201Y-50639402D01*
X93747019Y-50626035D01*
X93747524Y-50625768D01*
X93758193Y-50630592D01*
X93778260Y-50645428D01*
X93803848Y-50667451D01*
X93846747Y-50705824D01*
X93893206Y-50745959D01*
X93937852Y-50783239D01*
X93977616Y-50815151D01*
X94009431Y-50839183D01*
X94030227Y-50852822D01*
X94036448Y-50856424D01*
X94060611Y-50872340D01*
X94092525Y-50895002D01*
X94126984Y-50920752D01*
X94136013Y-50927609D01*
X94176199Y-50956896D01*
X94216500Y-50984661D01*
X94249404Y-51005693D01*
X94301633Y-51037336D01*
X94347726Y-51066706D01*
X94385715Y-51092950D01*
X94420220Y-51119131D01*
X94435084Y-51130504D01*
X94468279Y-51154696D01*
X94508200Y-51182822D01*
X94549178Y-51210849D01*
X94557926Y-51216739D01*
X94601631Y-51246339D01*
X94653823Y-51281888D01*
X94708699Y-51319427D01*
X94760460Y-51355000D01*
X94820086Y-51395684D01*
X94889054Y-51441915D01*
X94960091Y-51488801D01*
X95030648Y-51534709D01*
X95098178Y-51578006D01*
X95160129Y-51617057D01*
X95213954Y-51650230D01*
X95257103Y-51675892D01*
X95287028Y-51692409D01*
X95320151Y-51707217D01*
X95351203Y-51717549D01*
X95375784Y-51722330D01*
X95390222Y-51720852D01*
X95390839Y-51712407D01*
X95387316Y-51708668D01*
X95370014Y-51696523D01*
X95344901Y-51682449D01*
X95329815Y-51674252D01*
X95292371Y-51651800D01*
X95243379Y-51620684D01*
X95185300Y-51582599D01*
X95120595Y-51539242D01*
X95051724Y-51492306D01*
X94981149Y-51443487D01*
X94911329Y-51394479D01*
X94844725Y-51346979D01*
X94783798Y-51302682D01*
X94731008Y-51263281D01*
X94688817Y-51230473D01*
X94688503Y-51230222D01*
X94649004Y-51200150D01*
X94605145Y-51169161D01*
X94566362Y-51143927D01*
X94533327Y-51122591D01*
X94495734Y-51095916D01*
X94466061Y-51072386D01*
X94453255Y-51061395D01*
X94439862Y-51050472D01*
X94424163Y-51038454D01*
X94404217Y-51023984D01*
X94378083Y-51005703D01*
X94343819Y-50982253D01*
X94299483Y-50952278D01*
X94243136Y-50914419D01*
X94172834Y-50867319D01*
X94145604Y-50848968D01*
X94102502Y-50819417D01*
X94065650Y-50793537D01*
X94038282Y-50773611D01*
X94023628Y-50761923D01*
X94020365Y-50758858D01*
X93998179Y-50738308D01*
X93973628Y-50715889D01*
X93966519Y-50709201D01*
X93950230Y-50691387D01*
X93943725Y-50680068D01*
X93948435Y-50671519D01*
X93964544Y-50673879D01*
X93992655Y-50688640D01*
X94033335Y-50716105D01*
X94087152Y-50756578D01*
X94098251Y-50765061D01*
X94134459Y-50791614D01*
X94179467Y-50823488D01*
X94230561Y-50858870D01*
X94285028Y-50895949D01*
X94340151Y-50932913D01*
X94393218Y-50967950D01*
X94441513Y-50999248D01*
X94482321Y-51024995D01*
X94512929Y-51043379D01*
X94530621Y-51052589D01*
X94531935Y-51053074D01*
X94536733Y-51052000D01*
X94527461Y-51041041D01*
X94505417Y-51021364D01*
X94471898Y-50994136D01*
X94428203Y-50960524D01*
X94395545Y-50935945D01*
X94298889Y-50863458D01*
X94216222Y-50801914D01*
X94146709Y-50750712D01*
X94089517Y-50709251D01*
X94043808Y-50676931D01*
X94008750Y-50653151D01*
X93983507Y-50637310D01*
X93967243Y-50628806D01*
X93961361Y-50626213D01*
X93930449Y-50609185D01*
X93905515Y-50590708D01*
X93890306Y-50578824D01*
X93860548Y-50559976D01*
X93827094Y-50542092D01*
X93819860Y-50538531D01*
X93779201Y-50515224D01*
X93751387Y-50493120D01*
X93738154Y-50473896D01*
X93741242Y-50459231D01*
X93749344Y-50454757D01*
X93765922Y-50457238D01*
X93793177Y-50470329D01*
X93805582Y-50477299D01*
X93831403Y-50492804D01*
X93848200Y-50504264D01*
X93854562Y-50508806D01*
X93876214Y-50522702D01*
X93907487Y-50541842D01*
X93943968Y-50563496D01*
X93999673Y-50596688D01*
X94074246Y-50642961D01*
X94143789Y-50688145D01*
X94204337Y-50729647D01*
X94251926Y-50764875D01*
X94270969Y-50779623D01*
X94296489Y-50798746D01*
X94326135Y-50820193D01*
X94362262Y-50845617D01*
X94407224Y-50876672D01*
X94463377Y-50915012D01*
X94533076Y-50962289D01*
X94554610Y-50976962D01*
X94596994Y-51006297D01*
X94636174Y-51033936D01*
X94665804Y-51055426D01*
X94683715Y-51068330D01*
X94713463Y-51086465D01*
X94730895Y-51091051D01*
X94736579Y-51082303D01*
X94736159Y-51080432D01*
X94728699Y-51070771D01*
X94710875Y-51054725D01*
X94681331Y-51031199D01*
X94638712Y-50999101D01*
X94581662Y-50957336D01*
X94570175Y-50948951D01*
X94538305Y-50925476D01*
X94495826Y-50894014D01*
X94445803Y-50856840D01*
X94391298Y-50816229D01*
X94335376Y-50774455D01*
X94302960Y-50750291D01*
X94249500Y-50710791D01*
X94200216Y-50674794D01*
X94157876Y-50644304D01*
X94125248Y-50621321D01*
X94105099Y-50607850D01*
X94071612Y-50586429D01*
X94026268Y-50554719D01*
X93992139Y-50527189D01*
X93971119Y-50505418D01*
X93965100Y-50490987D01*
X93967578Y-50484708D01*
X93982145Y-50478806D01*
X94007905Y-50487183D01*
X94044014Y-50509639D01*
X94057688Y-50519133D01*
X94093500Y-50542374D01*
X94128785Y-50563601D01*
X94144231Y-50572702D01*
X94181974Y-50596624D01*
X94215061Y-50619520D01*
X94217469Y-50621297D01*
X94255403Y-50648351D01*
X94297529Y-50676976D01*
X94340996Y-50705405D01*
X94382953Y-50731872D01*
X94420550Y-50754612D01*
X94450934Y-50771858D01*
X94471255Y-50781844D01*
X94478663Y-50782805D01*
X94474496Y-50772701D01*
X94457726Y-50752184D01*
X94431374Y-50726698D01*
X94398967Y-50699587D01*
X94364033Y-50674191D01*
X94361697Y-50672625D01*
X94335751Y-50655006D01*
X94299239Y-50629960D01*
X94256681Y-50600596D01*
X94212595Y-50570023D01*
X94206190Y-50565574D01*
X94162568Y-50535508D01*
X94121512Y-50507579D01*
X94087381Y-50484734D01*
X94064531Y-50469917D01*
X94053854Y-50462862D01*
X94020181Y-50437211D01*
X93990054Y-50410214D01*
X93976812Y-50397870D01*
X93955263Y-50381578D01*
X93940460Y-50375198D01*
X93939172Y-50375059D01*
X93923569Y-50367438D01*
X93899340Y-50350492D01*
X93871151Y-50327436D01*
X93866364Y-50323277D01*
X93839647Y-50301154D01*
X93818705Y-50285569D01*
X93807724Y-50279674D01*
X93802462Y-50278244D01*
X93784482Y-50267224D01*
X93761556Y-50249086D01*
X93738819Y-50228367D01*
X93721410Y-50209602D01*
X93714466Y-50197327D01*
X93714840Y-50193022D01*
X93723863Y-50184588D01*
X93745050Y-50190253D01*
X93778565Y-50210088D01*
X93824574Y-50244162D01*
X93841744Y-50257511D01*
X93879204Y-50285778D01*
X93919977Y-50315683D01*
X93960962Y-50345044D01*
X93999059Y-50371680D01*
X94031167Y-50393407D01*
X94054186Y-50408044D01*
X94065016Y-50413408D01*
X94067605Y-50414542D01*
X94082653Y-50424259D01*
X94107462Y-50441771D01*
X94138286Y-50464468D01*
X94141104Y-50466564D01*
X94185326Y-50496897D01*
X94235493Y-50527778D01*
X94281283Y-50552828D01*
X94284597Y-50554498D01*
X94329602Y-50579981D01*
X94376178Y-50610457D01*
X94414748Y-50639691D01*
X94430153Y-50652464D01*
X94457318Y-50672635D01*
X94474934Y-50681046D01*
X94485557Y-50679119D01*
X94496335Y-50665098D01*
X94496795Y-50639954D01*
X94479801Y-50608299D01*
X94445229Y-50569798D01*
X94440469Y-50565140D01*
X94416221Y-50539778D01*
X94399147Y-50519174D01*
X94392691Y-50507418D01*
X94390924Y-50501819D01*
X94380613Y-50482095D01*
X94363143Y-50453088D01*
X94340881Y-50418845D01*
X94334559Y-50409319D01*
X94304576Y-50361707D01*
X94274360Y-50310533D01*
X94249590Y-50265345D01*
X94231656Y-50229804D01*
X94219777Y-50201769D01*
X94213802Y-50177220D01*
X94212099Y-50149272D01*
X94213040Y-50111042D01*
X94215970Y-50033159D01*
X94156267Y-49970970D01*
X94120567Y-49930130D01*
X94100705Y-49898249D01*
X94097275Y-49875914D01*
X94110251Y-49863066D01*
X94110769Y-49862906D01*
X94125353Y-49866496D01*
X94149041Y-49879094D01*
X94176933Y-49897285D01*
X94204130Y-49917656D01*
X94225734Y-49936793D01*
X94236845Y-49951281D01*
X94237313Y-49952276D01*
X94248972Y-49964760D01*
X94271402Y-49982689D01*
X94300282Y-50003219D01*
X94331287Y-50023508D01*
X94360093Y-50040713D01*
X94382377Y-50051990D01*
X94393815Y-50054496D01*
X94400523Y-50047854D01*
X94399061Y-50038014D01*
X94386077Y-50024167D01*
X94359850Y-50004546D01*
X94318659Y-49977385D01*
X94282599Y-49953392D01*
X94236767Y-49920630D01*
X94193340Y-49887375D01*
X94155725Y-49856347D01*
X94127326Y-49830270D01*
X94111551Y-49811865D01*
X94108585Y-49807531D01*
X94090781Y-49786578D01*
X94062978Y-49757412D01*
X94028576Y-49723291D01*
X93990975Y-49687473D01*
X93953578Y-49653219D01*
X93919784Y-49623786D01*
X93892995Y-49602434D01*
X93878590Y-49591615D01*
X93845710Y-49563311D01*
X93830099Y-49542467D01*
X93831597Y-49528896D01*
X93832414Y-49528642D01*
X93843978Y-49534207D01*
X93865293Y-49549086D01*
X93892480Y-49570620D01*
X93924491Y-49596409D01*
X93968302Y-49630095D01*
X94008445Y-49659478D01*
X94009590Y-49660286D01*
X94043521Y-49684279D01*
X94075311Y-49706861D01*
X94098218Y-49723243D01*
X94108248Y-49729770D01*
X94137116Y-49741937D01*
X94162158Y-49744022D01*
X94177760Y-49735183D01*
X94186755Y-49729153D01*
X94206981Y-49725631D01*
X94213798Y-49725423D01*
X94227053Y-49721489D01*
X94226476Y-49711403D01*
X94211401Y-49693650D01*
X94181165Y-49666711D01*
X94170538Y-49657602D01*
X94137293Y-49627987D01*
X94099319Y-49593017D01*
X94062919Y-49558463D01*
X94047355Y-49543490D01*
X94011935Y-49509945D01*
X93979125Y-49479501D01*
X93954437Y-49457299D01*
X93939020Y-49442979D01*
X93921775Y-49423935D01*
X93915067Y-49411925D01*
X93919827Y-49402325D01*
X93937259Y-49403617D01*
X93967720Y-49418220D01*
X94011463Y-49446221D01*
X94058269Y-49478217D01*
X94148838Y-49538623D01*
X94239197Y-49596673D01*
X94247845Y-49602213D01*
X94287232Y-49628687D01*
X94331455Y-49659856D01*
X94372481Y-49690089D01*
X94405663Y-49714907D01*
X94451963Y-49748895D01*
X94502015Y-49785134D01*
X94549536Y-49819047D01*
X94592393Y-49849734D01*
X94641119Y-49885359D01*
X94686149Y-49918971D01*
X94721481Y-49946134D01*
X94742681Y-49962319D01*
X94782501Y-49991432D01*
X94830903Y-50025822D01*
X94883620Y-50062468D01*
X94936390Y-50098351D01*
X94974738Y-50124343D01*
X95027893Y-50161082D01*
X95077886Y-50196378D01*
X95120450Y-50227213D01*
X95151320Y-50250566D01*
X95159276Y-50256816D01*
X95209271Y-50295229D01*
X95259662Y-50332641D01*
X95307871Y-50367262D01*
X95351319Y-50397305D01*
X95387428Y-50420979D01*
X95413618Y-50436496D01*
X95427312Y-50442066D01*
X95429892Y-50442013D01*
X95445211Y-50436490D01*
X95444039Y-50422781D01*
X95426405Y-50402156D01*
X95414501Y-50392114D01*
X95384821Y-50369205D01*
X95342887Y-50338242D01*
X95290880Y-50300757D01*
X95230980Y-50258283D01*
X95165369Y-50212353D01*
X95096226Y-50164499D01*
X95025733Y-50116254D01*
X94956071Y-50069151D01*
X94889419Y-50024722D01*
X94824794Y-49981537D01*
X94687671Y-49886540D01*
X94562348Y-49794910D01*
X94451705Y-49708726D01*
X94431149Y-49692369D01*
X94389452Y-49660445D01*
X94349593Y-49631329D01*
X94317970Y-49609757D01*
X94302203Y-49598911D01*
X94268625Y-49570637D01*
X94232076Y-49532636D01*
X94190428Y-49482597D01*
X94141553Y-49418210D01*
X94134308Y-49409022D01*
X94113789Y-49388150D01*
X94096571Y-49376968D01*
X94089894Y-49373892D01*
X94079236Y-49361822D01*
X94078589Y-49349304D01*
X94089480Y-49343532D01*
X94103109Y-49347909D01*
X94128951Y-49362072D01*
X94161840Y-49383349D01*
X94197734Y-49408968D01*
X94232592Y-49436157D01*
X94262374Y-49462144D01*
X94286245Y-49483908D01*
X94305323Y-49499811D01*
X94314885Y-49505861D01*
X94315882Y-49505704D01*
X94329142Y-49499421D01*
X94349705Y-49486819D01*
X94352207Y-49485200D01*
X94375816Y-49472867D01*
X94394087Y-49467777D01*
X94399944Y-49468603D01*
X94423397Y-49476329D01*
X94456799Y-49490373D01*
X94495511Y-49508508D01*
X94534893Y-49528508D01*
X94570307Y-49548148D01*
X94597114Y-49565200D01*
X94633850Y-49585278D01*
X94674095Y-49591896D01*
X94692866Y-49593331D01*
X94728097Y-49603821D01*
X94770575Y-49626231D01*
X94799850Y-49643687D01*
X94838439Y-49666123D01*
X94870314Y-49684065D01*
X94872916Y-49685498D01*
X94903735Y-49703282D01*
X94942042Y-49726382D01*
X94980167Y-49750181D01*
X95020846Y-49775837D01*
X95080936Y-49812799D01*
X95137486Y-49846540D01*
X95187386Y-49875247D01*
X95227528Y-49897106D01*
X95254800Y-49910306D01*
X95262477Y-49913842D01*
X95282567Y-49927177D01*
X95290622Y-49939532D01*
X95288166Y-49949542D01*
X95271457Y-49966707D01*
X95243068Y-49978906D01*
X95207868Y-49983547D01*
X95203871Y-49983499D01*
X95181637Y-49980792D01*
X95158330Y-49972433D01*
X95129326Y-49956337D01*
X95090002Y-49930421D01*
X95071563Y-49918051D01*
X95033650Y-49894783D01*
X95008329Y-49882549D01*
X94996315Y-49881179D01*
X94998322Y-49890504D01*
X95015063Y-49910355D01*
X95047253Y-49940561D01*
X95059327Y-49951081D01*
X95091065Y-49977823D01*
X95118356Y-49999613D01*
X95136336Y-50012522D01*
X95138020Y-50013571D01*
X95152160Y-50026043D01*
X95158936Y-50044167D01*
X95160999Y-50074613D01*
X95165432Y-50108892D01*
X95183098Y-50149158D01*
X95215874Y-50188438D01*
X95265519Y-50229341D01*
X95270279Y-50232824D01*
X95298927Y-50254332D01*
X95337096Y-50283572D01*
X95380376Y-50317149D01*
X95424357Y-50351665D01*
X95429015Y-50355340D01*
X95476946Y-50392639D01*
X95526963Y-50430801D01*
X95573410Y-50465545D01*
X95610630Y-50492592D01*
X95619508Y-50498926D01*
X95666128Y-50533105D01*
X95715632Y-50570574D01*
X95758693Y-50604297D01*
X95770452Y-50613658D01*
X95810721Y-50644756D01*
X95850546Y-50674316D01*
X95882795Y-50697011D01*
X95909764Y-50715796D01*
X95950674Y-50745962D01*
X95987589Y-50774808D01*
X95988240Y-50775337D01*
X96023765Y-50802567D01*
X96066405Y-50832957D01*
X96107075Y-50860028D01*
X96111898Y-50863111D01*
X96148799Y-50888097D01*
X96183004Y-50913349D01*
X96207659Y-50933837D01*
X96214277Y-50939827D01*
X96241511Y-50962812D01*
X96276292Y-50990617D01*
X96312736Y-51018501D01*
X96321710Y-51025197D01*
X96363120Y-51056109D01*
X96404829Y-51087266D01*
X96439030Y-51112835D01*
X96465753Y-51132594D01*
X96505141Y-51161337D01*
X96549709Y-51193580D01*
X96594009Y-51225368D01*
X96638398Y-51257127D01*
X96706641Y-51306302D01*
X96769991Y-51352507D01*
X96835120Y-51400624D01*
X96908701Y-51455533D01*
X96941899Y-51480184D01*
X96989722Y-51515145D01*
X97035412Y-51548005D01*
X97072432Y-51574033D01*
X97091610Y-51587498D01*
X97130642Y-51615620D01*
X97177726Y-51650137D01*
X97228568Y-51687892D01*
X97278873Y-51725731D01*
X97317297Y-51754524D01*
X97361309Y-51786713D01*
X97399597Y-51813869D01*
X97429029Y-51833777D01*
X97446471Y-51844223D01*
X97459019Y-51849794D01*
X97470815Y-51852112D01*
X97484331Y-51849298D01*
X97503112Y-51839988D01*
X97530704Y-51822817D01*
X97570653Y-51796420D01*
X97576843Y-51792314D01*
X97630503Y-51757653D01*
X97680531Y-51726896D01*
X97724492Y-51701409D01*
X97759951Y-51682558D01*
X97784475Y-51671708D01*
X97795628Y-51670226D01*
X97797981Y-51669530D01*
X97814007Y-51660830D01*
X97843847Y-51643113D01*
X97886009Y-51617310D01*
X97939000Y-51584350D01*
X98001329Y-51545166D01*
X98071504Y-51500687D01*
X98148034Y-51451845D01*
X98229425Y-51399570D01*
X98264598Y-51376910D01*
X98383450Y-51300316D01*
X98487455Y-51233241D01*
X98577578Y-51175053D01*
X98654781Y-51125119D01*
X98720029Y-51082804D01*
X98774287Y-51047476D01*
X98818516Y-51018502D01*
X98853683Y-50995248D01*
X98880750Y-50977080D01*
X98900681Y-50963367D01*
X98914441Y-50953473D01*
X98922992Y-50946767D01*
X98927300Y-50942614D01*
X98928327Y-50940381D01*
X98928947Y-50933801D01*
X98934762Y-50916337D01*
X98937561Y-50905431D01*
X98932551Y-50892455D01*
X98920264Y-50883905D01*
X98893827Y-50864659D01*
X98854650Y-50835736D01*
X98803811Y-50797950D01*
X98742387Y-50752115D01*
X98671455Y-50699043D01*
X98592094Y-50639549D01*
X98505380Y-50574447D01*
X98412392Y-50504549D01*
X98314206Y-50430670D01*
X98211899Y-50353622D01*
X98106550Y-50274220D01*
X97999236Y-50193276D01*
X97891035Y-50111606D01*
X97783023Y-50030021D01*
X97676278Y-49949336D01*
X97571878Y-49870365D01*
X97470900Y-49793920D01*
X97374422Y-49720816D01*
X97283520Y-49651866D01*
X97199274Y-49587883D01*
X97122759Y-49529681D01*
X97055053Y-49478074D01*
X96997234Y-49433875D01*
X96950380Y-49397898D01*
X96915567Y-49370956D01*
X96893874Y-49353863D01*
X96886377Y-49347433D01*
X96887504Y-49344432D01*
X96900879Y-49334766D01*
X96924598Y-49325405D01*
X96933866Y-49322332D01*
X96956195Y-49312012D01*
X96966787Y-49302400D01*
X96970938Y-49286566D01*
X96976573Y-49262336D01*
X96984663Y-49243105D01*
X97008266Y-49211662D01*
X97043159Y-49177541D01*
X97085904Y-49143993D01*
X97133062Y-49114273D01*
X97170050Y-49092982D01*
X97215597Y-49065444D01*
X97256956Y-49039248D01*
X97262079Y-49035936D01*
X97297297Y-49014277D01*
X97343040Y-48987415D01*
X97393959Y-48958449D01*
X97444703Y-48930480D01*
X97453218Y-48925858D01*
X97505115Y-48897110D01*
X97556836Y-48867611D01*
X97602805Y-48840579D01*
X97637445Y-48819232D01*
X97768820Y-48735548D01*
X97930010Y-48634828D01*
X98012991Y-48584112D01*
X99789832Y-48584112D01*
X99794609Y-48588888D01*
X99799385Y-48584112D01*
X99794609Y-48579335D01*
X99789832Y-48584112D01*
X98012991Y-48584112D01*
X98084718Y-48540274D01*
X98131993Y-48511450D01*
X98185395Y-48478200D01*
X98246244Y-48439619D01*
X98257034Y-48432690D01*
X99534615Y-48432690D01*
X99539516Y-48439019D01*
X99552829Y-48449147D01*
X99576611Y-48464469D01*
X99612920Y-48486383D01*
X99663813Y-48516286D01*
X99671861Y-48520976D01*
X99711393Y-48543810D01*
X99744072Y-48562347D01*
X99766693Y-48574788D01*
X99776055Y-48579335D01*
X99779859Y-48578061D01*
X99775973Y-48572320D01*
X99761068Y-48560709D01*
X99733375Y-48541876D01*
X99691126Y-48514471D01*
X99660715Y-48495124D01*
X99608140Y-48462769D01*
X99570144Y-48441208D01*
X99546147Y-48430127D01*
X99535574Y-48429207D01*
X99534615Y-48432690D01*
X98257034Y-48432690D01*
X98318753Y-48393057D01*
X98333547Y-48383554D01*
X98360817Y-48366249D01*
X98391435Y-48347125D01*
X98427577Y-48324851D01*
X98471416Y-48298095D01*
X98525127Y-48265528D01*
X98590887Y-48225818D01*
X98670869Y-48177635D01*
X98724793Y-48145141D01*
X98774511Y-48115010D01*
X98813872Y-48090802D01*
X98846110Y-48070432D01*
X98874457Y-48051813D01*
X98902148Y-48032860D01*
X98932416Y-48011486D01*
X98968493Y-47985605D01*
X98974169Y-47981569D01*
X99007116Y-47959816D01*
X99036449Y-47942959D01*
X99056394Y-47934362D01*
X99060132Y-47933603D01*
X99092120Y-47934761D01*
X99134806Y-47945430D01*
X99183947Y-47964291D01*
X99235303Y-47990025D01*
X99245386Y-47995901D01*
X99280691Y-48018115D01*
X99327104Y-48048945D01*
X99382564Y-48086891D01*
X99445006Y-48130454D01*
X99512369Y-48178136D01*
X99582588Y-48228437D01*
X99653601Y-48279859D01*
X99723344Y-48330904D01*
X99789755Y-48380071D01*
X99850769Y-48425863D01*
X99904326Y-48466780D01*
X99948360Y-48501324D01*
X99980809Y-48527996D01*
X99999610Y-48545296D01*
X100004918Y-48550354D01*
X100032660Y-48568452D01*
X100064549Y-48580954D01*
X100080085Y-48585402D01*
X100098966Y-48595017D01*
X100102789Y-48606854D01*
X100101192Y-48611131D01*
X100086689Y-48620098D01*
X100062067Y-48619900D01*
X100032162Y-48611133D01*
X100001811Y-48594395D01*
X99978547Y-48578247D01*
X99944283Y-48555009D01*
X99909238Y-48531678D01*
X99905981Y-48529526D01*
X99887889Y-48517307D01*
X99866492Y-48502375D01*
X99840297Y-48483631D01*
X99807812Y-48459975D01*
X99767541Y-48430310D01*
X99717992Y-48393535D01*
X99657671Y-48348552D01*
X99585086Y-48294261D01*
X99498742Y-48229564D01*
X99477300Y-48213674D01*
X99443151Y-48189107D01*
X99415051Y-48169784D01*
X99397560Y-48158890D01*
X99374683Y-48144750D01*
X99349489Y-48126018D01*
X99345027Y-48122468D01*
X99318633Y-48104209D01*
X99282485Y-48081809D01*
X99240899Y-48057660D01*
X99198193Y-48034154D01*
X99158683Y-48013683D01*
X99126688Y-47998638D01*
X99106523Y-47991412D01*
X99086564Y-47990588D01*
X99063153Y-47998449D01*
X99032097Y-48017504D01*
X99001139Y-48038105D01*
X98961267Y-48063636D01*
X98922350Y-48087734D01*
X98898784Y-48102790D01*
X98864776Y-48130104D01*
X98848022Y-48154705D01*
X98847732Y-48178120D01*
X98863113Y-48201874D01*
X98867187Y-48206079D01*
X98890100Y-48222997D01*
X98907494Y-48221957D01*
X98920192Y-48202977D01*
X98930226Y-48185491D01*
X98950037Y-48165258D01*
X98961400Y-48158207D01*
X98976984Y-48155735D01*
X98997928Y-48164294D01*
X98998309Y-48164491D01*
X99027048Y-48175414D01*
X99054430Y-48175587D01*
X99085384Y-48164065D01*
X99124837Y-48139899D01*
X99125684Y-48139325D01*
X99156026Y-48120356D01*
X99182012Y-48106855D01*
X99198099Y-48101712D01*
X99198643Y-48101734D01*
X99214444Y-48108523D01*
X99238584Y-48125108D01*
X99266065Y-48148079D01*
X99271802Y-48153214D01*
X99301734Y-48178657D01*
X99341335Y-48210924D01*
X99386123Y-48246402D01*
X99431615Y-48281480D01*
X99443604Y-48290598D01*
X99489485Y-48325746D01*
X99533653Y-48359934D01*
X99571591Y-48389650D01*
X99598783Y-48411387D01*
X99627001Y-48433667D01*
X99662708Y-48460315D01*
X99692475Y-48480975D01*
X99708521Y-48491656D01*
X99744488Y-48516703D01*
X99778447Y-48541501D01*
X99782331Y-48544408D01*
X99814348Y-48567513D01*
X99829512Y-48578061D01*
X99838211Y-48584112D01*
G37*
G36*
X95280624Y-51928964D02*
G01*
X95289180Y-51934796D01*
X95312052Y-51951365D01*
X95347814Y-51977672D01*
X95395227Y-52012794D01*
X95453049Y-52055805D01*
X95520042Y-52105782D01*
X95594963Y-52161800D01*
X95676574Y-52222936D01*
X95763633Y-52288265D01*
X95854901Y-52356863D01*
X95861078Y-52361511D01*
X95960696Y-52436438D01*
X96072828Y-52520768D01*
X96194893Y-52612560D01*
X96324305Y-52709870D01*
X96458480Y-52810755D01*
X96594835Y-52913273D01*
X96730785Y-53015479D01*
X96863746Y-53115433D01*
X96991135Y-53211190D01*
X97110366Y-53300808D01*
X97120088Y-53308115D01*
X97221583Y-53384467D01*
X97318561Y-53457533D01*
X97409943Y-53526495D01*
X97494654Y-53590535D01*
X97571617Y-53648836D01*
X97639755Y-53700581D01*
X97697991Y-53744952D01*
X97745249Y-53781132D01*
X97780452Y-53808302D01*
X97802523Y-53825646D01*
X97810386Y-53832346D01*
X97809383Y-53833788D01*
X97796296Y-53844122D01*
X97769429Y-53863135D01*
X97730459Y-53889704D01*
X97681065Y-53922702D01*
X97622927Y-53961006D01*
X97557722Y-54003488D01*
X97487130Y-54049025D01*
X97465319Y-54063028D01*
X97393648Y-54109062D01*
X97326198Y-54152411D01*
X97264946Y-54191804D01*
X97211869Y-54225968D01*
X97168942Y-54253632D01*
X97138142Y-54273523D01*
X97121446Y-54284370D01*
X97107571Y-54293126D01*
X97085144Y-54305646D01*
X97072121Y-54310639D01*
X97070506Y-54310256D01*
X97056767Y-54301311D01*
X97034415Y-54282914D01*
X97007417Y-54258275D01*
X97000901Y-54252155D01*
X96973713Y-54228547D01*
X96951324Y-54211984D01*
X96938050Y-54205736D01*
X96926386Y-54202412D01*
X96902559Y-54191037D01*
X96873796Y-54174369D01*
X96850587Y-54159977D01*
X96822997Y-54143298D01*
X96804688Y-54132748D01*
X96801011Y-54130586D01*
X96785671Y-54114249D01*
X96783495Y-54096965D01*
X96795633Y-54084818D01*
X96811992Y-54082745D01*
X96835484Y-54087995D01*
X96867888Y-54101660D01*
X96911392Y-54124665D01*
X96968185Y-54157940D01*
X97003189Y-54178544D01*
X97037207Y-54197454D01*
X97062581Y-54210312D01*
X97075521Y-54215100D01*
X97075868Y-54211359D01*
X97063746Y-54198574D01*
X97040557Y-54178600D01*
X97008796Y-54153407D01*
X96970960Y-54124968D01*
X96929546Y-54095254D01*
X96887049Y-54066238D01*
X96878191Y-54060350D01*
X96772215Y-53988222D01*
X96682226Y-53923531D01*
X96607102Y-53865446D01*
X96545724Y-53813137D01*
X96544215Y-53811776D01*
X96513399Y-53786004D01*
X96483863Y-53764501D01*
X96461806Y-53751799D01*
X96435649Y-53737186D01*
X96412843Y-53718237D01*
X96403952Y-53709452D01*
X96379437Y-53688922D01*
X96350946Y-53668057D01*
X96337732Y-53658800D01*
X96302689Y-53632362D01*
X96272110Y-53607078D01*
X96271984Y-53606966D01*
X96237369Y-53582864D01*
X96205243Y-53575096D01*
X96203025Y-53575044D01*
X96187864Y-53572229D01*
X96170334Y-53563723D01*
X96147645Y-53547578D01*
X96117005Y-53521845D01*
X96075623Y-53484575D01*
X96072285Y-53481523D01*
X96029991Y-53443902D01*
X95986993Y-53407285D01*
X95948142Y-53375723D01*
X95918293Y-53353266D01*
X95885793Y-53328212D01*
X95856493Y-53301458D01*
X95837022Y-53279007D01*
X95832535Y-53272516D01*
X95816968Y-53254893D01*
X95798884Y-53247325D01*
X95770034Y-53245714D01*
X95750908Y-53245443D01*
X95732192Y-53241939D01*
X95721752Y-53230772D01*
X95712960Y-53207504D01*
X95701378Y-53180283D01*
X95676723Y-53145861D01*
X95639512Y-53112969D01*
X95586749Y-53078549D01*
X95551558Y-53057144D01*
X95514215Y-53033179D01*
X95485119Y-53013228D01*
X95474597Y-53005962D01*
X95442488Y-52985809D01*
X95402515Y-52962469D01*
X95360937Y-52939653D01*
X95341383Y-52929078D01*
X95300497Y-52905662D01*
X95264587Y-52883492D01*
X95239702Y-52866232D01*
X95216007Y-52848960D01*
X95180482Y-52825180D01*
X95144177Y-52802583D01*
X95112505Y-52783333D01*
X95063476Y-52751354D01*
X95026309Y-52724007D01*
X95002738Y-52702615D01*
X94994496Y-52688497D01*
X94997355Y-52678591D01*
X95010714Y-52662813D01*
X95017075Y-52657022D01*
X95017569Y-52648874D01*
X95006561Y-52637278D01*
X94981778Y-52618774D01*
X94962924Y-52606178D01*
X94926665Y-52583842D01*
X94883435Y-52558635D01*
X94838990Y-52533976D01*
X94741356Y-52481357D01*
X94738332Y-52439075D01*
X94732704Y-52408080D01*
X94712063Y-52369166D01*
X94708626Y-52364954D01*
X94694636Y-52344463D01*
X94689121Y-52330332D01*
X94693709Y-52315124D01*
X94714903Y-52290308D01*
X94751705Y-52264267D01*
X94780540Y-52247120D01*
X94831973Y-52215757D01*
X94878498Y-52185966D01*
X94926832Y-52153386D01*
X94983694Y-52113653D01*
X95026466Y-52083858D01*
X95068381Y-52055402D01*
X95104409Y-52031659D01*
X95129739Y-52015853D01*
X95147014Y-52005281D01*
X95184649Y-51980348D01*
X95219359Y-51955346D01*
X95242686Y-51938839D01*
X95265259Y-51928000D01*
X95280624Y-51928964D01*
G37*
G36*
X97804480Y-50170547D02*
G01*
X97861348Y-50213270D01*
X97983398Y-50305058D01*
X98100763Y-50393456D01*
X98212560Y-50477791D01*
X98317904Y-50557392D01*
X98415913Y-50631586D01*
X98505701Y-50699703D01*
X98586386Y-50761069D01*
X98657082Y-50815014D01*
X98716907Y-50860865D01*
X98764976Y-50897950D01*
X98800406Y-50925598D01*
X98822311Y-50943137D01*
X98829810Y-50949895D01*
X98827484Y-50952488D01*
X98811675Y-50964611D01*
X98782333Y-50985306D01*
X98741119Y-51013457D01*
X98689690Y-51047946D01*
X98629708Y-51087655D01*
X98562831Y-51131467D01*
X98490718Y-51178264D01*
X98451439Y-51203594D01*
X98381395Y-51248539D01*
X98317086Y-51289518D01*
X98260225Y-51325457D01*
X98212525Y-51355281D01*
X98175702Y-51377915D01*
X98151467Y-51392284D01*
X98141535Y-51397312D01*
X98139500Y-51397037D01*
X98122763Y-51389888D01*
X98098154Y-51375902D01*
X98071707Y-51358912D01*
X98049460Y-51342748D01*
X98037448Y-51331242D01*
X98035024Y-51327996D01*
X98014694Y-51312584D01*
X97984099Y-51297915D01*
X97950289Y-51286921D01*
X97920318Y-51282536D01*
X97884551Y-51278813D01*
X97865095Y-51267490D01*
X97861791Y-51248104D01*
X97871310Y-51234130D01*
X97898553Y-51224581D01*
X97904425Y-51223584D01*
X97916402Y-51220722D01*
X97918779Y-51216642D01*
X97909639Y-51209603D01*
X97887067Y-51197863D01*
X97849147Y-51179681D01*
X97835489Y-51172956D01*
X97791368Y-51148674D01*
X97749960Y-51122580D01*
X97718719Y-51099271D01*
X97690543Y-51075339D01*
X97651685Y-51042941D01*
X97615177Y-51013048D01*
X97583026Y-50987019D01*
X97540485Y-50952516D01*
X97502017Y-50921258D01*
X97499992Y-50919616D01*
X97467560Y-50894578D01*
X97436868Y-50872872D01*
X97414309Y-50859037D01*
X97411190Y-50857349D01*
X97387303Y-50841796D01*
X97356123Y-50818691D01*
X97323560Y-50792373D01*
X97318966Y-50788502D01*
X97285165Y-50760879D01*
X97252925Y-50735790D01*
X97228665Y-50718250D01*
X97208509Y-50703737D01*
X97177392Y-50679949D01*
X97140047Y-50650519D01*
X97100771Y-50618786D01*
X97068524Y-50592692D01*
X97017721Y-50552427D01*
X96967028Y-50513060D01*
X96923711Y-50480276D01*
X96905046Y-50466361D01*
X96857137Y-50430208D01*
X96808464Y-50392987D01*
X96767121Y-50360870D01*
X96751417Y-50348552D01*
X96715651Y-50320708D01*
X96684032Y-50296355D01*
X96661976Y-50279674D01*
X96659027Y-50277478D01*
X96631633Y-50256495D01*
X96594304Y-50227248D01*
X96551254Y-50193096D01*
X96506697Y-50157396D01*
X96464846Y-50123505D01*
X96429915Y-50094780D01*
X96423058Y-50089153D01*
X96390972Y-50063909D01*
X96352103Y-50034473D01*
X96313377Y-50006113D01*
X96300007Y-49996486D01*
X96240963Y-49952860D01*
X96192799Y-49915334D01*
X96156803Y-49884983D01*
X96134262Y-49862881D01*
X96126463Y-49850102D01*
X96126833Y-49848497D01*
X96137269Y-49835901D01*
X96159149Y-49817336D01*
X96188554Y-49796205D01*
X96224416Y-49771960D01*
X96268971Y-49741303D01*
X96307960Y-49713968D01*
X96309484Y-49712887D01*
X96347875Y-49686944D01*
X96393093Y-49658145D01*
X96435670Y-49632526D01*
X96440479Y-49629733D01*
X96480690Y-49605460D01*
X96519919Y-49580441D01*
X96550299Y-49559675D01*
X96567597Y-49547552D01*
X96600502Y-49526310D01*
X96627967Y-49510632D01*
X96629379Y-49509906D01*
X96654387Y-49494760D01*
X96686905Y-49472312D01*
X96720275Y-49447142D01*
X96779149Y-49400521D01*
X97804480Y-50170547D01*
G37*
G36*
X100622214Y-55547096D02*
G01*
X100633011Y-55548240D01*
X100682699Y-55557801D01*
X100734340Y-55573413D01*
X100782701Y-55593021D01*
X100822549Y-55614570D01*
X100848648Y-55636004D01*
X100882913Y-55680675D01*
X100915452Y-55731522D01*
X100940722Y-55780233D01*
X100955502Y-55821222D01*
X100964567Y-55894034D01*
X100956118Y-55968959D01*
X100929708Y-56039489D01*
X100885919Y-56103273D01*
X100883190Y-56106240D01*
X100852890Y-56130847D01*
X100807220Y-56158583D01*
X100748948Y-56188035D01*
X100680846Y-56217788D01*
X100605681Y-56246427D01*
X100558316Y-56264422D01*
X100514703Y-56285483D01*
X100486597Y-56306964D01*
X100472168Y-56330979D01*
X100469587Y-56359641D01*
X100477024Y-56395063D01*
X100489140Y-56422904D01*
X100509131Y-56441189D01*
X100539680Y-56448690D01*
X100584325Y-56447125D01*
X100643841Y-56434346D01*
X100710406Y-56403020D01*
X100768510Y-56355866D01*
X100785061Y-56339791D01*
X100805140Y-56323245D01*
X100817483Y-56316831D01*
X100825405Y-56320435D01*
X100844505Y-56335594D01*
X100869967Y-56359328D01*
X100898404Y-56388070D01*
X100926431Y-56418256D01*
X100950660Y-56446320D01*
X100967707Y-56468698D01*
X100974186Y-56481824D01*
X100973660Y-56485839D01*
X100963133Y-56506439D01*
X100941971Y-56533162D01*
X100913969Y-56562005D01*
X100882926Y-56588963D01*
X100852638Y-56610030D01*
X100834632Y-56619695D01*
X100795500Y-56637572D01*
X100756564Y-56652351D01*
X100732210Y-56659376D01*
X100704231Y-56664541D01*
X100670571Y-56667410D01*
X100626767Y-56668346D01*
X100568358Y-56667715D01*
X100548838Y-56667331D01*
X100500921Y-56666080D01*
X100466548Y-56664120D01*
X100441538Y-56660703D01*
X100421714Y-56655085D01*
X100402895Y-56646520D01*
X100380904Y-56634262D01*
X100380023Y-56633754D01*
X100314996Y-56586603D01*
X100264182Y-56529298D01*
X100229609Y-56464118D01*
X100222527Y-56444092D01*
X100214289Y-56411245D01*
X100211339Y-56376411D01*
X100212598Y-56331159D01*
X100214753Y-56300711D01*
X100221798Y-56251831D01*
X100234829Y-56212846D01*
X100256511Y-56178936D01*
X100289507Y-56145282D01*
X100336482Y-56107066D01*
X100359288Y-56089764D01*
X100392215Y-56066390D01*
X100422030Y-56048588D01*
X100454108Y-56033663D01*
X100493821Y-56018920D01*
X100546542Y-56001662D01*
X100559587Y-55997480D01*
X100617359Y-55977679D01*
X100659326Y-55960086D01*
X100687851Y-55942966D01*
X100705299Y-55924587D01*
X100714035Y-55903215D01*
X100716421Y-55877117D01*
X100716027Y-55864941D01*
X100708673Y-55835813D01*
X100688499Y-55809815D01*
X100678347Y-55800230D01*
X100660381Y-55788413D01*
X100638134Y-55783115D01*
X100604228Y-55781893D01*
X100549868Y-55786433D01*
X100478594Y-55806393D01*
X100416025Y-55840591D01*
X100403227Y-55849560D01*
X100382497Y-55862699D01*
X100371194Y-55867865D01*
X100368849Y-55866976D01*
X100354292Y-55857155D01*
X100330557Y-55838777D01*
X100301433Y-55814728D01*
X100280037Y-55795921D01*
X100252714Y-55766629D01*
X100240712Y-55740774D01*
X100243886Y-55714462D01*
X100262093Y-55683796D01*
X100295190Y-55644879D01*
X100310684Y-55630135D01*
X100357868Y-55599353D01*
X100417207Y-55574285D01*
X100484105Y-55556304D01*
X100553972Y-55546783D01*
X100622214Y-55547096D01*
G37*
G36*
X98555126Y-55903386D02*
G01*
X98556327Y-55906776D01*
X98563972Y-55929639D01*
X98575577Y-55965418D01*
X98589788Y-56009910D01*
X98605250Y-56058914D01*
X98608108Y-56068017D01*
X98632550Y-56144801D01*
X98652448Y-56204880D01*
X98668411Y-56249770D01*
X98681046Y-56280987D01*
X98690961Y-56300045D01*
X98698764Y-56308460D01*
X98705063Y-56307747D01*
X98708834Y-56302508D01*
X98718566Y-56281254D01*
X98730567Y-56248711D01*
X98743064Y-56209473D01*
X98751377Y-56181996D01*
X98768157Y-56129004D01*
X98786585Y-56073192D01*
X98805208Y-56018778D01*
X98822572Y-55969977D01*
X98837222Y-55931004D01*
X98847706Y-55906075D01*
X98851953Y-55898035D01*
X98858967Y-55890411D01*
X98870842Y-55885512D01*
X98891139Y-55882571D01*
X98923418Y-55880823D01*
X98971238Y-55879501D01*
X98977430Y-55879345D01*
X99023413Y-55878101D01*
X99056602Y-55878664D01*
X99077903Y-55883344D01*
X99088219Y-55894452D01*
X99088455Y-55914298D01*
X99079514Y-55945191D01*
X99062302Y-55989442D01*
X99037721Y-56049362D01*
X99025837Y-56078703D01*
X98998589Y-56147404D01*
X98970677Y-56219495D01*
X98943067Y-56292333D01*
X98916723Y-56363274D01*
X98892610Y-56429677D01*
X98871693Y-56488897D01*
X98854938Y-56538292D01*
X98843309Y-56575219D01*
X98837771Y-56597034D01*
X98836486Y-56610643D01*
X98837646Y-56628293D01*
X98842368Y-56650664D01*
X98851450Y-56680322D01*
X98865689Y-56719831D01*
X98885882Y-56771760D01*
X98912826Y-56838672D01*
X98925413Y-56871326D01*
X98937831Y-56908170D01*
X98945190Y-56936140D01*
X98946205Y-56950914D01*
X98940384Y-56958299D01*
X98926430Y-56963245D01*
X98900866Y-56965721D01*
X98859961Y-56966398D01*
X98843879Y-56966380D01*
X98794922Y-56965557D01*
X98760299Y-56962298D01*
X98736252Y-56954959D01*
X98719024Y-56941894D01*
X98704855Y-56921459D01*
X98689989Y-56892009D01*
X98689791Y-56891595D01*
X98677026Y-56862412D01*
X98659608Y-56819323D01*
X98639112Y-56766391D01*
X98617112Y-56707677D01*
X98595181Y-56647245D01*
X98575678Y-56592763D01*
X98550737Y-56523574D01*
X98526052Y-56455557D01*
X98503661Y-56394323D01*
X98485604Y-56345488D01*
X98483933Y-56341007D01*
X98466119Y-56292804D01*
X98449820Y-56247996D01*
X98436777Y-56211410D01*
X98428732Y-56187872D01*
X98428460Y-56187034D01*
X98419976Y-56162589D01*
X98406473Y-56125482D01*
X98389753Y-56080607D01*
X98371620Y-56032853D01*
X98368972Y-56025903D01*
X98352815Y-55981376D01*
X98340132Y-55942783D01*
X98332142Y-55914054D01*
X98330067Y-55899119D01*
X98333518Y-55891740D01*
X98342893Y-55886560D01*
X98361458Y-55883189D01*
X98392518Y-55881035D01*
X98439378Y-55879505D01*
X98545445Y-55876816D01*
X98555126Y-55903386D01*
G37*
G36*
X97437522Y-55962672D02*
G01*
X97438405Y-56013968D01*
X97439073Y-56074833D01*
X97439526Y-56142661D01*
X97439765Y-56214846D01*
X97439790Y-56288781D01*
X97439601Y-56361858D01*
X97439200Y-56431473D01*
X97438586Y-56495017D01*
X97437760Y-56549884D01*
X97436722Y-56593468D01*
X97435473Y-56623162D01*
X97434012Y-56636359D01*
X97430093Y-56642154D01*
X97419946Y-56646821D01*
X97400734Y-56649279D01*
X97369121Y-56649906D01*
X97321771Y-56649081D01*
X97215444Y-56646391D01*
X97210667Y-56417131D01*
X97209016Y-56345639D01*
X97207180Y-56286999D01*
X97205034Y-56242592D01*
X97202372Y-56209922D01*
X97198987Y-56186498D01*
X97194675Y-56169824D01*
X97189229Y-56157407D01*
X97170839Y-56129810D01*
X97146333Y-56110061D01*
X97113091Y-56099960D01*
X97066244Y-56097124D01*
X97041958Y-56097086D01*
X97020420Y-56098316D01*
X97004168Y-56103344D01*
X96988629Y-56114721D01*
X96969229Y-56134994D01*
X96941396Y-56166712D01*
X96940862Y-56173139D01*
X96939899Y-56196333D01*
X96938678Y-56233960D01*
X96937275Y-56283434D01*
X96935767Y-56342170D01*
X96934231Y-56407579D01*
X96928870Y-56646391D01*
X96824566Y-56649118D01*
X96779285Y-56649768D01*
X96743480Y-56648635D01*
X96722035Y-56645304D01*
X96712471Y-56639566D01*
X96710690Y-56630279D01*
X96708754Y-56603835D01*
X96707112Y-56563249D01*
X96705844Y-56511227D01*
X96705033Y-56450475D01*
X96704760Y-56383698D01*
X96704778Y-56351468D01*
X96704954Y-56283520D01*
X96705484Y-56230873D01*
X96706576Y-56190813D01*
X96708438Y-56160629D01*
X96711278Y-56137606D01*
X96715307Y-56119030D01*
X96720730Y-56102190D01*
X96727758Y-56084371D01*
X96730633Y-56077483D01*
X96763638Y-56012234D01*
X96802639Y-55960619D01*
X96826579Y-55939508D01*
X97210667Y-55939508D01*
X97215444Y-55944285D01*
X97220220Y-55939508D01*
X97215444Y-55934732D01*
X97210667Y-55939508D01*
X96826579Y-55939508D01*
X96851275Y-55917730D01*
X96870269Y-55904038D01*
X96888017Y-55893285D01*
X96906169Y-55886551D01*
X96929399Y-55882697D01*
X96962378Y-55880584D01*
X97009782Y-55879072D01*
X97038902Y-55878306D01*
X97077938Y-55877908D01*
X97104777Y-55879289D01*
X97123825Y-55883094D01*
X97139486Y-55889971D01*
X97156165Y-55900565D01*
X97181139Y-55916431D01*
X97199412Y-55923687D01*
X97208321Y-55918630D01*
X97210667Y-55901298D01*
X97210667Y-55877417D01*
X97319499Y-55877417D01*
X97356312Y-55877625D01*
X97392881Y-55878801D01*
X97415898Y-55881395D01*
X97428577Y-55885829D01*
X97434128Y-55892527D01*
X97435110Y-55899216D01*
X97436424Y-55923552D01*
X97436872Y-55939508D01*
X97437522Y-55962672D01*
G37*
G36*
X98316565Y-56274039D02*
G01*
X98315728Y-56296919D01*
X98313502Y-56337454D01*
X98309716Y-56367154D01*
X98303020Y-56391752D01*
X98292068Y-56416979D01*
X98275510Y-56448565D01*
X98261434Y-56473625D01*
X98213800Y-56543811D01*
X98162116Y-56596966D01*
X98104160Y-56634649D01*
X98037707Y-56658425D01*
X97960536Y-56669853D01*
X97885559Y-56670146D01*
X97801662Y-56656045D01*
X97727714Y-56625697D01*
X97663330Y-56578874D01*
X97608124Y-56515351D01*
X97561710Y-56434898D01*
X97560229Y-56431766D01*
X97546584Y-56401245D01*
X97537948Y-56375744D01*
X97533199Y-56349234D01*
X97531217Y-56315685D01*
X97530882Y-56269068D01*
X97530918Y-56258408D01*
X97757524Y-56258408D01*
X97761093Y-56316083D01*
X97780134Y-56371084D01*
X97814753Y-56419484D01*
X97825811Y-56430524D01*
X97840442Y-56441753D01*
X97857403Y-56447742D01*
X97882286Y-56450133D01*
X97920680Y-56450565D01*
X97996483Y-56450565D01*
X98037113Y-56409936D01*
X98062246Y-56380205D01*
X98089543Y-56326462D01*
X98098993Y-56268414D01*
X98097201Y-56244034D01*
X98084904Y-56195591D01*
X98063622Y-56150733D01*
X98036520Y-56117128D01*
X98030613Y-56112016D01*
X98012607Y-56098680D01*
X97994267Y-56091335D01*
X97969340Y-56088219D01*
X97931573Y-56087572D01*
X97912111Y-56087653D01*
X97881545Y-56089089D01*
X97860720Y-56093876D01*
X97843264Y-56103997D01*
X97822803Y-56121439D01*
X97796373Y-56150749D01*
X97769319Y-56201987D01*
X97757524Y-56258408D01*
X97530918Y-56258408D01*
X97530939Y-56252060D01*
X97531720Y-56211291D01*
X97534375Y-56181781D01*
X97540138Y-56157640D01*
X97550245Y-56132977D01*
X97565930Y-56101900D01*
X97586262Y-56064172D01*
X97612956Y-56020863D01*
X97639731Y-55987180D01*
X97670658Y-55958232D01*
X97709808Y-55929131D01*
X97733931Y-55913532D01*
X97811197Y-55877153D01*
X97890935Y-55859696D01*
X97973000Y-55861163D01*
X98057244Y-55881557D01*
X98143522Y-55920882D01*
X98154856Y-55927528D01*
X98216002Y-55976029D01*
X98265078Y-56038319D01*
X98300364Y-56112300D01*
X98304905Y-56125820D01*
X98312426Y-56154499D01*
X98316491Y-56184921D01*
X98317679Y-56222847D01*
X98316687Y-56268414D01*
X98316565Y-56274039D01*
G37*
G36*
X100004592Y-55686104D02*
G01*
X100041385Y-55688322D01*
X100069752Y-55692563D01*
X100084406Y-55698826D01*
X100086908Y-55704269D01*
X100091512Y-55726755D01*
X100095259Y-55760825D01*
X100097516Y-55801515D01*
X100100287Y-55891746D01*
X100157602Y-55896522D01*
X100214917Y-55901298D01*
X100217956Y-55963389D01*
X100218723Y-55984091D01*
X100217024Y-56034352D01*
X100208130Y-56069359D01*
X100190462Y-56091482D01*
X100162440Y-56103088D01*
X100122485Y-56106546D01*
X100087367Y-56106676D01*
X100084275Y-56300114D01*
X100084247Y-56301856D01*
X100083035Y-56367950D01*
X100081606Y-56417991D01*
X100079655Y-56454961D01*
X100076874Y-56481840D01*
X100072959Y-56501612D01*
X100067602Y-56517258D01*
X100060499Y-56531761D01*
X100044339Y-56557580D01*
X100007460Y-56600459D01*
X99965036Y-56634879D01*
X99922545Y-56655908D01*
X99922338Y-56655973D01*
X99891131Y-56662623D01*
X99849799Y-56667529D01*
X99807232Y-56669633D01*
X99806475Y-56669639D01*
X99764536Y-56669089D01*
X99735919Y-56664581D01*
X99718083Y-56653089D01*
X99708488Y-56631585D01*
X99704594Y-56597041D01*
X99703860Y-56546429D01*
X99704030Y-56509025D01*
X99706004Y-56475686D01*
X99712161Y-56455536D01*
X99724886Y-56445254D01*
X99746564Y-56441520D01*
X99779581Y-56441013D01*
X99787703Y-56440956D01*
X99813287Y-56439095D01*
X99832201Y-56432783D01*
X99845525Y-56419579D01*
X99854338Y-56397040D01*
X99859722Y-56362723D01*
X99862756Y-56314187D01*
X99864521Y-56248990D01*
X99867567Y-56097124D01*
X99806644Y-56097124D01*
X99777393Y-56096683D01*
X99746993Y-56092994D01*
X99728100Y-56082867D01*
X99718210Y-56063150D01*
X99714816Y-56030692D01*
X99715413Y-55982339D01*
X99718189Y-55891746D01*
X99789832Y-55886970D01*
X99861476Y-55882194D01*
X99864263Y-55796719D01*
X99865015Y-55779633D01*
X99868101Y-55742161D01*
X99872450Y-55713503D01*
X99877374Y-55698806D01*
X99878849Y-55697467D01*
X99896500Y-55691590D01*
X99926864Y-55687737D01*
X99964657Y-55685909D01*
X100004592Y-55686104D01*
G37*
G36*
X99274660Y-55879681D02*
G01*
X99309470Y-55884027D01*
X99334009Y-55890515D01*
X99362127Y-55906863D01*
X99387906Y-55928725D01*
X99400880Y-55942006D01*
X99415994Y-55952063D01*
X99424379Y-55945784D01*
X99428622Y-55922792D01*
X99431615Y-55891746D01*
X99536692Y-55891746D01*
X99641769Y-55891746D01*
X99640122Y-56257861D01*
X99640056Y-56271532D01*
X99639514Y-56352951D01*
X99638755Y-56428298D01*
X99637821Y-56495398D01*
X99636752Y-56552082D01*
X99635586Y-56596175D01*
X99634365Y-56625508D01*
X99633128Y-56637908D01*
X99631979Y-56640128D01*
X99623679Y-56645731D01*
X99606019Y-56648864D01*
X99575770Y-56649875D01*
X99529699Y-56649115D01*
X99431615Y-56646391D01*
X99426839Y-56431460D01*
X99425477Y-56378944D01*
X99422693Y-56306203D01*
X99419270Y-56251281D01*
X99415237Y-56214605D01*
X99410623Y-56196601D01*
X99403287Y-56186344D01*
X99383573Y-56164242D01*
X99358942Y-56140316D01*
X99318700Y-56103960D01*
X99220772Y-56109952D01*
X99122843Y-56115944D01*
X99119266Y-56008621D01*
X99118567Y-55970800D01*
X99119185Y-55931896D01*
X99121182Y-55903284D01*
X99124370Y-55889358D01*
X99133914Y-55884278D01*
X99159207Y-55879776D01*
X99194469Y-55877528D01*
X99234640Y-55877506D01*
X99274660Y-55879681D01*
G37*
G36*
X94373557Y-51228866D02*
G01*
X94399102Y-51244624D01*
X94435582Y-51272051D01*
X94481548Y-51310038D01*
X94535549Y-51357477D01*
X94571363Y-51388660D01*
X94619726Y-51429173D01*
X94676999Y-51476065D01*
X94739975Y-51526772D01*
X94805445Y-51578729D01*
X94870201Y-51629374D01*
X94931036Y-51676142D01*
X94984740Y-51716469D01*
X94997477Y-51726606D01*
X95013355Y-51742555D01*
X95017426Y-51752291D01*
X95006960Y-51759298D01*
X94985450Y-51757375D01*
X94950823Y-51745074D01*
X94913778Y-51726643D01*
X94855985Y-51690108D01*
X94787754Y-51639835D01*
X94709930Y-51576489D01*
X94623359Y-51500734D01*
X94528884Y-51413234D01*
X94516373Y-51401413D01*
X94476914Y-51364771D01*
X94440337Y-51331687D01*
X94410261Y-51305402D01*
X94390302Y-51289154D01*
X94385992Y-51285792D01*
X94367100Y-51266239D01*
X94355597Y-51246591D01*
X94353468Y-51231438D01*
X94362700Y-51225368D01*
X94373557Y-51228866D01*
G37*
G36*
X96417914Y-53773584D02*
G01*
X96438630Y-53784115D01*
X96468944Y-53802923D01*
X96510733Y-53831093D01*
X96565876Y-53869712D01*
X96592998Y-53888596D01*
X96631536Y-53914447D01*
X96664787Y-53935664D01*
X96687670Y-53948943D01*
X96714244Y-53967436D01*
X96723492Y-53986224D01*
X96723372Y-53989024D01*
X96715321Y-54002845D01*
X96696683Y-54004071D01*
X96670318Y-53993224D01*
X96639086Y-53970825D01*
X96625099Y-53959424D01*
X96591431Y-53934915D01*
X96560861Y-53915899D01*
X96560835Y-53915885D01*
X96533291Y-53898765D01*
X96501785Y-53875784D01*
X96469554Y-53849791D01*
X96439833Y-53823633D01*
X96415861Y-53800160D01*
X96400872Y-53782219D01*
X96398103Y-53772659D01*
X96404921Y-53770245D01*
X96417914Y-53773584D01*
G37*
G36*
X97210622Y-54376778D02*
G01*
X97249425Y-54397749D01*
X97302172Y-54431293D01*
X97314769Y-54439730D01*
X97369184Y-54477554D01*
X97408295Y-54507656D01*
X97433358Y-54531184D01*
X97445626Y-54549283D01*
X97446352Y-54563099D01*
X97441183Y-54571993D01*
X97425714Y-54577153D01*
X97402094Y-54566606D01*
X97369389Y-54540072D01*
X97350572Y-54523399D01*
X97331093Y-54507860D01*
X97320713Y-54501863D01*
X97317936Y-54501038D01*
X97303018Y-54491796D01*
X97282121Y-54475593D01*
X97272107Y-54467253D01*
X97241870Y-54442356D01*
X97211605Y-54417739D01*
X97196940Y-54405247D01*
X97179328Y-54387769D01*
X97172457Y-54377141D01*
X97173559Y-54372017D01*
X97185441Y-54368245D01*
X97210622Y-54376778D01*
G37*
G36*
X97811088Y-54686830D02*
G01*
X97836935Y-54700916D01*
X97866392Y-54720286D01*
X97895753Y-54742309D01*
X97921313Y-54764352D01*
X97939366Y-54783781D01*
X97946207Y-54797964D01*
X97944326Y-54805580D01*
X97936583Y-54805138D01*
X97920031Y-54795077D01*
X97891722Y-54774108D01*
X97872437Y-54760172D01*
X97849930Y-54746118D01*
X97836645Y-54740674D01*
X97835200Y-54740563D01*
X97819780Y-54732396D01*
X97802438Y-54715868D01*
X97789006Y-54697459D01*
X97785312Y-54683644D01*
X97792556Y-54680662D01*
X97811088Y-54686830D01*
G37*
G36*
X97777019Y-54589121D02*
G01*
X97783248Y-54609710D01*
X97781848Y-54633759D01*
X97772352Y-54652792D01*
X97769005Y-54655224D01*
X97748687Y-54661669D01*
X97720836Y-54664254D01*
X97707496Y-54663659D01*
X97682372Y-54656662D01*
X97673385Y-54642831D01*
X97681782Y-54623468D01*
X97698177Y-54608195D01*
X97723929Y-54592326D01*
X97749729Y-54582210D01*
X97768422Y-54581328D01*
X97777019Y-54589121D01*
G37*
G36*
X100213122Y-54294663D02*
G01*
X100217884Y-54312623D01*
X100216675Y-54330920D01*
X100200604Y-54358560D01*
X100182167Y-54371573D01*
X100149875Y-54375856D01*
X100137660Y-54374116D01*
X100122174Y-54365917D01*
X100116427Y-54347233D01*
X100116141Y-54342626D01*
X100124611Y-54317745D01*
X100148812Y-54299505D01*
X100186260Y-54289944D01*
X100200411Y-54289192D01*
X100213122Y-54294663D01*
G37*
G36*
X100272103Y-54273004D02*
G01*
X100287314Y-54282359D01*
X100289344Y-54299987D01*
X100277008Y-54320366D01*
X100271919Y-54324750D01*
X100252837Y-54332903D01*
X100236300Y-54330811D01*
X100229246Y-54318716D01*
X100234204Y-54299731D01*
X100248810Y-54280707D01*
X100266770Y-54272603D01*
X100272103Y-54273004D01*
G37*
G36*
X98136491Y-54907853D02*
G01*
X98145121Y-54924640D01*
X98143354Y-54946052D01*
X98135787Y-54954741D01*
X98116586Y-54960014D01*
X98095904Y-54956587D01*
X98082866Y-54944671D01*
X98082011Y-54941263D01*
X98087438Y-54924091D01*
X98103838Y-54909335D01*
X98125053Y-54903066D01*
X98136491Y-54907853D01*
G37*
G36*
X98035466Y-54842917D02*
G01*
X98052576Y-54854489D01*
X98064475Y-54870499D01*
X98064982Y-54884982D01*
X98064204Y-54886003D01*
X98051671Y-54887625D01*
X98032998Y-54878571D01*
X98014433Y-54861717D01*
X98008679Y-54849559D01*
X98019911Y-54841506D01*
X98035466Y-54842917D01*
G37*
G36*
X97993969Y-54750227D02*
G01*
X97993280Y-54755284D01*
X97987601Y-54756595D01*
X97986458Y-54755195D01*
X97987601Y-54743858D01*
X97990474Y-54742364D01*
X97993969Y-54750227D01*
G37*
D13*
X88595000Y-65895000D02*
X89665000Y-65895000D01*
X88595000Y-76555000D02*
X88595000Y-65895000D01*
X89665000Y-76555000D02*
X88595000Y-76555000D01*
X91485000Y-65945000D02*
X92455000Y-65945000D01*
X92455000Y-65945000D02*
X92455000Y-68565000D01*
X92455000Y-73885000D02*
X92455000Y-76505000D01*
X92455000Y-76505000D02*
X91485000Y-76505000D01*
X92975000Y-73885000D02*
X92455000Y-73885000D01*
X133410000Y-52150000D02*
X141210000Y-52150000D01*
X139310000Y-52400000D02*
X139310000Y-52500000D01*
X139310000Y-52500000D02*
X141210000Y-52500000D01*
X139310000Y-52600000D02*
X139310000Y-52500000D01*
X139310000Y-52600000D02*
X139310000Y-52700000D01*
X139310000Y-52700000D02*
X141010000Y-52700000D01*
X139310000Y-53900000D02*
X139310000Y-54000000D01*
X139310000Y-54000000D02*
X141010000Y-54000000D01*
X139310000Y-54000000D02*
X141110000Y-54000000D01*
X139310000Y-54100000D02*
X139310000Y-54000000D01*
X141010000Y-52700000D02*
X141010000Y-53900000D01*
X141010000Y-53900000D02*
X139310000Y-53900000D01*
X141010000Y-54000000D02*
X141010000Y-54100000D01*
X141010000Y-54100000D02*
X141310000Y-54100000D01*
X141110000Y-52600000D02*
X139310000Y-52600000D01*
X141110000Y-54000000D02*
X141110000Y-52600000D01*
X141210000Y-52500000D02*
X141210000Y-54100000D01*
X141210000Y-54100000D02*
X139310000Y-54100000D01*
X141210000Y-55850000D02*
X133410000Y-55850000D01*
X141310000Y-52400000D02*
X139310000Y-52400000D01*
X141310000Y-54100000D02*
X141310000Y-52400000D01*
X141910000Y-53100000D02*
X141910000Y-53000000D01*
X141910000Y-53200000D02*
X141910000Y-53100000D01*
X142192843Y-53200000D02*
G75*
G02*
X141627157Y-53200000I-282843J0D01*
G01*
X141627157Y-53200000D02*
G75*
G02*
X142192843Y-53200000I282843J0D01*
G01*
X142051421Y-53200000D02*
G75*
G02*
X141768579Y-53200000I-141421J0D01*
G01*
X141768579Y-53200000D02*
G75*
G02*
X142051421Y-53200000I141421J0D01*
G01*
X142133607Y-53200000D02*
G75*
G02*
X141686393Y-53200000I-223607J0D01*
G01*
X141686393Y-53200000D02*
G75*
G02*
X142133607Y-53200000I223607J0D01*
G01*
X142010000Y-53200000D02*
G75*
G02*
X141810000Y-53200000I-100000J0D01*
G01*
X141810000Y-53200000D02*
G75*
G02*
X142010000Y-53200000I100000J0D01*
G01*
X152144300Y-49515100D02*
X159944300Y-49515100D01*
X158044300Y-49765100D02*
X158044300Y-49865100D01*
X158044300Y-49865100D02*
X159944300Y-49865100D01*
X158044300Y-49965100D02*
X158044300Y-49865100D01*
X158044300Y-49965100D02*
X158044300Y-50065100D01*
X158044300Y-50065100D02*
X159744300Y-50065100D01*
X158044300Y-51265100D02*
X158044300Y-51365100D01*
X158044300Y-51365100D02*
X159744300Y-51365100D01*
X158044300Y-51365100D02*
X159844300Y-51365100D01*
X158044300Y-51465100D02*
X158044300Y-51365100D01*
X159744300Y-50065100D02*
X159744300Y-51265100D01*
X159744300Y-51265100D02*
X158044300Y-51265100D01*
X159744300Y-51365100D02*
X159744300Y-51465100D01*
X159744300Y-51465100D02*
X160044300Y-51465100D01*
X159844300Y-49965100D02*
X158044300Y-49965100D01*
X159844300Y-51365100D02*
X159844300Y-49965100D01*
X159944300Y-49865100D02*
X159944300Y-51465100D01*
X159944300Y-51465100D02*
X158044300Y-51465100D01*
X159944300Y-53215100D02*
X152144300Y-53215100D01*
X160044300Y-49765100D02*
X158044300Y-49765100D01*
X160044300Y-51465100D02*
X160044300Y-49765100D01*
X160644300Y-50465100D02*
X160644300Y-50365100D01*
X160644300Y-50565100D02*
X160644300Y-50465100D01*
X160927143Y-50565100D02*
G75*
G02*
X160361457Y-50565100I-282843J0D01*
G01*
X160361457Y-50565100D02*
G75*
G02*
X160927143Y-50565100I282843J0D01*
G01*
X160785721Y-50565100D02*
G75*
G02*
X160502879Y-50565100I-141421J0D01*
G01*
X160502879Y-50565100D02*
G75*
G02*
X160785721Y-50565100I141421J0D01*
G01*
X160867907Y-50565100D02*
G75*
G02*
X160420693Y-50565100I-223607J0D01*
G01*
X160420693Y-50565100D02*
G75*
G02*
X160867907Y-50565100I223607J0D01*
G01*
X160744300Y-50565100D02*
G75*
G02*
X160544300Y-50565100I-100000J0D01*
G01*
X160544300Y-50565100D02*
G75*
G02*
X160744300Y-50565100I100000J0D01*
G01*
X171100000Y-54150000D02*
X178900000Y-54150000D01*
X177000000Y-54400000D02*
X177000000Y-54500000D01*
X177000000Y-54500000D02*
X178900000Y-54500000D01*
X177000000Y-54600000D02*
X177000000Y-54500000D01*
X177000000Y-54600000D02*
X177000000Y-54700000D01*
X177000000Y-54700000D02*
X178700000Y-54700000D01*
X177000000Y-55900000D02*
X177000000Y-56000000D01*
X177000000Y-56000000D02*
X178700000Y-56000000D01*
X177000000Y-56000000D02*
X178800000Y-56000000D01*
X177000000Y-56100000D02*
X177000000Y-56000000D01*
X178700000Y-54700000D02*
X178700000Y-55900000D01*
X178700000Y-55900000D02*
X177000000Y-55900000D01*
X178700000Y-56000000D02*
X178700000Y-56100000D01*
X178700000Y-56100000D02*
X179000000Y-56100000D01*
X178800000Y-54600000D02*
X177000000Y-54600000D01*
X178800000Y-56000000D02*
X178800000Y-54600000D01*
X178900000Y-54500000D02*
X178900000Y-56100000D01*
X178900000Y-56100000D02*
X177000000Y-56100000D01*
X178900000Y-57850000D02*
X171100000Y-57850000D01*
X179000000Y-54400000D02*
X177000000Y-54400000D01*
X179000000Y-56100000D02*
X179000000Y-54400000D01*
X179600000Y-55100000D02*
X179600000Y-55000000D01*
X179600000Y-55200000D02*
X179600000Y-55100000D01*
X179882843Y-55200000D02*
G75*
G02*
X179317157Y-55200000I-282843J0D01*
G01*
X179317157Y-55200000D02*
G75*
G02*
X179882843Y-55200000I282843J0D01*
G01*
X179741421Y-55200000D02*
G75*
G02*
X179458579Y-55200000I-141421J0D01*
G01*
X179458579Y-55200000D02*
G75*
G02*
X179741421Y-55200000I141421J0D01*
G01*
X179823607Y-55200000D02*
G75*
G02*
X179376393Y-55200000I-223607J0D01*
G01*
X179376393Y-55200000D02*
G75*
G02*
X179823607Y-55200000I223607J0D01*
G01*
X179700000Y-55200000D02*
G75*
G02*
X179500000Y-55200000I-100000J0D01*
G01*
X179500000Y-55200000D02*
G75*
G02*
X179700000Y-55200000I100000J0D01*
G01*
X190463600Y-61262600D02*
X198263600Y-61262600D01*
X196363600Y-61512600D02*
X196363600Y-61612600D01*
X196363600Y-61612600D02*
X198263600Y-61612600D01*
X196363600Y-61712600D02*
X196363600Y-61612600D01*
X196363600Y-61712600D02*
X196363600Y-61812600D01*
X196363600Y-61812600D02*
X198063600Y-61812600D01*
X196363600Y-63012600D02*
X196363600Y-63112600D01*
X196363600Y-63112600D02*
X198063600Y-63112600D01*
X196363600Y-63112600D02*
X198163600Y-63112600D01*
X196363600Y-63212600D02*
X196363600Y-63112600D01*
X198063600Y-61812600D02*
X198063600Y-63012600D01*
X198063600Y-63012600D02*
X196363600Y-63012600D01*
X198063600Y-63112600D02*
X198063600Y-63212600D01*
X198063600Y-63212600D02*
X198363600Y-63212600D01*
X198163600Y-61712600D02*
X196363600Y-61712600D01*
X198163600Y-63112600D02*
X198163600Y-61712600D01*
X198263600Y-61612600D02*
X198263600Y-63212600D01*
X198263600Y-63212600D02*
X196363600Y-63212600D01*
X198263600Y-64962600D02*
X190463600Y-64962600D01*
X198363600Y-61512600D02*
X196363600Y-61512600D01*
X198363600Y-63212600D02*
X198363600Y-61512600D01*
X198963600Y-62212600D02*
X198963600Y-62112600D01*
X198963600Y-62312600D02*
X198963600Y-62212600D01*
X199246443Y-62312600D02*
G75*
G02*
X198680757Y-62312600I-282843J0D01*
G01*
X198680757Y-62312600D02*
G75*
G02*
X199246443Y-62312600I282843J0D01*
G01*
X199105021Y-62312600D02*
G75*
G02*
X198822179Y-62312600I-141421J0D01*
G01*
X198822179Y-62312600D02*
G75*
G02*
X199105021Y-62312600I141421J0D01*
G01*
X199187207Y-62312600D02*
G75*
G02*
X198739993Y-62312600I-223607J0D01*
G01*
X198739993Y-62312600D02*
G75*
G02*
X199187207Y-62312600I223607J0D01*
G01*
X199063600Y-62312600D02*
G75*
G02*
X198863600Y-62312600I-100000J0D01*
G01*
X198863600Y-62312600D02*
G75*
G02*
X199063600Y-62312600I100000J0D01*
G01*
X209100000Y-80150000D02*
X216900000Y-80150000D01*
X215000000Y-80400000D02*
X215000000Y-80500000D01*
X215000000Y-80500000D02*
X216900000Y-80500000D01*
X215000000Y-80600000D02*
X215000000Y-80500000D01*
X215000000Y-80600000D02*
X215000000Y-80700000D01*
X215000000Y-80700000D02*
X216700000Y-80700000D01*
X215000000Y-81900000D02*
X215000000Y-82000000D01*
X215000000Y-82000000D02*
X216700000Y-82000000D01*
X215000000Y-82000000D02*
X216800000Y-82000000D01*
X215000000Y-82100000D02*
X215000000Y-82000000D01*
X216700000Y-80700000D02*
X216700000Y-81900000D01*
X216700000Y-81900000D02*
X215000000Y-81900000D01*
X216700000Y-82000000D02*
X216700000Y-82100000D01*
X216700000Y-82100000D02*
X217000000Y-82100000D01*
X216800000Y-80600000D02*
X215000000Y-80600000D01*
X216800000Y-82000000D02*
X216800000Y-80600000D01*
X216900000Y-80500000D02*
X216900000Y-82100000D01*
X216900000Y-82100000D02*
X215000000Y-82100000D01*
X216900000Y-83850000D02*
X209100000Y-83850000D01*
X217000000Y-80400000D02*
X215000000Y-80400000D01*
X217000000Y-82100000D02*
X217000000Y-80400000D01*
X217600000Y-81100000D02*
X217600000Y-81000000D01*
X217600000Y-81200000D02*
X217600000Y-81100000D01*
X217882843Y-81200000D02*
G75*
G02*
X217317157Y-81200000I-282843J0D01*
G01*
X217317157Y-81200000D02*
G75*
G02*
X217882843Y-81200000I282843J0D01*
G01*
X217741421Y-81200000D02*
G75*
G02*
X217458579Y-81200000I-141421J0D01*
G01*
X217458579Y-81200000D02*
G75*
G02*
X217741421Y-81200000I141421J0D01*
G01*
X217823607Y-81200000D02*
G75*
G02*
X217376393Y-81200000I-223607J0D01*
G01*
X217376393Y-81200000D02*
G75*
G02*
X217823607Y-81200000I223607J0D01*
G01*
X217700000Y-81200000D02*
G75*
G02*
X217500000Y-81200000I-100000J0D01*
G01*
X217500000Y-81200000D02*
G75*
G02*
X217700000Y-81200000I100000J0D01*
G01*
X190299200Y-80356500D02*
X198099200Y-80356500D01*
X196199200Y-82106500D02*
X196199200Y-82206500D01*
X196199200Y-82206500D02*
X197899200Y-82206500D01*
X196199200Y-82206500D02*
X197999200Y-82206500D01*
X196199200Y-82306500D02*
X196199200Y-82206500D01*
X196199200Y-83506500D02*
X197899200Y-83506500D01*
X196199200Y-83606500D02*
X196199200Y-83506500D01*
X196199200Y-83606500D02*
X196199200Y-83706500D01*
X196199200Y-83706500D02*
X198099200Y-83706500D01*
X196199200Y-83806500D02*
X196199200Y-83706500D01*
X197899200Y-82106500D02*
X198199200Y-82106500D01*
X197899200Y-82206500D02*
X197899200Y-82106500D01*
X197899200Y-82306500D02*
X196199200Y-82306500D01*
X197899200Y-83506500D02*
X197899200Y-82306500D01*
X197999200Y-82206500D02*
X197999200Y-83606500D01*
X197999200Y-83606500D02*
X196199200Y-83606500D01*
X198099200Y-82106500D02*
X196199200Y-82106500D01*
X198099200Y-83706500D02*
X198099200Y-82106500D01*
X198099200Y-84056500D02*
X190299200Y-84056500D01*
X198199200Y-82106500D02*
X198199200Y-83806500D01*
X198199200Y-83806500D02*
X196199200Y-83806500D01*
X198799200Y-83006500D02*
X198799200Y-83106500D01*
X198799200Y-83106500D02*
X198799200Y-83206500D01*
X199082043Y-83006500D02*
G75*
G02*
X198516357Y-83006500I-282843J0D01*
G01*
X198516357Y-83006500D02*
G75*
G02*
X199082043Y-83006500I282843J0D01*
G01*
X199022807Y-83006500D02*
G75*
G02*
X198575593Y-83006500I-223607J0D01*
G01*
X198575593Y-83006500D02*
G75*
G02*
X199022807Y-83006500I223607J0D01*
G01*
X198940621Y-83006500D02*
G75*
G02*
X198657779Y-83006500I-141421J0D01*
G01*
X198657779Y-83006500D02*
G75*
G02*
X198940621Y-83006500I141421J0D01*
G01*
X198899200Y-83006500D02*
G75*
G02*
X198699200Y-83006500I-100000J0D01*
G01*
X198699200Y-83006500D02*
G75*
G02*
X198899200Y-83006500I100000J0D01*
G01*
X171210000Y-73150000D02*
X179010000Y-73150000D01*
X177110000Y-74900000D02*
X177110000Y-75000000D01*
X177110000Y-75000000D02*
X178810000Y-75000000D01*
X177110000Y-75000000D02*
X178910000Y-75000000D01*
X177110000Y-75100000D02*
X177110000Y-75000000D01*
X177110000Y-76300000D02*
X178810000Y-76300000D01*
X177110000Y-76400000D02*
X177110000Y-76300000D01*
X177110000Y-76400000D02*
X177110000Y-76500000D01*
X177110000Y-76500000D02*
X179010000Y-76500000D01*
X177110000Y-76600000D02*
X177110000Y-76500000D01*
X178810000Y-74900000D02*
X179110000Y-74900000D01*
X178810000Y-75000000D02*
X178810000Y-74900000D01*
X178810000Y-75100000D02*
X177110000Y-75100000D01*
X178810000Y-76300000D02*
X178810000Y-75100000D01*
X178910000Y-75000000D02*
X178910000Y-76400000D01*
X178910000Y-76400000D02*
X177110000Y-76400000D01*
X179010000Y-74900000D02*
X177110000Y-74900000D01*
X179010000Y-76500000D02*
X179010000Y-74900000D01*
X179010000Y-76850000D02*
X171210000Y-76850000D01*
X179110000Y-74900000D02*
X179110000Y-76600000D01*
X179110000Y-76600000D02*
X177110000Y-76600000D01*
X179710000Y-75800000D02*
X179710000Y-75900000D01*
X179710000Y-75900000D02*
X179710000Y-76000000D01*
X179992843Y-75800000D02*
G75*
G02*
X179427157Y-75800000I-282843J0D01*
G01*
X179427157Y-75800000D02*
G75*
G02*
X179992843Y-75800000I282843J0D01*
G01*
X179933607Y-75800000D02*
G75*
G02*
X179486393Y-75800000I-223607J0D01*
G01*
X179486393Y-75800000D02*
G75*
G02*
X179933607Y-75800000I223607J0D01*
G01*
X179851421Y-75800000D02*
G75*
G02*
X179568579Y-75800000I-141421J0D01*
G01*
X179568579Y-75800000D02*
G75*
G02*
X179851421Y-75800000I141421J0D01*
G01*
X179810000Y-75800000D02*
G75*
G02*
X179610000Y-75800000I-100000J0D01*
G01*
X179610000Y-75800000D02*
G75*
G02*
X179810000Y-75800000I100000J0D01*
G01*
X151953600Y-68694600D02*
X159753600Y-68694600D01*
X157853600Y-70444600D02*
X157853600Y-70544600D01*
X157853600Y-70544600D02*
X159553600Y-70544600D01*
X157853600Y-70544600D02*
X159653600Y-70544600D01*
X157853600Y-70644600D02*
X157853600Y-70544600D01*
X157853600Y-71844600D02*
X159553600Y-71844600D01*
X157853600Y-71944600D02*
X157853600Y-71844600D01*
X157853600Y-71944600D02*
X157853600Y-72044600D01*
X157853600Y-72044600D02*
X159753600Y-72044600D01*
X157853600Y-72144600D02*
X157853600Y-72044600D01*
X159553600Y-70444600D02*
X159853600Y-70444600D01*
X159553600Y-70544600D02*
X159553600Y-70444600D01*
X159553600Y-70644600D02*
X157853600Y-70644600D01*
X159553600Y-71844600D02*
X159553600Y-70644600D01*
X159653600Y-70544600D02*
X159653600Y-71944600D01*
X159653600Y-71944600D02*
X157853600Y-71944600D01*
X159753600Y-70444600D02*
X157853600Y-70444600D01*
X159753600Y-72044600D02*
X159753600Y-70444600D01*
X159753600Y-72394600D02*
X151953600Y-72394600D01*
X159853600Y-70444600D02*
X159853600Y-72144600D01*
X159853600Y-72144600D02*
X157853600Y-72144600D01*
X160453600Y-71344600D02*
X160453600Y-71444600D01*
X160453600Y-71444600D02*
X160453600Y-71544600D01*
X160736443Y-71344600D02*
G75*
G02*
X160170757Y-71344600I-282843J0D01*
G01*
X160170757Y-71344600D02*
G75*
G02*
X160736443Y-71344600I282843J0D01*
G01*
X160677207Y-71344600D02*
G75*
G02*
X160229993Y-71344600I-223607J0D01*
G01*
X160229993Y-71344600D02*
G75*
G02*
X160677207Y-71344600I223607J0D01*
G01*
X160595021Y-71344600D02*
G75*
G02*
X160312179Y-71344600I-141421J0D01*
G01*
X160312179Y-71344600D02*
G75*
G02*
X160595021Y-71344600I141421J0D01*
G01*
X160553600Y-71344600D02*
G75*
G02*
X160353600Y-71344600I-100000J0D01*
G01*
X160353600Y-71344600D02*
G75*
G02*
X160553600Y-71344600I100000J0D01*
G01*
X133100000Y-71150000D02*
X140900000Y-71150000D01*
X139000000Y-72900000D02*
X139000000Y-73000000D01*
X139000000Y-73000000D02*
X140700000Y-73000000D01*
X139000000Y-73000000D02*
X140800000Y-73000000D01*
X139000000Y-73100000D02*
X139000000Y-73000000D01*
X139000000Y-74300000D02*
X140700000Y-74300000D01*
X139000000Y-74400000D02*
X139000000Y-74300000D01*
X139000000Y-74400000D02*
X139000000Y-74500000D01*
X139000000Y-74500000D02*
X140900000Y-74500000D01*
X139000000Y-74600000D02*
X139000000Y-74500000D01*
X140700000Y-72900000D02*
X141000000Y-72900000D01*
X140700000Y-73000000D02*
X140700000Y-72900000D01*
X140700000Y-73100000D02*
X139000000Y-73100000D01*
X140700000Y-74300000D02*
X140700000Y-73100000D01*
X140800000Y-73000000D02*
X140800000Y-74400000D01*
X140800000Y-74400000D02*
X139000000Y-74400000D01*
X140900000Y-72900000D02*
X139000000Y-72900000D01*
X140900000Y-74500000D02*
X140900000Y-72900000D01*
X140900000Y-74850000D02*
X133100000Y-74850000D01*
X141000000Y-72900000D02*
X141000000Y-74600000D01*
X141000000Y-74600000D02*
X139000000Y-74600000D01*
X141600000Y-73800000D02*
X141600000Y-73900000D01*
X141600000Y-73900000D02*
X141600000Y-74000000D01*
X141882843Y-73800000D02*
G75*
G02*
X141317157Y-73800000I-282843J0D01*
G01*
X141317157Y-73800000D02*
G75*
G02*
X141882843Y-73800000I282843J0D01*
G01*
X141823607Y-73800000D02*
G75*
G02*
X141376393Y-73800000I-223607J0D01*
G01*
X141376393Y-73800000D02*
G75*
G02*
X141823607Y-73800000I223607J0D01*
G01*
X141741421Y-73800000D02*
G75*
G02*
X141458579Y-73800000I-141421J0D01*
G01*
X141458579Y-73800000D02*
G75*
G02*
X141741421Y-73800000I141421J0D01*
G01*
X141700000Y-73800000D02*
G75*
G02*
X141500000Y-73800000I-100000J0D01*
G01*
X141500000Y-73800000D02*
G75*
G02*
X141700000Y-73800000I100000J0D01*
G01*
X114100000Y-73650000D02*
X121900000Y-73650000D01*
X120000000Y-75400000D02*
X120000000Y-75500000D01*
X120000000Y-75500000D02*
X121700000Y-75500000D01*
X120000000Y-75500000D02*
X121800000Y-75500000D01*
X120000000Y-75600000D02*
X120000000Y-75500000D01*
X120000000Y-76800000D02*
X121700000Y-76800000D01*
X120000000Y-76900000D02*
X120000000Y-76800000D01*
X120000000Y-76900000D02*
X120000000Y-77000000D01*
X120000000Y-77000000D02*
X121900000Y-77000000D01*
X120000000Y-77100000D02*
X120000000Y-77000000D01*
X121700000Y-75400000D02*
X122000000Y-75400000D01*
X121700000Y-75500000D02*
X121700000Y-75400000D01*
X121700000Y-75600000D02*
X120000000Y-75600000D01*
X121700000Y-76800000D02*
X121700000Y-75600000D01*
X121800000Y-75500000D02*
X121800000Y-76900000D01*
X121800000Y-76900000D02*
X120000000Y-76900000D01*
X121900000Y-75400000D02*
X120000000Y-75400000D01*
X121900000Y-77000000D02*
X121900000Y-75400000D01*
X121900000Y-77350000D02*
X114100000Y-77350000D01*
X122000000Y-75400000D02*
X122000000Y-77100000D01*
X122000000Y-77100000D02*
X120000000Y-77100000D01*
X122600000Y-76300000D02*
X122600000Y-76400000D01*
X122600000Y-76400000D02*
X122600000Y-76500000D01*
X122882843Y-76300000D02*
G75*
G02*
X122317157Y-76300000I-282843J0D01*
G01*
X122317157Y-76300000D02*
G75*
G02*
X122882843Y-76300000I282843J0D01*
G01*
X122823607Y-76300000D02*
G75*
G02*
X122376393Y-76300000I-223607J0D01*
G01*
X122376393Y-76300000D02*
G75*
G02*
X122823607Y-76300000I223607J0D01*
G01*
X122741421Y-76300000D02*
G75*
G02*
X122458579Y-76300000I-141421J0D01*
G01*
X122458579Y-76300000D02*
G75*
G02*
X122741421Y-76300000I141421J0D01*
G01*
X122700000Y-76300000D02*
G75*
G02*
X122500000Y-76300000I-100000J0D01*
G01*
X122500000Y-76300000D02*
G75*
G02*
X122700000Y-76300000I100000J0D01*
G01*
X114105500Y-92808100D02*
X121905500Y-92808100D01*
X120005500Y-94558100D02*
X120005500Y-94658100D01*
X120005500Y-94658100D02*
X121705500Y-94658100D01*
X120005500Y-94658100D02*
X121805500Y-94658100D01*
X120005500Y-94758100D02*
X120005500Y-94658100D01*
X120005500Y-95958100D02*
X121705500Y-95958100D01*
X120005500Y-96058100D02*
X120005500Y-95958100D01*
X120005500Y-96058100D02*
X120005500Y-96158100D01*
X120005500Y-96158100D02*
X121905500Y-96158100D01*
X120005500Y-96258100D02*
X120005500Y-96158100D01*
X121705500Y-94558100D02*
X122005500Y-94558100D01*
X121705500Y-94658100D02*
X121705500Y-94558100D01*
X121705500Y-94758100D02*
X120005500Y-94758100D01*
X121705500Y-95958100D02*
X121705500Y-94758100D01*
X121805500Y-94658100D02*
X121805500Y-96058100D01*
X121805500Y-96058100D02*
X120005500Y-96058100D01*
X121905500Y-94558100D02*
X120005500Y-94558100D01*
X121905500Y-96158100D02*
X121905500Y-94558100D01*
X121905500Y-96508100D02*
X114105500Y-96508100D01*
X122005500Y-94558100D02*
X122005500Y-96258100D01*
X122005500Y-96258100D02*
X120005500Y-96258100D01*
X122605500Y-95458100D02*
X122605500Y-95558100D01*
X122605500Y-95558100D02*
X122605500Y-95658100D01*
X122888343Y-95458100D02*
G75*
G02*
X122322657Y-95458100I-282843J0D01*
G01*
X122322657Y-95458100D02*
G75*
G02*
X122888343Y-95458100I282843J0D01*
G01*
X122829107Y-95458100D02*
G75*
G02*
X122381893Y-95458100I-223607J0D01*
G01*
X122381893Y-95458100D02*
G75*
G02*
X122829107Y-95458100I223607J0D01*
G01*
X122746921Y-95458100D02*
G75*
G02*
X122464079Y-95458100I-141421J0D01*
G01*
X122464079Y-95458100D02*
G75*
G02*
X122746921Y-95458100I141421J0D01*
G01*
X122705500Y-95458100D02*
G75*
G02*
X122505500Y-95458100I-100000J0D01*
G01*
X122505500Y-95458100D02*
G75*
G02*
X122705500Y-95458100I100000J0D01*
G01*
X133100000Y-90650000D02*
X140900000Y-90650000D01*
X139000000Y-92400000D02*
X139000000Y-92500000D01*
X139000000Y-92500000D02*
X140700000Y-92500000D01*
X139000000Y-92500000D02*
X140800000Y-92500000D01*
X139000000Y-92600000D02*
X139000000Y-92500000D01*
X139000000Y-93800000D02*
X140700000Y-93800000D01*
X139000000Y-93900000D02*
X139000000Y-93800000D01*
X139000000Y-93900000D02*
X139000000Y-94000000D01*
X139000000Y-94000000D02*
X140900000Y-94000000D01*
X139000000Y-94100000D02*
X139000000Y-94000000D01*
X140700000Y-92400000D02*
X141000000Y-92400000D01*
X140700000Y-92500000D02*
X140700000Y-92400000D01*
X140700000Y-92600000D02*
X139000000Y-92600000D01*
X140700000Y-93800000D02*
X140700000Y-92600000D01*
X140800000Y-92500000D02*
X140800000Y-93900000D01*
X140800000Y-93900000D02*
X139000000Y-93900000D01*
X140900000Y-92400000D02*
X139000000Y-92400000D01*
X140900000Y-94000000D02*
X140900000Y-92400000D01*
X140900000Y-94350000D02*
X133100000Y-94350000D01*
X141000000Y-92400000D02*
X141000000Y-94100000D01*
X141000000Y-94100000D02*
X139000000Y-94100000D01*
X141600000Y-93300000D02*
X141600000Y-93400000D01*
X141600000Y-93400000D02*
X141600000Y-93500000D01*
X141882843Y-93300000D02*
G75*
G02*
X141317157Y-93300000I-282843J0D01*
G01*
X141317157Y-93300000D02*
G75*
G02*
X141882843Y-93300000I282843J0D01*
G01*
X141823607Y-93300000D02*
G75*
G02*
X141376393Y-93300000I-223607J0D01*
G01*
X141376393Y-93300000D02*
G75*
G02*
X141823607Y-93300000I223607J0D01*
G01*
X141741421Y-93300000D02*
G75*
G02*
X141458579Y-93300000I-141421J0D01*
G01*
X141458579Y-93300000D02*
G75*
G02*
X141741421Y-93300000I141421J0D01*
G01*
X141700000Y-93300000D02*
G75*
G02*
X141500000Y-93300000I-100000J0D01*
G01*
X141500000Y-93300000D02*
G75*
G02*
X141700000Y-93300000I100000J0D01*
G01*
X152600000Y-87650000D02*
X160400000Y-87650000D01*
X158500000Y-89400000D02*
X158500000Y-89500000D01*
X158500000Y-89500000D02*
X160200000Y-89500000D01*
X158500000Y-89500000D02*
X160300000Y-89500000D01*
X158500000Y-89600000D02*
X158500000Y-89500000D01*
X158500000Y-90800000D02*
X160200000Y-90800000D01*
X158500000Y-90900000D02*
X158500000Y-90800000D01*
X158500000Y-90900000D02*
X158500000Y-91000000D01*
X158500000Y-91000000D02*
X160400000Y-91000000D01*
X158500000Y-91100000D02*
X158500000Y-91000000D01*
X160200000Y-89400000D02*
X160500000Y-89400000D01*
X160200000Y-89500000D02*
X160200000Y-89400000D01*
X160200000Y-89600000D02*
X158500000Y-89600000D01*
X160200000Y-90800000D02*
X160200000Y-89600000D01*
X160300000Y-89500000D02*
X160300000Y-90900000D01*
X160300000Y-90900000D02*
X158500000Y-90900000D01*
X160400000Y-89400000D02*
X158500000Y-89400000D01*
X160400000Y-91000000D02*
X160400000Y-89400000D01*
X160400000Y-91350000D02*
X152600000Y-91350000D01*
X160500000Y-89400000D02*
X160500000Y-91100000D01*
X160500000Y-91100000D02*
X158500000Y-91100000D01*
X161100000Y-90300000D02*
X161100000Y-90400000D01*
X161100000Y-90400000D02*
X161100000Y-90500000D01*
X161382843Y-90300000D02*
G75*
G02*
X160817157Y-90300000I-282843J0D01*
G01*
X160817157Y-90300000D02*
G75*
G02*
X161382843Y-90300000I282843J0D01*
G01*
X161323607Y-90300000D02*
G75*
G02*
X160876393Y-90300000I-223607J0D01*
G01*
X160876393Y-90300000D02*
G75*
G02*
X161323607Y-90300000I223607J0D01*
G01*
X161241421Y-90300000D02*
G75*
G02*
X160958579Y-90300000I-141421J0D01*
G01*
X160958579Y-90300000D02*
G75*
G02*
X161241421Y-90300000I141421J0D01*
G01*
X161200000Y-90300000D02*
G75*
G02*
X161000000Y-90300000I-100000J0D01*
G01*
X161000000Y-90300000D02*
G75*
G02*
X161200000Y-90300000I100000J0D01*
G01*
X171100000Y-92650000D02*
X178900000Y-92650000D01*
X177000000Y-94400000D02*
X177000000Y-94500000D01*
X177000000Y-94500000D02*
X178700000Y-94500000D01*
X177000000Y-94500000D02*
X178800000Y-94500000D01*
X177000000Y-94600000D02*
X177000000Y-94500000D01*
X177000000Y-95800000D02*
X178700000Y-95800000D01*
X177000000Y-95900000D02*
X177000000Y-95800000D01*
X177000000Y-95900000D02*
X177000000Y-96000000D01*
X177000000Y-96000000D02*
X178900000Y-96000000D01*
X177000000Y-96100000D02*
X177000000Y-96000000D01*
X178700000Y-94400000D02*
X179000000Y-94400000D01*
X178700000Y-94500000D02*
X178700000Y-94400000D01*
X178700000Y-94600000D02*
X177000000Y-94600000D01*
X178700000Y-95800000D02*
X178700000Y-94600000D01*
X178800000Y-94500000D02*
X178800000Y-95900000D01*
X178800000Y-95900000D02*
X177000000Y-95900000D01*
X178900000Y-94400000D02*
X177000000Y-94400000D01*
X178900000Y-96000000D02*
X178900000Y-94400000D01*
X178900000Y-96350000D02*
X171100000Y-96350000D01*
X179000000Y-94400000D02*
X179000000Y-96100000D01*
X179000000Y-96100000D02*
X177000000Y-96100000D01*
X179600000Y-95300000D02*
X179600000Y-95400000D01*
X179600000Y-95400000D02*
X179600000Y-95500000D01*
X179882843Y-95300000D02*
G75*
G02*
X179317157Y-95300000I-282843J0D01*
G01*
X179317157Y-95300000D02*
G75*
G02*
X179882843Y-95300000I282843J0D01*
G01*
X179823607Y-95300000D02*
G75*
G02*
X179376393Y-95300000I-223607J0D01*
G01*
X179376393Y-95300000D02*
G75*
G02*
X179823607Y-95300000I223607J0D01*
G01*
X179741421Y-95300000D02*
G75*
G02*
X179458579Y-95300000I-141421J0D01*
G01*
X179458579Y-95300000D02*
G75*
G02*
X179741421Y-95300000I141421J0D01*
G01*
X179700000Y-95300000D02*
G75*
G02*
X179500000Y-95300000I-100000J0D01*
G01*
X179500000Y-95300000D02*
G75*
G02*
X179700000Y-95300000I100000J0D01*
G01*
X190213300Y-99404100D02*
X198013300Y-99404100D01*
X196113300Y-101154100D02*
X196113300Y-101254100D01*
X196113300Y-101254100D02*
X197813300Y-101254100D01*
X196113300Y-101254100D02*
X197913300Y-101254100D01*
X196113300Y-101354100D02*
X196113300Y-101254100D01*
X196113300Y-102554100D02*
X197813300Y-102554100D01*
X196113300Y-102654100D02*
X196113300Y-102554100D01*
X196113300Y-102654100D02*
X196113300Y-102754100D01*
X196113300Y-102754100D02*
X198013300Y-102754100D01*
X196113300Y-102854100D02*
X196113300Y-102754100D01*
X197813300Y-101154100D02*
X198113300Y-101154100D01*
X197813300Y-101254100D02*
X197813300Y-101154100D01*
X197813300Y-101354100D02*
X196113300Y-101354100D01*
X197813300Y-102554100D02*
X197813300Y-101354100D01*
X197913300Y-101254100D02*
X197913300Y-102654100D01*
X197913300Y-102654100D02*
X196113300Y-102654100D01*
X198013300Y-101154100D02*
X196113300Y-101154100D01*
X198013300Y-102754100D02*
X198013300Y-101154100D01*
X198013300Y-103104100D02*
X190213300Y-103104100D01*
X198113300Y-101154100D02*
X198113300Y-102854100D01*
X198113300Y-102854100D02*
X196113300Y-102854100D01*
X198713300Y-102054100D02*
X198713300Y-102154100D01*
X198713300Y-102154100D02*
X198713300Y-102254100D01*
X198996143Y-102054100D02*
G75*
G02*
X198430457Y-102054100I-282843J0D01*
G01*
X198430457Y-102054100D02*
G75*
G02*
X198996143Y-102054100I282843J0D01*
G01*
X198936907Y-102054100D02*
G75*
G02*
X198489693Y-102054100I-223607J0D01*
G01*
X198489693Y-102054100D02*
G75*
G02*
X198936907Y-102054100I223607J0D01*
G01*
X198854721Y-102054100D02*
G75*
G02*
X198571879Y-102054100I-141421J0D01*
G01*
X198571879Y-102054100D02*
G75*
G02*
X198854721Y-102054100I141421J0D01*
G01*
X198813300Y-102054100D02*
G75*
G02*
X198613300Y-102054100I-100000J0D01*
G01*
X198613300Y-102054100D02*
G75*
G02*
X198813300Y-102054100I100000J0D01*
G01*
X209488200Y-99502200D02*
X217288200Y-99502200D01*
X215388200Y-101252200D02*
X215388200Y-101352200D01*
X215388200Y-101352200D02*
X217088200Y-101352200D01*
X215388200Y-101352200D02*
X217188200Y-101352200D01*
X215388200Y-101452200D02*
X215388200Y-101352200D01*
X215388200Y-102652200D02*
X217088200Y-102652200D01*
X215388200Y-102752200D02*
X215388200Y-102652200D01*
X215388200Y-102752200D02*
X215388200Y-102852200D01*
X215388200Y-102852200D02*
X217288200Y-102852200D01*
X215388200Y-102952200D02*
X215388200Y-102852200D01*
X217088200Y-101252200D02*
X217388200Y-101252200D01*
X217088200Y-101352200D02*
X217088200Y-101252200D01*
X217088200Y-101452200D02*
X215388200Y-101452200D01*
X217088200Y-102652200D02*
X217088200Y-101452200D01*
X217188200Y-101352200D02*
X217188200Y-102752200D01*
X217188200Y-102752200D02*
X215388200Y-102752200D01*
X217288200Y-101252200D02*
X215388200Y-101252200D01*
X217288200Y-102852200D02*
X217288200Y-101252200D01*
X217288200Y-103202200D02*
X209488200Y-103202200D01*
X217388200Y-101252200D02*
X217388200Y-102952200D01*
X217388200Y-102952200D02*
X215388200Y-102952200D01*
X217988200Y-102152200D02*
X217988200Y-102252200D01*
X217988200Y-102252200D02*
X217988200Y-102352200D01*
X218271043Y-102152200D02*
G75*
G02*
X217705357Y-102152200I-282843J0D01*
G01*
X217705357Y-102152200D02*
G75*
G02*
X218271043Y-102152200I282843J0D01*
G01*
X218211807Y-102152200D02*
G75*
G02*
X217764593Y-102152200I-223607J0D01*
G01*
X217764593Y-102152200D02*
G75*
G02*
X218211807Y-102152200I223607J0D01*
G01*
X218129621Y-102152200D02*
G75*
G02*
X217846779Y-102152200I-141421J0D01*
G01*
X217846779Y-102152200D02*
G75*
G02*
X218129621Y-102152200I141421J0D01*
G01*
X218088200Y-102152200D02*
G75*
G02*
X217888200Y-102152200I-100000J0D01*
G01*
X217888200Y-102152200D02*
G75*
G02*
X218088200Y-102152200I100000J0D01*
G01*
X209310000Y-118567700D02*
X217110000Y-118567700D01*
X215210000Y-120317700D02*
X215210000Y-120417700D01*
X215210000Y-120417700D02*
X216910000Y-120417700D01*
X215210000Y-120417700D02*
X217010000Y-120417700D01*
X215210000Y-120517700D02*
X215210000Y-120417700D01*
X215210000Y-121717700D02*
X216910000Y-121717700D01*
X215210000Y-121817700D02*
X215210000Y-121717700D01*
X215210000Y-121817700D02*
X215210000Y-121917700D01*
X215210000Y-121917700D02*
X217110000Y-121917700D01*
X215210000Y-122017700D02*
X215210000Y-121917700D01*
X216910000Y-120317700D02*
X217210000Y-120317700D01*
X216910000Y-120417700D02*
X216910000Y-120317700D01*
X216910000Y-120517700D02*
X215210000Y-120517700D01*
X216910000Y-121717700D02*
X216910000Y-120517700D01*
X217010000Y-120417700D02*
X217010000Y-121817700D01*
X217010000Y-121817700D02*
X215210000Y-121817700D01*
X217110000Y-120317700D02*
X215210000Y-120317700D01*
X217110000Y-121917700D02*
X217110000Y-120317700D01*
X217110000Y-122267700D02*
X209310000Y-122267700D01*
X217210000Y-120317700D02*
X217210000Y-122017700D01*
X217210000Y-122017700D02*
X215210000Y-122017700D01*
X217810000Y-121217700D02*
X217810000Y-121317700D01*
X217810000Y-121317700D02*
X217810000Y-121417700D01*
X218092843Y-121217700D02*
G75*
G02*
X217527157Y-121217700I-282843J0D01*
G01*
X217527157Y-121217700D02*
G75*
G02*
X218092843Y-121217700I282843J0D01*
G01*
X218033607Y-121217700D02*
G75*
G02*
X217586393Y-121217700I-223607J0D01*
G01*
X217586393Y-121217700D02*
G75*
G02*
X218033607Y-121217700I223607J0D01*
G01*
X217951421Y-121217700D02*
G75*
G02*
X217668579Y-121217700I-141421J0D01*
G01*
X217668579Y-121217700D02*
G75*
G02*
X217951421Y-121217700I141421J0D01*
G01*
X217910000Y-121217700D02*
G75*
G02*
X217710000Y-121217700I-100000J0D01*
G01*
X217710000Y-121217700D02*
G75*
G02*
X217910000Y-121217700I100000J0D01*
G01*
X190100000Y-118150000D02*
X197900000Y-118150000D01*
X196000000Y-119900000D02*
X196000000Y-120000000D01*
X196000000Y-120000000D02*
X197700000Y-120000000D01*
X196000000Y-120000000D02*
X197800000Y-120000000D01*
X196000000Y-120100000D02*
X196000000Y-120000000D01*
X196000000Y-121300000D02*
X197700000Y-121300000D01*
X196000000Y-121400000D02*
X196000000Y-121300000D01*
X196000000Y-121400000D02*
X196000000Y-121500000D01*
X196000000Y-121500000D02*
X197900000Y-121500000D01*
X196000000Y-121600000D02*
X196000000Y-121500000D01*
X197700000Y-119900000D02*
X198000000Y-119900000D01*
X197700000Y-120000000D02*
X197700000Y-119900000D01*
X197700000Y-120100000D02*
X196000000Y-120100000D01*
X197700000Y-121300000D02*
X197700000Y-120100000D01*
X197800000Y-120000000D02*
X197800000Y-121400000D01*
X197800000Y-121400000D02*
X196000000Y-121400000D01*
X197900000Y-119900000D02*
X196000000Y-119900000D01*
X197900000Y-121500000D02*
X197900000Y-119900000D01*
X197900000Y-121850000D02*
X190100000Y-121850000D01*
X198000000Y-119900000D02*
X198000000Y-121600000D01*
X198000000Y-121600000D02*
X196000000Y-121600000D01*
X198600000Y-120800000D02*
X198600000Y-120900000D01*
X198600000Y-120900000D02*
X198600000Y-121000000D01*
X198882843Y-120800000D02*
G75*
G02*
X198317157Y-120800000I-282843J0D01*
G01*
X198317157Y-120800000D02*
G75*
G02*
X198882843Y-120800000I282843J0D01*
G01*
X198823607Y-120800000D02*
G75*
G02*
X198376393Y-120800000I-223607J0D01*
G01*
X198376393Y-120800000D02*
G75*
G02*
X198823607Y-120800000I223607J0D01*
G01*
X198741421Y-120800000D02*
G75*
G02*
X198458579Y-120800000I-141421J0D01*
G01*
X198458579Y-120800000D02*
G75*
G02*
X198741421Y-120800000I141421J0D01*
G01*
X198700000Y-120800000D02*
G75*
G02*
X198500000Y-120800000I-100000J0D01*
G01*
X198500000Y-120800000D02*
G75*
G02*
X198700000Y-120800000I100000J0D01*
G01*
X209350000Y-137350000D02*
X217150000Y-137350000D01*
X215250000Y-139100000D02*
X215250000Y-139200000D01*
X215250000Y-139200000D02*
X216950000Y-139200000D01*
X215250000Y-139200000D02*
X217050000Y-139200000D01*
X215250000Y-139300000D02*
X215250000Y-139200000D01*
X215250000Y-140500000D02*
X216950000Y-140500000D01*
X215250000Y-140600000D02*
X215250000Y-140500000D01*
X215250000Y-140600000D02*
X215250000Y-140700000D01*
X215250000Y-140700000D02*
X217150000Y-140700000D01*
X215250000Y-140800000D02*
X215250000Y-140700000D01*
X216950000Y-139100000D02*
X217250000Y-139100000D01*
X216950000Y-139200000D02*
X216950000Y-139100000D01*
X216950000Y-139300000D02*
X215250000Y-139300000D01*
X216950000Y-140500000D02*
X216950000Y-139300000D01*
X217050000Y-139200000D02*
X217050000Y-140600000D01*
X217050000Y-140600000D02*
X215250000Y-140600000D01*
X217150000Y-139100000D02*
X215250000Y-139100000D01*
X217150000Y-140700000D02*
X217150000Y-139100000D01*
X217150000Y-141050000D02*
X209350000Y-141050000D01*
X217250000Y-139100000D02*
X217250000Y-140800000D01*
X217250000Y-140800000D02*
X215250000Y-140800000D01*
X217850000Y-140000000D02*
X217850000Y-140100000D01*
X217850000Y-140100000D02*
X217850000Y-140200000D01*
X218132843Y-140000000D02*
G75*
G02*
X217567157Y-140000000I-282843J0D01*
G01*
X217567157Y-140000000D02*
G75*
G02*
X218132843Y-140000000I282843J0D01*
G01*
X218073607Y-140000000D02*
G75*
G02*
X217626393Y-140000000I-223607J0D01*
G01*
X217626393Y-140000000D02*
G75*
G02*
X218073607Y-140000000I223607J0D01*
G01*
X217991421Y-140000000D02*
G75*
G02*
X217708579Y-140000000I-141421J0D01*
G01*
X217708579Y-140000000D02*
G75*
G02*
X217991421Y-140000000I141421J0D01*
G01*
X217950000Y-140000000D02*
G75*
G02*
X217750000Y-140000000I-100000J0D01*
G01*
X217750000Y-140000000D02*
G75*
G02*
X217950000Y-140000000I100000J0D01*
G01*
X190260000Y-138150000D02*
X198060000Y-138150000D01*
X196160000Y-139900000D02*
X196160000Y-140000000D01*
X196160000Y-140000000D02*
X197860000Y-140000000D01*
X196160000Y-140000000D02*
X197960000Y-140000000D01*
X196160000Y-140100000D02*
X196160000Y-140000000D01*
X196160000Y-141300000D02*
X197860000Y-141300000D01*
X196160000Y-141400000D02*
X196160000Y-141300000D01*
X196160000Y-141400000D02*
X196160000Y-141500000D01*
X196160000Y-141500000D02*
X198060000Y-141500000D01*
X196160000Y-141600000D02*
X196160000Y-141500000D01*
X197860000Y-139900000D02*
X198160000Y-139900000D01*
X197860000Y-140000000D02*
X197860000Y-139900000D01*
X197860000Y-140100000D02*
X196160000Y-140100000D01*
X197860000Y-141300000D02*
X197860000Y-140100000D01*
X197960000Y-140000000D02*
X197960000Y-141400000D01*
X197960000Y-141400000D02*
X196160000Y-141400000D01*
X198060000Y-139900000D02*
X196160000Y-139900000D01*
X198060000Y-141500000D02*
X198060000Y-139900000D01*
X198060000Y-141850000D02*
X190260000Y-141850000D01*
X198160000Y-139900000D02*
X198160000Y-141600000D01*
X198160000Y-141600000D02*
X196160000Y-141600000D01*
X198760000Y-140800000D02*
X198760000Y-140900000D01*
X198760000Y-140900000D02*
X198760000Y-141000000D01*
X199042843Y-140800000D02*
G75*
G02*
X198477157Y-140800000I-282843J0D01*
G01*
X198477157Y-140800000D02*
G75*
G02*
X199042843Y-140800000I282843J0D01*
G01*
X198983607Y-140800000D02*
G75*
G02*
X198536393Y-140800000I-223607J0D01*
G01*
X198536393Y-140800000D02*
G75*
G02*
X198983607Y-140800000I223607J0D01*
G01*
X198901421Y-140800000D02*
G75*
G02*
X198618579Y-140800000I-141421J0D01*
G01*
X198618579Y-140800000D02*
G75*
G02*
X198901421Y-140800000I141421J0D01*
G01*
X198860000Y-140800000D02*
G75*
G02*
X198660000Y-140800000I-100000J0D01*
G01*
X198660000Y-140800000D02*
G75*
G02*
X198860000Y-140800000I100000J0D01*
G01*
X171100000Y-111650000D02*
X178900000Y-111650000D01*
X177000000Y-113400000D02*
X177000000Y-113500000D01*
X177000000Y-113500000D02*
X178700000Y-113500000D01*
X177000000Y-113500000D02*
X178800000Y-113500000D01*
X177000000Y-113600000D02*
X177000000Y-113500000D01*
X177000000Y-114800000D02*
X178700000Y-114800000D01*
X177000000Y-114900000D02*
X177000000Y-114800000D01*
X177000000Y-114900000D02*
X177000000Y-115000000D01*
X177000000Y-115000000D02*
X178900000Y-115000000D01*
X177000000Y-115100000D02*
X177000000Y-115000000D01*
X178700000Y-113400000D02*
X179000000Y-113400000D01*
X178700000Y-113500000D02*
X178700000Y-113400000D01*
X178700000Y-113600000D02*
X177000000Y-113600000D01*
X178700000Y-114800000D02*
X178700000Y-113600000D01*
X178800000Y-113500000D02*
X178800000Y-114900000D01*
X178800000Y-114900000D02*
X177000000Y-114900000D01*
X178900000Y-113400000D02*
X177000000Y-113400000D01*
X178900000Y-115000000D02*
X178900000Y-113400000D01*
X178900000Y-115350000D02*
X171100000Y-115350000D01*
X179000000Y-113400000D02*
X179000000Y-115100000D01*
X179000000Y-115100000D02*
X177000000Y-115100000D01*
X179600000Y-114300000D02*
X179600000Y-114400000D01*
X179600000Y-114400000D02*
X179600000Y-114500000D01*
X179882843Y-114300000D02*
G75*
G02*
X179317157Y-114300000I-282843J0D01*
G01*
X179317157Y-114300000D02*
G75*
G02*
X179882843Y-114300000I282843J0D01*
G01*
X179823607Y-114300000D02*
G75*
G02*
X179376393Y-114300000I-223607J0D01*
G01*
X179376393Y-114300000D02*
G75*
G02*
X179823607Y-114300000I223607J0D01*
G01*
X179741421Y-114300000D02*
G75*
G02*
X179458579Y-114300000I-141421J0D01*
G01*
X179458579Y-114300000D02*
G75*
G02*
X179741421Y-114300000I141421J0D01*
G01*
X179700000Y-114300000D02*
G75*
G02*
X179500000Y-114300000I-100000J0D01*
G01*
X179500000Y-114300000D02*
G75*
G02*
X179700000Y-114300000I100000J0D01*
G01*
X152217200Y-106757200D02*
X160017200Y-106757200D01*
X158117200Y-108507200D02*
X158117200Y-108607200D01*
X158117200Y-108607200D02*
X159817200Y-108607200D01*
X158117200Y-108607200D02*
X159917200Y-108607200D01*
X158117200Y-108707200D02*
X158117200Y-108607200D01*
X158117200Y-109907200D02*
X159817200Y-109907200D01*
X158117200Y-110007200D02*
X158117200Y-109907200D01*
X158117200Y-110007200D02*
X158117200Y-110107200D01*
X158117200Y-110107200D02*
X160017200Y-110107200D01*
X158117200Y-110207200D02*
X158117200Y-110107200D01*
X159817200Y-108507200D02*
X160117200Y-108507200D01*
X159817200Y-108607200D02*
X159817200Y-108507200D01*
X159817200Y-108707200D02*
X158117200Y-108707200D01*
X159817200Y-109907200D02*
X159817200Y-108707200D01*
X159917200Y-108607200D02*
X159917200Y-110007200D01*
X159917200Y-110007200D02*
X158117200Y-110007200D01*
X160017200Y-108507200D02*
X158117200Y-108507200D01*
X160017200Y-110107200D02*
X160017200Y-108507200D01*
X160017200Y-110457200D02*
X152217200Y-110457200D01*
X160117200Y-108507200D02*
X160117200Y-110207200D01*
X160117200Y-110207200D02*
X158117200Y-110207200D01*
X160717200Y-109407200D02*
X160717200Y-109507200D01*
X160717200Y-109507200D02*
X160717200Y-109607200D01*
X161000043Y-109407200D02*
G75*
G02*
X160434357Y-109407200I-282843J0D01*
G01*
X160434357Y-109407200D02*
G75*
G02*
X161000043Y-109407200I282843J0D01*
G01*
X160940807Y-109407200D02*
G75*
G02*
X160493593Y-109407200I-223607J0D01*
G01*
X160493593Y-109407200D02*
G75*
G02*
X160940807Y-109407200I223607J0D01*
G01*
X160858621Y-109407200D02*
G75*
G02*
X160575779Y-109407200I-141421J0D01*
G01*
X160575779Y-109407200D02*
G75*
G02*
X160858621Y-109407200I141421J0D01*
G01*
X160817200Y-109407200D02*
G75*
G02*
X160617200Y-109407200I-100000J0D01*
G01*
X160617200Y-109407200D02*
G75*
G02*
X160817200Y-109407200I100000J0D01*
G01*
X133110000Y-109650000D02*
X140910000Y-109650000D01*
X139010000Y-111400000D02*
X139010000Y-111500000D01*
X139010000Y-111500000D02*
X140710000Y-111500000D01*
X139010000Y-111500000D02*
X140810000Y-111500000D01*
X139010000Y-111600000D02*
X139010000Y-111500000D01*
X139010000Y-112800000D02*
X140710000Y-112800000D01*
X139010000Y-112900000D02*
X139010000Y-112800000D01*
X139010000Y-112900000D02*
X139010000Y-113000000D01*
X139010000Y-113000000D02*
X140910000Y-113000000D01*
X139010000Y-113100000D02*
X139010000Y-113000000D01*
X140710000Y-111400000D02*
X141010000Y-111400000D01*
X140710000Y-111500000D02*
X140710000Y-111400000D01*
X140710000Y-111600000D02*
X139010000Y-111600000D01*
X140710000Y-112800000D02*
X140710000Y-111600000D01*
X140810000Y-111500000D02*
X140810000Y-112900000D01*
X140810000Y-112900000D02*
X139010000Y-112900000D01*
X140910000Y-111400000D02*
X139010000Y-111400000D01*
X140910000Y-113000000D02*
X140910000Y-111400000D01*
X140910000Y-113350000D02*
X133110000Y-113350000D01*
X141010000Y-111400000D02*
X141010000Y-113100000D01*
X141010000Y-113100000D02*
X139010000Y-113100000D01*
X141610000Y-112300000D02*
X141610000Y-112400000D01*
X141610000Y-112400000D02*
X141610000Y-112500000D01*
X141892843Y-112300000D02*
G75*
G02*
X141327157Y-112300000I-282843J0D01*
G01*
X141327157Y-112300000D02*
G75*
G02*
X141892843Y-112300000I282843J0D01*
G01*
X141833607Y-112300000D02*
G75*
G02*
X141386393Y-112300000I-223607J0D01*
G01*
X141386393Y-112300000D02*
G75*
G02*
X141833607Y-112300000I223607J0D01*
G01*
X141751421Y-112300000D02*
G75*
G02*
X141468579Y-112300000I-141421J0D01*
G01*
X141468579Y-112300000D02*
G75*
G02*
X141751421Y-112300000I141421J0D01*
G01*
X141710000Y-112300000D02*
G75*
G02*
X141510000Y-112300000I-100000J0D01*
G01*
X141510000Y-112300000D02*
G75*
G02*
X141710000Y-112300000I100000J0D01*
G01*
X114060000Y-112150000D02*
X121860000Y-112150000D01*
X119960000Y-113900000D02*
X119960000Y-114000000D01*
X119960000Y-114000000D02*
X121660000Y-114000000D01*
X119960000Y-114000000D02*
X121760000Y-114000000D01*
X119960000Y-114100000D02*
X119960000Y-114000000D01*
X119960000Y-115300000D02*
X121660000Y-115300000D01*
X119960000Y-115400000D02*
X119960000Y-115300000D01*
X119960000Y-115400000D02*
X119960000Y-115500000D01*
X119960000Y-115500000D02*
X121860000Y-115500000D01*
X119960000Y-115600000D02*
X119960000Y-115500000D01*
X121660000Y-113900000D02*
X121960000Y-113900000D01*
X121660000Y-114000000D02*
X121660000Y-113900000D01*
X121660000Y-114100000D02*
X119960000Y-114100000D01*
X121660000Y-115300000D02*
X121660000Y-114100000D01*
X121760000Y-114000000D02*
X121760000Y-115400000D01*
X121760000Y-115400000D02*
X119960000Y-115400000D01*
X121860000Y-113900000D02*
X119960000Y-113900000D01*
X121860000Y-115500000D02*
X121860000Y-113900000D01*
X121860000Y-115850000D02*
X114060000Y-115850000D01*
X121960000Y-113900000D02*
X121960000Y-115600000D01*
X121960000Y-115600000D02*
X119960000Y-115600000D01*
X122560000Y-114800000D02*
X122560000Y-114900000D01*
X122560000Y-114900000D02*
X122560000Y-115000000D01*
X122842843Y-114800000D02*
G75*
G02*
X122277157Y-114800000I-282843J0D01*
G01*
X122277157Y-114800000D02*
G75*
G02*
X122842843Y-114800000I282843J0D01*
G01*
X122783607Y-114800000D02*
G75*
G02*
X122336393Y-114800000I-223607J0D01*
G01*
X122336393Y-114800000D02*
G75*
G02*
X122783607Y-114800000I223607J0D01*
G01*
X122701421Y-114800000D02*
G75*
G02*
X122418579Y-114800000I-141421J0D01*
G01*
X122418579Y-114800000D02*
G75*
G02*
X122701421Y-114800000I141421J0D01*
G01*
X122660000Y-114800000D02*
G75*
G02*
X122460000Y-114800000I-100000J0D01*
G01*
X122460000Y-114800000D02*
G75*
G02*
X122660000Y-114800000I100000J0D01*
G01*
X95010000Y-115150000D02*
X102810000Y-115150000D01*
X100910000Y-116900000D02*
X100910000Y-117000000D01*
X100910000Y-117000000D02*
X102610000Y-117000000D01*
X100910000Y-117000000D02*
X102710000Y-117000000D01*
X100910000Y-117100000D02*
X100910000Y-117000000D01*
X100910000Y-118300000D02*
X102610000Y-118300000D01*
X100910000Y-118400000D02*
X100910000Y-118300000D01*
X100910000Y-118400000D02*
X100910000Y-118500000D01*
X100910000Y-118500000D02*
X102810000Y-118500000D01*
X100910000Y-118600000D02*
X100910000Y-118500000D01*
X102610000Y-116900000D02*
X102910000Y-116900000D01*
X102610000Y-117000000D02*
X102610000Y-116900000D01*
X102610000Y-117100000D02*
X100910000Y-117100000D01*
X102610000Y-118300000D02*
X102610000Y-117100000D01*
X102710000Y-117000000D02*
X102710000Y-118400000D01*
X102710000Y-118400000D02*
X100910000Y-118400000D01*
X102810000Y-116900000D02*
X100910000Y-116900000D01*
X102810000Y-118500000D02*
X102810000Y-116900000D01*
X102810000Y-118850000D02*
X95010000Y-118850000D01*
X102910000Y-116900000D02*
X102910000Y-118600000D01*
X102910000Y-118600000D02*
X100910000Y-118600000D01*
X103510000Y-117800000D02*
X103510000Y-117900000D01*
X103510000Y-117900000D02*
X103510000Y-118000000D01*
X103792843Y-117800000D02*
G75*
G02*
X103227157Y-117800000I-282843J0D01*
G01*
X103227157Y-117800000D02*
G75*
G02*
X103792843Y-117800000I282843J0D01*
G01*
X103733607Y-117800000D02*
G75*
G02*
X103286393Y-117800000I-223607J0D01*
G01*
X103286393Y-117800000D02*
G75*
G02*
X103733607Y-117800000I223607J0D01*
G01*
X103651421Y-117800000D02*
G75*
G02*
X103368579Y-117800000I-141421J0D01*
G01*
X103368579Y-117800000D02*
G75*
G02*
X103651421Y-117800000I141421J0D01*
G01*
X103610000Y-117800000D02*
G75*
G02*
X103410000Y-117800000I-100000J0D01*
G01*
X103410000Y-117800000D02*
G75*
G02*
X103610000Y-117800000I100000J0D01*
G01*
D10*
X207310000Y-53319700D02*
X207310000Y-54319700D01*
X207310000Y-54319700D02*
X207510000Y-54319700D01*
X207310000Y-56919700D02*
X207310000Y-56559700D01*
X207310000Y-56919700D02*
X210590000Y-56919700D01*
X207510000Y-56559700D02*
X207310000Y-56559700D01*
X207540000Y-54319700D02*
X207540000Y-56559700D01*
X212810000Y-55019700D02*
X217810000Y-55019700D01*
X217590000Y-54019700D02*
X217590000Y-51769700D01*
X217610000Y-51769700D02*
X217810000Y-51769700D01*
X217810000Y-51419700D02*
X209409999Y-51419700D01*
X217810000Y-51769700D02*
X217810000Y-51419700D01*
X217810000Y-54019700D02*
X217610000Y-54019700D01*
X217810000Y-55019700D02*
X217810000Y-54019700D01*
X207310000Y-53319701D02*
G75*
G02*
X209409999Y-51419699I1999999J-99997D01*
G01*
X210593682Y-56898229D02*
G75*
G02*
X212810000Y-55019700I2151317J-291470D01*
G01*
X188260000Y-53319700D02*
X188260000Y-54319700D01*
X188260000Y-54319700D02*
X188460000Y-54319700D01*
X188260000Y-56919700D02*
X188260000Y-56559700D01*
X188260000Y-56919700D02*
X191540000Y-56919700D01*
X188460000Y-56559700D02*
X188260000Y-56559700D01*
X188490000Y-54319700D02*
X188490000Y-56559700D01*
X193760000Y-55019700D02*
X198760000Y-55019700D01*
X198540000Y-54019700D02*
X198540000Y-51769700D01*
X198560000Y-51769700D02*
X198760000Y-51769700D01*
X198760000Y-51419700D02*
X190359999Y-51419700D01*
X198760000Y-51769700D02*
X198760000Y-51419700D01*
X198760000Y-54019700D02*
X198560000Y-54019700D01*
X198760000Y-55019700D02*
X198760000Y-54019700D01*
X188260000Y-53319701D02*
G75*
G02*
X190359999Y-51419699I1999999J-99997D01*
G01*
X191543682Y-56898229D02*
G75*
G02*
X193760000Y-55019700I2151317J-291470D01*
G01*
X169210000Y-46319700D02*
X169210000Y-47319700D01*
X169210000Y-47319700D02*
X169410000Y-47319700D01*
X169210000Y-49919700D02*
X169210000Y-49559700D01*
X169210000Y-49919700D02*
X172490000Y-49919700D01*
X169410000Y-49559700D02*
X169210000Y-49559700D01*
X169440000Y-47319700D02*
X169440000Y-49559700D01*
X174710000Y-48019700D02*
X179710000Y-48019700D01*
X179490000Y-47019700D02*
X179490000Y-44769700D01*
X179510000Y-44769700D02*
X179710000Y-44769700D01*
X179710000Y-44419700D02*
X171309999Y-44419700D01*
X179710000Y-44769700D02*
X179710000Y-44419700D01*
X179710000Y-47019700D02*
X179510000Y-47019700D01*
X179710000Y-48019700D02*
X179710000Y-47019700D01*
X169210000Y-46319701D02*
G75*
G02*
X171309999Y-44419699I1999999J-99997D01*
G01*
X172493682Y-49898229D02*
G75*
G02*
X174710000Y-48019700I2151317J-291470D01*
G01*
X150160000Y-41619700D02*
X150160000Y-42619700D01*
X150160000Y-42619700D02*
X150360000Y-42619700D01*
X150160000Y-45219700D02*
X150160000Y-44859700D01*
X150160000Y-45219700D02*
X153440000Y-45219700D01*
X150360000Y-44859700D02*
X150160000Y-44859700D01*
X150390000Y-42619700D02*
X150390000Y-44859700D01*
X155660000Y-43319700D02*
X160660000Y-43319700D01*
X160440000Y-42319700D02*
X160440000Y-40069700D01*
X160460000Y-40069700D02*
X160660000Y-40069700D01*
X160660000Y-39719700D02*
X152259999Y-39719700D01*
X160660000Y-40069700D02*
X160660000Y-39719700D01*
X160660000Y-42319700D02*
X160460000Y-42319700D01*
X160660000Y-43319700D02*
X160660000Y-42319700D01*
X150160000Y-41619701D02*
G75*
G02*
X152259999Y-39719699I1999999J-99997D01*
G01*
X153443682Y-45198229D02*
G75*
G02*
X155660000Y-43319700I2151317J-291470D01*
G01*
X131110000Y-44119700D02*
X131110000Y-45119700D01*
X131110000Y-45119700D02*
X131310000Y-45119700D01*
X131110000Y-47719700D02*
X131110000Y-47359700D01*
X131110000Y-47719700D02*
X134390000Y-47719700D01*
X131310000Y-47359700D02*
X131110000Y-47359700D01*
X131340000Y-45119700D02*
X131340000Y-47359700D01*
X136610000Y-45819700D02*
X141610000Y-45819700D01*
X141390000Y-44819700D02*
X141390000Y-42569700D01*
X141410000Y-42569700D02*
X141610000Y-42569700D01*
X141610000Y-42219700D02*
X133209999Y-42219700D01*
X141610000Y-42569700D02*
X141610000Y-42219700D01*
X141610000Y-44819700D02*
X141410000Y-44819700D01*
X141610000Y-45819700D02*
X141610000Y-44819700D01*
X131110000Y-44119701D02*
G75*
G02*
X133209999Y-42219699I1999999J-99997D01*
G01*
X134393682Y-47698229D02*
G75*
G02*
X136610000Y-45819700I2151317J-291470D01*
G01*
X112060000Y-46619700D02*
X112060000Y-47619700D01*
X112060000Y-47619700D02*
X112260000Y-47619700D01*
X112060000Y-50219700D02*
X112060000Y-49859700D01*
X112060000Y-50219700D02*
X115340000Y-50219700D01*
X112260000Y-49859700D02*
X112060000Y-49859700D01*
X112290000Y-47619700D02*
X112290000Y-49859700D01*
X117560000Y-48319700D02*
X122560000Y-48319700D01*
X122340000Y-47319700D02*
X122340000Y-45069700D01*
X122360000Y-45069700D02*
X122560000Y-45069700D01*
X122560000Y-44719700D02*
X114159999Y-44719700D01*
X122560000Y-45069700D02*
X122560000Y-44719700D01*
X122560000Y-47319700D02*
X122360000Y-47319700D01*
X122560000Y-48319700D02*
X122560000Y-47319700D01*
X112060000Y-46619701D02*
G75*
G02*
X114159999Y-44719699I1999999J-99997D01*
G01*
X115343682Y-50198229D02*
G75*
G02*
X117560000Y-48319700I2151317J-291470D01*
G01*
X207310000Y-72369700D02*
X207310000Y-73369700D01*
X207310000Y-73369700D02*
X207510000Y-73369700D01*
X207310000Y-75969700D02*
X207310000Y-75609700D01*
X207310000Y-75969700D02*
X210590000Y-75969700D01*
X207510000Y-75609700D02*
X207310000Y-75609700D01*
X207540000Y-73369700D02*
X207540000Y-75609700D01*
X212810000Y-74069700D02*
X217810000Y-74069700D01*
X217590000Y-73069700D02*
X217590000Y-70819700D01*
X217610000Y-70819700D02*
X217810000Y-70819700D01*
X217810000Y-70469700D02*
X209409999Y-70469700D01*
X217810000Y-70819700D02*
X217810000Y-70469700D01*
X217810000Y-73069700D02*
X217610000Y-73069700D01*
X217810000Y-74069700D02*
X217810000Y-73069700D01*
X207310000Y-72369701D02*
G75*
G02*
X209409999Y-70469699I1999999J-99997D01*
G01*
X210593682Y-75948229D02*
G75*
G02*
X212810000Y-74069700I2151317J-291470D01*
G01*
X188260000Y-72369700D02*
X188260000Y-73369700D01*
X188260000Y-73369700D02*
X188460000Y-73369700D01*
X188260000Y-75969700D02*
X188260000Y-75609700D01*
X188260000Y-75969700D02*
X191540000Y-75969700D01*
X188460000Y-75609700D02*
X188260000Y-75609700D01*
X188490000Y-73369700D02*
X188490000Y-75609700D01*
X193760000Y-74069700D02*
X198760000Y-74069700D01*
X198540000Y-73069700D02*
X198540000Y-70819700D01*
X198560000Y-70819700D02*
X198760000Y-70819700D01*
X198760000Y-70469700D02*
X190359999Y-70469700D01*
X198760000Y-70819700D02*
X198760000Y-70469700D01*
X198760000Y-73069700D02*
X198560000Y-73069700D01*
X198760000Y-74069700D02*
X198760000Y-73069700D01*
X188260000Y-72369701D02*
G75*
G02*
X190359999Y-70469699I1999999J-99997D01*
G01*
X191543682Y-75948229D02*
G75*
G02*
X193760000Y-74069700I2151317J-291470D01*
G01*
X169210000Y-65369700D02*
X169210000Y-66369700D01*
X169210000Y-66369700D02*
X169410000Y-66369700D01*
X169210000Y-68969700D02*
X169210000Y-68609700D01*
X169210000Y-68969700D02*
X172490000Y-68969700D01*
X169410000Y-68609700D02*
X169210000Y-68609700D01*
X169440000Y-66369700D02*
X169440000Y-68609700D01*
X174710000Y-67069700D02*
X179710000Y-67069700D01*
X179490000Y-66069700D02*
X179490000Y-63819700D01*
X179510000Y-63819700D02*
X179710000Y-63819700D01*
X179710000Y-63469700D02*
X171309999Y-63469700D01*
X179710000Y-63819700D02*
X179710000Y-63469700D01*
X179710000Y-66069700D02*
X179510000Y-66069700D01*
X179710000Y-67069700D02*
X179710000Y-66069700D01*
X169210000Y-65369701D02*
G75*
G02*
X171309999Y-63469699I1999999J-99997D01*
G01*
X172493682Y-68948229D02*
G75*
G02*
X174710000Y-67069700I2151317J-291470D01*
G01*
X150160000Y-60669700D02*
X150160000Y-61669700D01*
X150160000Y-61669700D02*
X150360000Y-61669700D01*
X150160000Y-64269700D02*
X150160000Y-63909700D01*
X150160000Y-64269700D02*
X153440000Y-64269700D01*
X150360000Y-63909700D02*
X150160000Y-63909700D01*
X150390000Y-61669700D02*
X150390000Y-63909700D01*
X155660000Y-62369700D02*
X160660000Y-62369700D01*
X160440000Y-61369700D02*
X160440000Y-59119700D01*
X160460000Y-59119700D02*
X160660000Y-59119700D01*
X160660000Y-58769700D02*
X152259999Y-58769700D01*
X160660000Y-59119700D02*
X160660000Y-58769700D01*
X160660000Y-61369700D02*
X160460000Y-61369700D01*
X160660000Y-62369700D02*
X160660000Y-61369700D01*
X150160000Y-60669701D02*
G75*
G02*
X152259999Y-58769699I1999999J-99997D01*
G01*
X153443682Y-64248229D02*
G75*
G02*
X155660000Y-62369700I2151317J-291470D01*
G01*
X131110000Y-63169700D02*
X131110000Y-64169700D01*
X131110000Y-64169700D02*
X131310000Y-64169700D01*
X131110000Y-66769700D02*
X131110000Y-66409700D01*
X131110000Y-66769700D02*
X134390000Y-66769700D01*
X131310000Y-66409700D02*
X131110000Y-66409700D01*
X131340000Y-64169700D02*
X131340000Y-66409700D01*
X136610000Y-64869700D02*
X141610000Y-64869700D01*
X141390000Y-63869700D02*
X141390000Y-61619700D01*
X141410000Y-61619700D02*
X141610000Y-61619700D01*
X141610000Y-61269700D02*
X133209999Y-61269700D01*
X141610000Y-61619700D02*
X141610000Y-61269700D01*
X141610000Y-63869700D02*
X141410000Y-63869700D01*
X141610000Y-64869700D02*
X141610000Y-63869700D01*
X131110000Y-63169701D02*
G75*
G02*
X133209999Y-61269699I1999999J-99997D01*
G01*
X134393682Y-66748229D02*
G75*
G02*
X136610000Y-64869700I2151317J-291470D01*
G01*
X112060000Y-65669700D02*
X112060000Y-66669700D01*
X112060000Y-66669700D02*
X112260000Y-66669700D01*
X112060000Y-69269700D02*
X112060000Y-68909700D01*
X112060000Y-69269700D02*
X115340000Y-69269700D01*
X112260000Y-68909700D02*
X112060000Y-68909700D01*
X112290000Y-66669700D02*
X112290000Y-68909700D01*
X117560000Y-67369700D02*
X122560000Y-67369700D01*
X122340000Y-66369700D02*
X122340000Y-64119700D01*
X122360000Y-64119700D02*
X122560000Y-64119700D01*
X122560000Y-63769700D02*
X114159999Y-63769700D01*
X122560000Y-64119700D02*
X122560000Y-63769700D01*
X122560000Y-66369700D02*
X122360000Y-66369700D01*
X122560000Y-67369700D02*
X122560000Y-66369700D01*
X112060000Y-65669701D02*
G75*
G02*
X114159999Y-63769699I1999999J-99997D01*
G01*
X115343682Y-69248229D02*
G75*
G02*
X117560000Y-67369700I2151317J-291470D01*
G01*
X207310000Y-91419700D02*
X207310000Y-92419700D01*
X207310000Y-92419700D02*
X207510000Y-92419700D01*
X207310000Y-95019700D02*
X207310000Y-94659700D01*
X207310000Y-95019700D02*
X210590000Y-95019700D01*
X207510000Y-94659700D02*
X207310000Y-94659700D01*
X207540000Y-92419700D02*
X207540000Y-94659700D01*
X212810000Y-93119700D02*
X217810000Y-93119700D01*
X217590000Y-92119700D02*
X217590000Y-89869700D01*
X217610000Y-89869700D02*
X217810000Y-89869700D01*
X217810000Y-89519700D02*
X209409999Y-89519700D01*
X217810000Y-89869700D02*
X217810000Y-89519700D01*
X217810000Y-92119700D02*
X217610000Y-92119700D01*
X217810000Y-93119700D02*
X217810000Y-92119700D01*
X207310000Y-91419701D02*
G75*
G02*
X209409999Y-89519699I1999999J-99997D01*
G01*
X210593682Y-94998229D02*
G75*
G02*
X212810000Y-93119700I2151317J-291470D01*
G01*
X188260000Y-91419700D02*
X188260000Y-92419700D01*
X188260000Y-92419700D02*
X188460000Y-92419700D01*
X188260000Y-95019700D02*
X188260000Y-94659700D01*
X188260000Y-95019700D02*
X191540000Y-95019700D01*
X188460000Y-94659700D02*
X188260000Y-94659700D01*
X188490000Y-92419700D02*
X188490000Y-94659700D01*
X193760000Y-93119700D02*
X198760000Y-93119700D01*
X198540000Y-92119700D02*
X198540000Y-89869700D01*
X198560000Y-89869700D02*
X198760000Y-89869700D01*
X198760000Y-89519700D02*
X190359999Y-89519700D01*
X198760000Y-89869700D02*
X198760000Y-89519700D01*
X198760000Y-92119700D02*
X198560000Y-92119700D01*
X198760000Y-93119700D02*
X198760000Y-92119700D01*
X188260000Y-91419701D02*
G75*
G02*
X190359999Y-89519699I1999999J-99997D01*
G01*
X191543682Y-94998229D02*
G75*
G02*
X193760000Y-93119700I2151317J-291470D01*
G01*
X169210000Y-84419700D02*
X169210000Y-85419700D01*
X169210000Y-85419700D02*
X169410000Y-85419700D01*
X169210000Y-88019700D02*
X169210000Y-87659700D01*
X169210000Y-88019700D02*
X172490000Y-88019700D01*
X169410000Y-87659700D02*
X169210000Y-87659700D01*
X169440000Y-85419700D02*
X169440000Y-87659700D01*
X174710000Y-86119700D02*
X179710000Y-86119700D01*
X179490000Y-85119700D02*
X179490000Y-82869700D01*
X179510000Y-82869700D02*
X179710000Y-82869700D01*
X179710000Y-82519700D02*
X171309999Y-82519700D01*
X179710000Y-82869700D02*
X179710000Y-82519700D01*
X179710000Y-85119700D02*
X179510000Y-85119700D01*
X179710000Y-86119700D02*
X179710000Y-85119700D01*
X169210000Y-84419701D02*
G75*
G02*
X171309999Y-82519699I1999999J-99997D01*
G01*
X172493682Y-87998229D02*
G75*
G02*
X174710000Y-86119700I2151317J-291470D01*
G01*
X150160000Y-79719700D02*
X150160000Y-80719700D01*
X150160000Y-80719700D02*
X150360000Y-80719700D01*
X150160000Y-83319700D02*
X150160000Y-82959700D01*
X150160000Y-83319700D02*
X153440000Y-83319700D01*
X150360000Y-82959700D02*
X150160000Y-82959700D01*
X150390000Y-80719700D02*
X150390000Y-82959700D01*
X155660000Y-81419700D02*
X160660000Y-81419700D01*
X160440000Y-80419700D02*
X160440000Y-78169700D01*
X160460000Y-78169700D02*
X160660000Y-78169700D01*
X160660000Y-77819700D02*
X152259999Y-77819700D01*
X160660000Y-78169700D02*
X160660000Y-77819700D01*
X160660000Y-80419700D02*
X160460000Y-80419700D01*
X160660000Y-81419700D02*
X160660000Y-80419700D01*
X150160000Y-79719701D02*
G75*
G02*
X152259999Y-77819699I1999999J-99997D01*
G01*
X153443682Y-83298229D02*
G75*
G02*
X155660000Y-81419700I2151317J-291470D01*
G01*
X131110000Y-82219700D02*
X131110000Y-83219700D01*
X131110000Y-83219700D02*
X131310000Y-83219700D01*
X131110000Y-85819700D02*
X131110000Y-85459700D01*
X131110000Y-85819700D02*
X134390000Y-85819700D01*
X131310000Y-85459700D02*
X131110000Y-85459700D01*
X131340000Y-83219700D02*
X131340000Y-85459700D01*
X136610000Y-83919700D02*
X141610000Y-83919700D01*
X141390000Y-82919700D02*
X141390000Y-80669700D01*
X141410000Y-80669700D02*
X141610000Y-80669700D01*
X141610000Y-80319700D02*
X133209999Y-80319700D01*
X141610000Y-80669700D02*
X141610000Y-80319700D01*
X141610000Y-82919700D02*
X141410000Y-82919700D01*
X141610000Y-83919700D02*
X141610000Y-82919700D01*
X131110000Y-82219701D02*
G75*
G02*
X133209999Y-80319699I1999999J-99997D01*
G01*
X134393682Y-85798229D02*
G75*
G02*
X136610000Y-83919700I2151317J-291470D01*
G01*
X112060000Y-84719700D02*
X112060000Y-85719700D01*
X112060000Y-85719700D02*
X112260000Y-85719700D01*
X112060000Y-88319700D02*
X112060000Y-87959700D01*
X112060000Y-88319700D02*
X115340000Y-88319700D01*
X112260000Y-87959700D02*
X112060000Y-87959700D01*
X112290000Y-85719700D02*
X112290000Y-87959700D01*
X117560000Y-86419700D02*
X122560000Y-86419700D01*
X122340000Y-85419700D02*
X122340000Y-83169700D01*
X122360000Y-83169700D02*
X122560000Y-83169700D01*
X122560000Y-82819700D02*
X114159999Y-82819700D01*
X122560000Y-83169700D02*
X122560000Y-82819700D01*
X122560000Y-85419700D02*
X122360000Y-85419700D01*
X122560000Y-86419700D02*
X122560000Y-85419700D01*
X112060000Y-84719701D02*
G75*
G02*
X114159999Y-82819699I1999999J-99997D01*
G01*
X115343682Y-88298229D02*
G75*
G02*
X117560000Y-86419700I2151317J-291470D01*
G01*
X207310000Y-110470000D02*
X207310000Y-111470000D01*
X207310000Y-111470000D02*
X207510000Y-111470000D01*
X207310000Y-114070000D02*
X207310000Y-113710000D01*
X207310000Y-114070000D02*
X210590000Y-114070000D01*
X207510000Y-113710000D02*
X207310000Y-113710000D01*
X207540000Y-111470000D02*
X207540000Y-113710000D01*
X212810000Y-112170000D02*
X217810000Y-112170000D01*
X217590000Y-111170000D02*
X217590000Y-108920000D01*
X217610000Y-108920000D02*
X217810000Y-108920000D01*
X217810000Y-108570000D02*
X209409999Y-108570000D01*
X217810000Y-108920000D02*
X217810000Y-108570000D01*
X217810000Y-111170000D02*
X217610000Y-111170000D01*
X217810000Y-112170000D02*
X217810000Y-111170000D01*
X207310000Y-110470001D02*
G75*
G02*
X209409999Y-108569999I1999999J-99997D01*
G01*
X210593682Y-114048529D02*
G75*
G02*
X212810000Y-112170000I2151317J-291470D01*
G01*
X188260000Y-110470000D02*
X188260000Y-111470000D01*
X188260000Y-111470000D02*
X188460000Y-111470000D01*
X188260000Y-114070000D02*
X188260000Y-113710000D01*
X188260000Y-114070000D02*
X191540000Y-114070000D01*
X188460000Y-113710000D02*
X188260000Y-113710000D01*
X188490000Y-111470000D02*
X188490000Y-113710000D01*
X193760000Y-112170000D02*
X198760000Y-112170000D01*
X198540000Y-111170000D02*
X198540000Y-108920000D01*
X198560000Y-108920000D02*
X198760000Y-108920000D01*
X198760000Y-108570000D02*
X190359999Y-108570000D01*
X198760000Y-108920000D02*
X198760000Y-108570000D01*
X198760000Y-111170000D02*
X198560000Y-111170000D01*
X198760000Y-112170000D02*
X198760000Y-111170000D01*
X188260000Y-110470001D02*
G75*
G02*
X190359999Y-108569999I1999999J-99997D01*
G01*
X191543682Y-114048529D02*
G75*
G02*
X193760000Y-112170000I2151317J-291470D01*
G01*
X169210000Y-103470000D02*
X169210000Y-104470000D01*
X169210000Y-104470000D02*
X169410000Y-104470000D01*
X169210000Y-107070000D02*
X169210000Y-106710000D01*
X169210000Y-107070000D02*
X172490000Y-107070000D01*
X169410000Y-106710000D02*
X169210000Y-106710000D01*
X169440000Y-104470000D02*
X169440000Y-106710000D01*
X174710000Y-105170000D02*
X179710000Y-105170000D01*
X179490000Y-104170000D02*
X179490000Y-101920000D01*
X179510000Y-101920000D02*
X179710000Y-101920000D01*
X179710000Y-101570000D02*
X171309999Y-101570000D01*
X179710000Y-101920000D02*
X179710000Y-101570000D01*
X179710000Y-104170000D02*
X179510000Y-104170000D01*
X179710000Y-105170000D02*
X179710000Y-104170000D01*
X169210000Y-103470001D02*
G75*
G02*
X171309999Y-101569999I1999999J-99997D01*
G01*
X172493682Y-107048529D02*
G75*
G02*
X174710000Y-105170000I2151317J-291470D01*
G01*
X150160000Y-98770000D02*
X150160000Y-99770000D01*
X150160000Y-99770000D02*
X150360000Y-99770000D01*
X150160000Y-102370000D02*
X150160000Y-102010000D01*
X150160000Y-102370000D02*
X153440000Y-102370000D01*
X150360000Y-102010000D02*
X150160000Y-102010000D01*
X150390000Y-99770000D02*
X150390000Y-102010000D01*
X155660000Y-100470000D02*
X160660000Y-100470000D01*
X160440000Y-99470000D02*
X160440000Y-97220000D01*
X160460000Y-97220000D02*
X160660000Y-97220000D01*
X160660000Y-96870000D02*
X152259999Y-96870000D01*
X160660000Y-97220000D02*
X160660000Y-96870000D01*
X160660000Y-99470000D02*
X160460000Y-99470000D01*
X160660000Y-100470000D02*
X160660000Y-99470000D01*
X150160000Y-98770001D02*
G75*
G02*
X152259999Y-96869999I1999999J-99997D01*
G01*
X153443682Y-102348529D02*
G75*
G02*
X155660000Y-100470000I2151317J-291470D01*
G01*
X131110000Y-101270000D02*
X131110000Y-102270000D01*
X131110000Y-102270000D02*
X131310000Y-102270000D01*
X131110000Y-104870000D02*
X131110000Y-104510000D01*
X131110000Y-104870000D02*
X134390000Y-104870000D01*
X131310000Y-104510000D02*
X131110000Y-104510000D01*
X131340000Y-102270000D02*
X131340000Y-104510000D01*
X136610000Y-102970000D02*
X141610000Y-102970000D01*
X141390000Y-101970000D02*
X141390000Y-99720000D01*
X141410000Y-99720000D02*
X141610000Y-99720000D01*
X141610000Y-99370000D02*
X133209999Y-99370000D01*
X141610000Y-99720000D02*
X141610000Y-99370000D01*
X141610000Y-101970000D02*
X141410000Y-101970000D01*
X141610000Y-102970000D02*
X141610000Y-101970000D01*
X131110000Y-101270001D02*
G75*
G02*
X133209999Y-99369999I1999999J-99997D01*
G01*
X134393682Y-104848529D02*
G75*
G02*
X136610000Y-102970000I2151317J-291470D01*
G01*
X112060000Y-103770000D02*
X112060000Y-104770000D01*
X112060000Y-104770000D02*
X112260000Y-104770000D01*
X112060000Y-107370000D02*
X112060000Y-107010000D01*
X112060000Y-107370000D02*
X115340000Y-107370000D01*
X112260000Y-107010000D02*
X112060000Y-107010000D01*
X112290000Y-104770000D02*
X112290000Y-107010000D01*
X117560000Y-105470000D02*
X122560000Y-105470000D01*
X122340000Y-104470000D02*
X122340000Y-102220000D01*
X122360000Y-102220000D02*
X122560000Y-102220000D01*
X122560000Y-101870000D02*
X114159999Y-101870000D01*
X122560000Y-102220000D02*
X122560000Y-101870000D01*
X122560000Y-104470000D02*
X122360000Y-104470000D01*
X122560000Y-105470000D02*
X122560000Y-104470000D01*
X112060000Y-103770001D02*
G75*
G02*
X114159999Y-101869999I1999999J-99997D01*
G01*
X115343682Y-107348529D02*
G75*
G02*
X117560000Y-105470000I2151317J-291470D01*
G01*
X93010000Y-107270000D02*
X93010000Y-108270000D01*
X93010000Y-108270000D02*
X93210000Y-108270000D01*
X93010000Y-110870000D02*
X93010000Y-110510000D01*
X93010000Y-110870000D02*
X96290000Y-110870000D01*
X93210000Y-110510000D02*
X93010000Y-110510000D01*
X93240000Y-108270000D02*
X93240000Y-110510000D01*
X98510000Y-108970000D02*
X103510000Y-108970000D01*
X103290000Y-107970000D02*
X103290000Y-105720000D01*
X103310000Y-105720000D02*
X103510000Y-105720000D01*
X103510000Y-105370000D02*
X95109999Y-105370000D01*
X103510000Y-105720000D02*
X103510000Y-105370000D01*
X103510000Y-107970000D02*
X103310000Y-107970000D01*
X103510000Y-108970000D02*
X103510000Y-107970000D01*
X93010000Y-107270001D02*
G75*
G02*
X95109999Y-105369999I1999999J-99997D01*
G01*
X96293682Y-110848529D02*
G75*
G02*
X98510000Y-108970000I2151317J-291470D01*
G01*
X207310000Y-129520000D02*
X207310000Y-130520000D01*
X207310000Y-130520000D02*
X207510000Y-130520000D01*
X207310000Y-133120000D02*
X207310000Y-132760000D01*
X207310000Y-133120000D02*
X210590000Y-133120000D01*
X207510000Y-132760000D02*
X207310000Y-132760000D01*
X207540000Y-130520000D02*
X207540000Y-132760000D01*
X212810000Y-131220000D02*
X217810000Y-131220000D01*
X217590000Y-130220000D02*
X217590000Y-127970000D01*
X217610000Y-127970000D02*
X217810000Y-127970000D01*
X217810000Y-127620000D02*
X209409999Y-127620000D01*
X217810000Y-127970000D02*
X217810000Y-127620000D01*
X217810000Y-130220000D02*
X217610000Y-130220000D01*
X217810000Y-131220000D02*
X217810000Y-130220000D01*
X207310000Y-129520001D02*
G75*
G02*
X209409999Y-127619999I1999999J-99997D01*
G01*
X210593682Y-133098529D02*
G75*
G02*
X212810000Y-131220000I2151317J-291470D01*
G01*
X188260000Y-129520000D02*
X188260000Y-130520000D01*
X188260000Y-130520000D02*
X188460000Y-130520000D01*
X188260000Y-133120000D02*
X188260000Y-132760000D01*
X188260000Y-133120000D02*
X191540000Y-133120000D01*
X188460000Y-132760000D02*
X188260000Y-132760000D01*
X188490000Y-130520000D02*
X188490000Y-132760000D01*
X193760000Y-131220000D02*
X198760000Y-131220000D01*
X198540000Y-130220000D02*
X198540000Y-127970000D01*
X198560000Y-127970000D02*
X198760000Y-127970000D01*
X198760000Y-127620000D02*
X190359999Y-127620000D01*
X198760000Y-127970000D02*
X198760000Y-127620000D01*
X198760000Y-130220000D02*
X198560000Y-130220000D01*
X198760000Y-131220000D02*
X198760000Y-130220000D01*
X188260000Y-129520001D02*
G75*
G02*
X190359999Y-127619999I1999999J-99997D01*
G01*
X191543682Y-133098529D02*
G75*
G02*
X193760000Y-131220000I2151317J-291470D01*
G01*
X200985000Y-62244700D02*
X200985000Y-63744700D01*
X200985000Y-63744700D02*
X206385000Y-63744700D01*
X203185000Y-62494700D02*
X203185000Y-63494700D01*
X203285000Y-62994700D02*
X204185000Y-62494700D01*
X204185000Y-62494700D02*
X204185000Y-63494700D01*
X204185000Y-63494700D02*
X203285000Y-62994700D01*
X206385000Y-62244700D02*
X200985000Y-62244700D01*
X206385000Y-63744700D02*
X206385000Y-62244700D01*
D13*
X201935000Y-64144700D02*
G75*
G02*
X201835000Y-64144700I-50000J0D01*
G01*
X201835000Y-64144700D02*
G75*
G02*
X201935000Y-64144700I50000J0D01*
G01*
X202026421Y-64144700D02*
G75*
G02*
X201743579Y-64144700I-141421J0D01*
G01*
X201743579Y-64144700D02*
G75*
G02*
X202026421Y-64144700I141421J0D01*
G01*
X202097132Y-64144700D02*
G75*
G02*
X201672868Y-64144700I-212132J0D01*
G01*
X201672868Y-64144700D02*
G75*
G02*
X202097132Y-64144700I212132J0D01*
G01*
D10*
X200985000Y-60500000D02*
X200985000Y-62000000D01*
X200985000Y-62000000D02*
X206385000Y-62000000D01*
X203185000Y-60750000D02*
X203185000Y-61750000D01*
X203285000Y-61250000D02*
X204185000Y-60750000D01*
X204185000Y-60750000D02*
X204185000Y-61750000D01*
X204185000Y-61750000D02*
X203285000Y-61250000D01*
X206385000Y-60500000D02*
X200985000Y-60500000D01*
X206385000Y-62000000D02*
X206385000Y-60500000D01*
D13*
X201935000Y-62400000D02*
G75*
G02*
X201835000Y-62400000I-50000J0D01*
G01*
X201835000Y-62400000D02*
G75*
G02*
X201935000Y-62400000I50000J0D01*
G01*
X202026421Y-62400000D02*
G75*
G02*
X201743579Y-62400000I-141421J0D01*
G01*
X201743579Y-62400000D02*
G75*
G02*
X202026421Y-62400000I141421J0D01*
G01*
X202097132Y-62400000D02*
G75*
G02*
X201672868Y-62400000I-212132J0D01*
G01*
X201672868Y-62400000D02*
G75*
G02*
X202097132Y-62400000I212132J0D01*
G01*
D10*
X162885000Y-51250000D02*
X162885000Y-52750000D01*
X162885000Y-52750000D02*
X168285000Y-52750000D01*
X165085000Y-51500000D02*
X165085000Y-52500000D01*
X165185000Y-52000000D02*
X166085000Y-51500000D01*
X166085000Y-51500000D02*
X166085000Y-52500000D01*
X166085000Y-52500000D02*
X165185000Y-52000000D01*
X168285000Y-51250000D02*
X162885000Y-51250000D01*
X168285000Y-52750000D02*
X168285000Y-51250000D01*
D13*
X163835000Y-53150000D02*
G75*
G02*
X163735000Y-53150000I-50000J0D01*
G01*
X163735000Y-53150000D02*
G75*
G02*
X163835000Y-53150000I50000J0D01*
G01*
X163926421Y-53150000D02*
G75*
G02*
X163643579Y-53150000I-141421J0D01*
G01*
X163643579Y-53150000D02*
G75*
G02*
X163926421Y-53150000I141421J0D01*
G01*
X163997132Y-53150000D02*
G75*
G02*
X163572868Y-53150000I-212132J0D01*
G01*
X163572868Y-53150000D02*
G75*
G02*
X163997132Y-53150000I212132J0D01*
G01*
D10*
X162885000Y-49750000D02*
X162885000Y-51250000D01*
X162885000Y-51250000D02*
X168285000Y-51250000D01*
X165085000Y-50000000D02*
X165085000Y-51000000D01*
X165185000Y-50500000D02*
X166085000Y-50000000D01*
X166085000Y-50000000D02*
X166085000Y-51000000D01*
X166085000Y-51000000D02*
X165185000Y-50500000D01*
X168285000Y-49750000D02*
X162885000Y-49750000D01*
X168285000Y-51250000D02*
X168285000Y-49750000D01*
D13*
X163835000Y-51650000D02*
G75*
G02*
X163735000Y-51650000I-50000J0D01*
G01*
X163735000Y-51650000D02*
G75*
G02*
X163835000Y-51650000I50000J0D01*
G01*
X163926421Y-51650000D02*
G75*
G02*
X163643579Y-51650000I-141421J0D01*
G01*
X163643579Y-51650000D02*
G75*
G02*
X163926421Y-51650000I141421J0D01*
G01*
X163997132Y-51650000D02*
G75*
G02*
X163572868Y-51650000I-212132J0D01*
G01*
X163572868Y-51650000D02*
G75*
G02*
X163997132Y-51650000I212132J0D01*
G01*
D10*
X124800000Y-53000000D02*
X124800000Y-54500000D01*
X124800000Y-54500000D02*
X130200000Y-54500000D01*
X127000000Y-53250000D02*
X127000000Y-54250000D01*
X127100000Y-53750000D02*
X128000000Y-53250000D01*
X128000000Y-53250000D02*
X128000000Y-54250000D01*
X128000000Y-54250000D02*
X127100000Y-53750000D01*
X130200000Y-53000000D02*
X124800000Y-53000000D01*
X130200000Y-54500000D02*
X130200000Y-53000000D01*
D13*
X125750000Y-54900000D02*
G75*
G02*
X125650000Y-54900000I-50000J0D01*
G01*
X125650000Y-54900000D02*
G75*
G02*
X125750000Y-54900000I50000J0D01*
G01*
X125841421Y-54900000D02*
G75*
G02*
X125558579Y-54900000I-141421J0D01*
G01*
X125558579Y-54900000D02*
G75*
G02*
X125841421Y-54900000I141421J0D01*
G01*
X125912132Y-54900000D02*
G75*
G02*
X125487868Y-54900000I-212132J0D01*
G01*
X125487868Y-54900000D02*
G75*
G02*
X125912132Y-54900000I212132J0D01*
G01*
D10*
X124800000Y-51500000D02*
X124800000Y-53000000D01*
X124800000Y-53000000D02*
X130200000Y-53000000D01*
X127000000Y-51750000D02*
X127000000Y-52750000D01*
X127100000Y-52250000D02*
X128000000Y-51750000D01*
X128000000Y-51750000D02*
X128000000Y-52750000D01*
X128000000Y-52750000D02*
X127100000Y-52250000D01*
X130200000Y-51500000D02*
X124800000Y-51500000D01*
X130200000Y-53000000D02*
X130200000Y-51500000D01*
D13*
X125750000Y-53400000D02*
G75*
G02*
X125650000Y-53400000I-50000J0D01*
G01*
X125650000Y-53400000D02*
G75*
G02*
X125750000Y-53400000I50000J0D01*
G01*
X125841421Y-53400000D02*
G75*
G02*
X125558579Y-53400000I-141421J0D01*
G01*
X125558579Y-53400000D02*
G75*
G02*
X125841421Y-53400000I141421J0D01*
G01*
X125912132Y-53400000D02*
G75*
G02*
X125487868Y-53400000I-212132J0D01*
G01*
X125487868Y-53400000D02*
G75*
G02*
X125912132Y-53400000I212132J0D01*
G01*
D10*
X200985000Y-82452500D02*
X200985000Y-83952500D01*
X200985000Y-83952500D02*
X206385000Y-83952500D01*
X203185000Y-82702500D02*
X203185000Y-83702500D01*
X203285000Y-83202500D02*
X204185000Y-82702500D01*
X204185000Y-82702500D02*
X204185000Y-83702500D01*
X204185000Y-83702500D02*
X203285000Y-83202500D01*
X206385000Y-82452500D02*
X200985000Y-82452500D01*
X206385000Y-83952500D02*
X206385000Y-82452500D01*
D13*
X201935000Y-84352500D02*
G75*
G02*
X201835000Y-84352500I-50000J0D01*
G01*
X201835000Y-84352500D02*
G75*
G02*
X201935000Y-84352500I50000J0D01*
G01*
X202026421Y-84352500D02*
G75*
G02*
X201743579Y-84352500I-141421J0D01*
G01*
X201743579Y-84352500D02*
G75*
G02*
X202026421Y-84352500I141421J0D01*
G01*
X202097132Y-84352500D02*
G75*
G02*
X201672868Y-84352500I-212132J0D01*
G01*
X201672868Y-84352500D02*
G75*
G02*
X202097132Y-84352500I212132J0D01*
G01*
D10*
X162685000Y-74750000D02*
X162685000Y-76250000D01*
X162685000Y-76250000D02*
X168085000Y-76250000D01*
X164885000Y-75000000D02*
X164885000Y-76000000D01*
X164985000Y-75500000D02*
X165885000Y-75000000D01*
X165885000Y-75000000D02*
X165885000Y-76000000D01*
X165885000Y-76000000D02*
X164985000Y-75500000D01*
X168085000Y-74750000D02*
X162685000Y-74750000D01*
X168085000Y-76250000D02*
X168085000Y-74750000D01*
D13*
X163635000Y-76650000D02*
G75*
G02*
X163535000Y-76650000I-50000J0D01*
G01*
X163535000Y-76650000D02*
G75*
G02*
X163635000Y-76650000I50000J0D01*
G01*
X163726421Y-76650000D02*
G75*
G02*
X163443579Y-76650000I-141421J0D01*
G01*
X163443579Y-76650000D02*
G75*
G02*
X163726421Y-76650000I141421J0D01*
G01*
X163797132Y-76650000D02*
G75*
G02*
X163372868Y-76650000I-212132J0D01*
G01*
X163372868Y-76650000D02*
G75*
G02*
X163797132Y-76650000I212132J0D01*
G01*
D10*
X124715800Y-74342400D02*
X124715800Y-75842400D01*
X124715800Y-75842400D02*
X130115800Y-75842400D01*
X126915800Y-74592400D02*
X126915800Y-75592400D01*
X127015800Y-75092400D02*
X127915800Y-74592400D01*
X127915800Y-74592400D02*
X127915800Y-75592400D01*
X127915800Y-75592400D02*
X127015800Y-75092400D01*
X130115800Y-74342400D02*
X124715800Y-74342400D01*
X130115800Y-75842400D02*
X130115800Y-74342400D01*
D13*
X125665800Y-76242400D02*
G75*
G02*
X125565800Y-76242400I-50000J0D01*
G01*
X125565800Y-76242400D02*
G75*
G02*
X125665800Y-76242400I50000J0D01*
G01*
X125757221Y-76242400D02*
G75*
G02*
X125474379Y-76242400I-141421J0D01*
G01*
X125474379Y-76242400D02*
G75*
G02*
X125757221Y-76242400I141421J0D01*
G01*
X125827932Y-76242400D02*
G75*
G02*
X125403668Y-76242400I-212132J0D01*
G01*
X125403668Y-76242400D02*
G75*
G02*
X125827932Y-76242400I212132J0D01*
G01*
D10*
X200800000Y-102250000D02*
X200800000Y-103750000D01*
X200800000Y-103750000D02*
X206200000Y-103750000D01*
X203000000Y-102500000D02*
X203000000Y-103500000D01*
X203100000Y-103000000D02*
X204000000Y-102500000D01*
X204000000Y-102500000D02*
X204000000Y-103500000D01*
X204000000Y-103500000D02*
X203100000Y-103000000D01*
X206200000Y-102250000D02*
X200800000Y-102250000D01*
X206200000Y-103750000D02*
X206200000Y-102250000D01*
D13*
X201750000Y-104150000D02*
G75*
G02*
X201650000Y-104150000I-50000J0D01*
G01*
X201650000Y-104150000D02*
G75*
G02*
X201750000Y-104150000I50000J0D01*
G01*
X201841421Y-104150000D02*
G75*
G02*
X201558579Y-104150000I-141421J0D01*
G01*
X201558579Y-104150000D02*
G75*
G02*
X201841421Y-104150000I141421J0D01*
G01*
X201912132Y-104150000D02*
G75*
G02*
X201487868Y-104150000I-212132J0D01*
G01*
X201487868Y-104150000D02*
G75*
G02*
X201912132Y-104150000I212132J0D01*
G01*
D10*
X162885000Y-92250000D02*
X162885000Y-93750000D01*
X162885000Y-93750000D02*
X168285000Y-93750000D01*
X165085000Y-92500000D02*
X165085000Y-93500000D01*
X165185000Y-93000000D02*
X166085000Y-92500000D01*
X166085000Y-92500000D02*
X166085000Y-93500000D01*
X166085000Y-93500000D02*
X165185000Y-93000000D01*
X168285000Y-92250000D02*
X162885000Y-92250000D01*
X168285000Y-93750000D02*
X168285000Y-92250000D01*
D13*
X163835000Y-94150000D02*
G75*
G02*
X163735000Y-94150000I-50000J0D01*
G01*
X163735000Y-94150000D02*
G75*
G02*
X163835000Y-94150000I50000J0D01*
G01*
X163926421Y-94150000D02*
G75*
G02*
X163643579Y-94150000I-141421J0D01*
G01*
X163643579Y-94150000D02*
G75*
G02*
X163926421Y-94150000I141421J0D01*
G01*
X163997132Y-94150000D02*
G75*
G02*
X163572868Y-94150000I-212132J0D01*
G01*
X163572868Y-94150000D02*
G75*
G02*
X163997132Y-94150000I212132J0D01*
G01*
D10*
X162885000Y-90500000D02*
X162885000Y-92000000D01*
X162885000Y-92000000D02*
X168285000Y-92000000D01*
X165085000Y-90750000D02*
X165085000Y-91750000D01*
X165185000Y-91250000D02*
X166085000Y-90750000D01*
X166085000Y-90750000D02*
X166085000Y-91750000D01*
X166085000Y-91750000D02*
X165185000Y-91250000D01*
X168285000Y-90500000D02*
X162885000Y-90500000D01*
X168285000Y-92000000D02*
X168285000Y-90500000D01*
D13*
X163835000Y-92400000D02*
G75*
G02*
X163735000Y-92400000I-50000J0D01*
G01*
X163735000Y-92400000D02*
G75*
G02*
X163835000Y-92400000I50000J0D01*
G01*
X163926421Y-92400000D02*
G75*
G02*
X163643579Y-92400000I-141421J0D01*
G01*
X163643579Y-92400000D02*
G75*
G02*
X163926421Y-92400000I141421J0D01*
G01*
X163997132Y-92400000D02*
G75*
G02*
X163572868Y-92400000I-212132J0D01*
G01*
X163572868Y-92400000D02*
G75*
G02*
X163997132Y-92400000I212132J0D01*
G01*
D10*
X124800000Y-92250000D02*
X124800000Y-93750000D01*
X124800000Y-93750000D02*
X130200000Y-93750000D01*
X127000000Y-92500000D02*
X127000000Y-93500000D01*
X127100000Y-93000000D02*
X128000000Y-92500000D01*
X128000000Y-92500000D02*
X128000000Y-93500000D01*
X128000000Y-93500000D02*
X127100000Y-93000000D01*
X130200000Y-92250000D02*
X124800000Y-92250000D01*
X130200000Y-93750000D02*
X130200000Y-92250000D01*
D13*
X125750000Y-94150000D02*
G75*
G02*
X125650000Y-94150000I-50000J0D01*
G01*
X125650000Y-94150000D02*
G75*
G02*
X125750000Y-94150000I50000J0D01*
G01*
X125841421Y-94150000D02*
G75*
G02*
X125558579Y-94150000I-141421J0D01*
G01*
X125558579Y-94150000D02*
G75*
G02*
X125841421Y-94150000I141421J0D01*
G01*
X125912132Y-94150000D02*
G75*
G02*
X125487868Y-94150000I-212132J0D01*
G01*
X125487868Y-94150000D02*
G75*
G02*
X125912132Y-94150000I212132J0D01*
G01*
D10*
X124800000Y-90750000D02*
X124800000Y-92250000D01*
X124800000Y-92250000D02*
X130200000Y-92250000D01*
X127000000Y-91000000D02*
X127000000Y-92000000D01*
X127100000Y-91500000D02*
X128000000Y-91000000D01*
X128000000Y-91000000D02*
X128000000Y-92000000D01*
X128000000Y-92000000D02*
X127100000Y-91500000D01*
X130200000Y-90750000D02*
X124800000Y-90750000D01*
X130200000Y-92250000D02*
X130200000Y-90750000D01*
D13*
X125750000Y-92650000D02*
G75*
G02*
X125650000Y-92650000I-50000J0D01*
G01*
X125650000Y-92650000D02*
G75*
G02*
X125750000Y-92650000I50000J0D01*
G01*
X125841421Y-92650000D02*
G75*
G02*
X125558579Y-92650000I-141421J0D01*
G01*
X125558579Y-92650000D02*
G75*
G02*
X125841421Y-92650000I141421J0D01*
G01*
X125912132Y-92650000D02*
G75*
G02*
X125487868Y-92650000I-212132J0D01*
G01*
X125487868Y-92650000D02*
G75*
G02*
X125912132Y-92650000I212132J0D01*
G01*
D10*
X200985000Y-119395000D02*
X200985000Y-120895000D01*
X200985000Y-120895000D02*
X206385000Y-120895000D01*
X203185000Y-119645000D02*
X203185000Y-120645000D01*
X203285000Y-120145000D02*
X204185000Y-119645000D01*
X204185000Y-119645000D02*
X204185000Y-120645000D01*
X204185000Y-120645000D02*
X203285000Y-120145000D01*
X206385000Y-119395000D02*
X200985000Y-119395000D01*
X206385000Y-120895000D02*
X206385000Y-119395000D01*
D13*
X201935000Y-121295000D02*
G75*
G02*
X201835000Y-121295000I-50000J0D01*
G01*
X201835000Y-121295000D02*
G75*
G02*
X201935000Y-121295000I50000J0D01*
G01*
X202026421Y-121295000D02*
G75*
G02*
X201743579Y-121295000I-141421J0D01*
G01*
X201743579Y-121295000D02*
G75*
G02*
X202026421Y-121295000I141421J0D01*
G01*
X202097132Y-121295000D02*
G75*
G02*
X201672868Y-121295000I-212132J0D01*
G01*
X201672868Y-121295000D02*
G75*
G02*
X202097132Y-121295000I212132J0D01*
G01*
D10*
X200985000Y-117745300D02*
X200985000Y-119245300D01*
X200985000Y-119245300D02*
X206385000Y-119245300D01*
X203185000Y-117995300D02*
X203185000Y-118995300D01*
X203285000Y-118495300D02*
X204185000Y-117995300D01*
X204185000Y-117995300D02*
X204185000Y-118995300D01*
X204185000Y-118995300D02*
X203285000Y-118495300D01*
X206385000Y-117745300D02*
X200985000Y-117745300D01*
X206385000Y-119245300D02*
X206385000Y-117745300D01*
D13*
X201935000Y-119645300D02*
G75*
G02*
X201835000Y-119645300I-50000J0D01*
G01*
X201835000Y-119645300D02*
G75*
G02*
X201935000Y-119645300I50000J0D01*
G01*
X202026421Y-119645300D02*
G75*
G02*
X201743579Y-119645300I-141421J0D01*
G01*
X201743579Y-119645300D02*
G75*
G02*
X202026421Y-119645300I141421J0D01*
G01*
X202097132Y-119645300D02*
G75*
G02*
X201672868Y-119645300I-212132J0D01*
G01*
X201672868Y-119645300D02*
G75*
G02*
X202097132Y-119645300I212132J0D01*
G01*
D10*
X162885000Y-112245000D02*
X162885000Y-113745000D01*
X162885000Y-113745000D02*
X168285000Y-113745000D01*
X165085000Y-112495000D02*
X165085000Y-113495000D01*
X165185000Y-112995000D02*
X166085000Y-112495000D01*
X166085000Y-112495000D02*
X166085000Y-113495000D01*
X166085000Y-113495000D02*
X165185000Y-112995000D01*
X168285000Y-112245000D02*
X162885000Y-112245000D01*
X168285000Y-113745000D02*
X168285000Y-112245000D01*
D13*
X163835000Y-114145000D02*
G75*
G02*
X163735000Y-114145000I-50000J0D01*
G01*
X163735000Y-114145000D02*
G75*
G02*
X163835000Y-114145000I50000J0D01*
G01*
X163926421Y-114145000D02*
G75*
G02*
X163643579Y-114145000I-141421J0D01*
G01*
X163643579Y-114145000D02*
G75*
G02*
X163926421Y-114145000I141421J0D01*
G01*
X163997132Y-114145000D02*
G75*
G02*
X163572868Y-114145000I-212132J0D01*
G01*
X163572868Y-114145000D02*
G75*
G02*
X163997132Y-114145000I212132J0D01*
G01*
D10*
X162885000Y-110601900D02*
X162885000Y-112101900D01*
X162885000Y-112101900D02*
X168285000Y-112101900D01*
X165085000Y-110851900D02*
X165085000Y-111851900D01*
X165185000Y-111351900D02*
X166085000Y-110851900D01*
X166085000Y-110851900D02*
X166085000Y-111851900D01*
X166085000Y-111851900D02*
X165185000Y-111351900D01*
X168285000Y-110601900D02*
X162885000Y-110601900D01*
X168285000Y-112101900D02*
X168285000Y-110601900D01*
D13*
X163835000Y-112501900D02*
G75*
G02*
X163735000Y-112501900I-50000J0D01*
G01*
X163735000Y-112501900D02*
G75*
G02*
X163835000Y-112501900I50000J0D01*
G01*
X163926421Y-112501900D02*
G75*
G02*
X163643579Y-112501900I-141421J0D01*
G01*
X163643579Y-112501900D02*
G75*
G02*
X163926421Y-112501900I141421J0D01*
G01*
X163997132Y-112501900D02*
G75*
G02*
X163572868Y-112501900I-212132J0D01*
G01*
X163572868Y-112501900D02*
G75*
G02*
X163997132Y-112501900I212132J0D01*
G01*
D10*
X124800000Y-111750000D02*
X124800000Y-113250000D01*
X124800000Y-113250000D02*
X130200000Y-113250000D01*
X127000000Y-112000000D02*
X127000000Y-113000000D01*
X127100000Y-112500000D02*
X128000000Y-112000000D01*
X128000000Y-112000000D02*
X128000000Y-113000000D01*
X128000000Y-113000000D02*
X127100000Y-112500000D01*
X130200000Y-111750000D02*
X124800000Y-111750000D01*
X130200000Y-113250000D02*
X130200000Y-111750000D01*
D13*
X125750000Y-113650000D02*
G75*
G02*
X125650000Y-113650000I-50000J0D01*
G01*
X125650000Y-113650000D02*
G75*
G02*
X125750000Y-113650000I50000J0D01*
G01*
X125841421Y-113650000D02*
G75*
G02*
X125558579Y-113650000I-141421J0D01*
G01*
X125558579Y-113650000D02*
G75*
G02*
X125841421Y-113650000I141421J0D01*
G01*
X125912132Y-113650000D02*
G75*
G02*
X125487868Y-113650000I-212132J0D01*
G01*
X125487868Y-113650000D02*
G75*
G02*
X125912132Y-113650000I212132J0D01*
G01*
D10*
X124800000Y-110250000D02*
X124800000Y-111750000D01*
X124800000Y-111750000D02*
X130200000Y-111750000D01*
X127000000Y-110500000D02*
X127000000Y-111500000D01*
X127100000Y-111000000D02*
X128000000Y-110500000D01*
X128000000Y-110500000D02*
X128000000Y-111500000D01*
X128000000Y-111500000D02*
X127100000Y-111000000D01*
X130200000Y-110250000D02*
X124800000Y-110250000D01*
X130200000Y-111750000D02*
X130200000Y-110250000D01*
D13*
X125750000Y-112150000D02*
G75*
G02*
X125650000Y-112150000I-50000J0D01*
G01*
X125650000Y-112150000D02*
G75*
G02*
X125750000Y-112150000I50000J0D01*
G01*
X125841421Y-112150000D02*
G75*
G02*
X125558579Y-112150000I-141421J0D01*
G01*
X125558579Y-112150000D02*
G75*
G02*
X125841421Y-112150000I141421J0D01*
G01*
X125912132Y-112150000D02*
G75*
G02*
X125487868Y-112150000I-212132J0D01*
G01*
X125487868Y-112150000D02*
G75*
G02*
X125912132Y-112150000I212132J0D01*
G01*
D10*
X105735000Y-114250000D02*
X105735000Y-115750000D01*
X105735000Y-115750000D02*
X111135000Y-115750000D01*
X107935000Y-114500000D02*
X107935000Y-115500000D01*
X108035000Y-115000000D02*
X108935000Y-114500000D01*
X108935000Y-114500000D02*
X108935000Y-115500000D01*
X108935000Y-115500000D02*
X108035000Y-115000000D01*
X111135000Y-114250000D02*
X105735000Y-114250000D01*
X111135000Y-115750000D02*
X111135000Y-114250000D01*
D13*
X106685000Y-116150000D02*
G75*
G02*
X106585000Y-116150000I-50000J0D01*
G01*
X106585000Y-116150000D02*
G75*
G02*
X106685000Y-116150000I50000J0D01*
G01*
X106776421Y-116150000D02*
G75*
G02*
X106493579Y-116150000I-141421J0D01*
G01*
X106493579Y-116150000D02*
G75*
G02*
X106776421Y-116150000I141421J0D01*
G01*
X106847132Y-116150000D02*
G75*
G02*
X106422868Y-116150000I-212132J0D01*
G01*
X106422868Y-116150000D02*
G75*
G02*
X106847132Y-116150000I212132J0D01*
G01*
D10*
X200800000Y-138250000D02*
X200800000Y-139750000D01*
X200800000Y-139750000D02*
X206200000Y-139750000D01*
X203000000Y-138500000D02*
X203000000Y-139500000D01*
X203100000Y-139000000D02*
X204000000Y-138500000D01*
X204000000Y-138500000D02*
X204000000Y-139500000D01*
X204000000Y-139500000D02*
X203100000Y-139000000D01*
X206200000Y-138250000D02*
X200800000Y-138250000D01*
X206200000Y-139750000D02*
X206200000Y-138250000D01*
D13*
X201750000Y-140150000D02*
G75*
G02*
X201650000Y-140150000I-50000J0D01*
G01*
X201650000Y-140150000D02*
G75*
G02*
X201750000Y-140150000I50000J0D01*
G01*
X201841421Y-140150000D02*
G75*
G02*
X201558579Y-140150000I-141421J0D01*
G01*
X201558579Y-140150000D02*
G75*
G02*
X201841421Y-140150000I141421J0D01*
G01*
X201912132Y-140150000D02*
G75*
G02*
X201487868Y-140150000I-212132J0D01*
G01*
X201487868Y-140150000D02*
G75*
G02*
X201912132Y-140150000I212132J0D01*
G01*
D10*
X200800000Y-136750000D02*
X200800000Y-138250000D01*
X200800000Y-138250000D02*
X206200000Y-138250000D01*
X203000000Y-137000000D02*
X203000000Y-138000000D01*
X203100000Y-137500000D02*
X204000000Y-137000000D01*
X204000000Y-137000000D02*
X204000000Y-138000000D01*
X204000000Y-138000000D02*
X203100000Y-137500000D01*
X206200000Y-136750000D02*
X200800000Y-136750000D01*
X206200000Y-138250000D02*
X206200000Y-136750000D01*
D13*
X201750000Y-138650000D02*
G75*
G02*
X201650000Y-138650000I-50000J0D01*
G01*
X201650000Y-138650000D02*
G75*
G02*
X201750000Y-138650000I50000J0D01*
G01*
X201841421Y-138650000D02*
G75*
G02*
X201558579Y-138650000I-141421J0D01*
G01*
X201558579Y-138650000D02*
G75*
G02*
X201841421Y-138650000I141421J0D01*
G01*
X201912132Y-138650000D02*
G75*
G02*
X201487868Y-138650000I-212132J0D01*
G01*
X201487868Y-138650000D02*
G75*
G02*
X201912132Y-138650000I212132J0D01*
G01*
D10*
X134325000Y-57594700D02*
X134325000Y-59094700D01*
X134325000Y-59094700D02*
X139725000Y-59094700D01*
X136525000Y-57844700D02*
X136525000Y-58844700D01*
X136625000Y-58344700D02*
X137525000Y-57844700D01*
X137525000Y-57844700D02*
X137525000Y-58844700D01*
X137525000Y-58844700D02*
X136625000Y-58344700D01*
X139725000Y-57594700D02*
X134325000Y-57594700D01*
X139725000Y-59094700D02*
X139725000Y-57594700D01*
D13*
X135275000Y-59494700D02*
G75*
G02*
X135175000Y-59494700I-50000J0D01*
G01*
X135175000Y-59494700D02*
G75*
G02*
X135275000Y-59494700I50000J0D01*
G01*
X135366421Y-59494700D02*
G75*
G02*
X135083579Y-59494700I-141421J0D01*
G01*
X135083579Y-59494700D02*
G75*
G02*
X135366421Y-59494700I141421J0D01*
G01*
X135437132Y-59494700D02*
G75*
G02*
X135012868Y-59494700I-212132J0D01*
G01*
X135012868Y-59494700D02*
G75*
G02*
X135437132Y-59494700I212132J0D01*
G01*
D10*
X115260000Y-60094700D02*
X115260000Y-61594700D01*
X115260000Y-61594700D02*
X120660000Y-61594700D01*
X117460000Y-60344700D02*
X117460000Y-61344700D01*
X117560000Y-60844700D02*
X118460000Y-60344700D01*
X118460000Y-60344700D02*
X118460000Y-61344700D01*
X118460000Y-61344700D02*
X117560000Y-60844700D01*
X120660000Y-60094700D02*
X115260000Y-60094700D01*
X120660000Y-61594700D02*
X120660000Y-60094700D01*
D13*
X116210000Y-61994700D02*
G75*
G02*
X116110000Y-61994700I-50000J0D01*
G01*
X116110000Y-61994700D02*
G75*
G02*
X116210000Y-61994700I50000J0D01*
G01*
X116301421Y-61994700D02*
G75*
G02*
X116018579Y-61994700I-141421J0D01*
G01*
X116018579Y-61994700D02*
G75*
G02*
X116301421Y-61994700I141421J0D01*
G01*
X116372132Y-61994700D02*
G75*
G02*
X115947868Y-61994700I-212132J0D01*
G01*
X115947868Y-61994700D02*
G75*
G02*
X116372132Y-61994700I212132J0D01*
G01*
D10*
X104000000Y-74050000D02*
X104000000Y-79450000D01*
X104000000Y-79450000D02*
X105500000Y-79450000D01*
X104250000Y-77250000D02*
X104750000Y-76350000D01*
X104750000Y-76350000D02*
X105250000Y-77250000D01*
X105250000Y-76250000D02*
X104250000Y-76250000D01*
X105250000Y-77250000D02*
X104250000Y-77250000D01*
X105500000Y-74050000D02*
X104000000Y-74050000D01*
X105500000Y-79450000D02*
X105500000Y-74050000D01*
D13*
X103812132Y-74950000D02*
G75*
G02*
X103387868Y-74950000I-212132J0D01*
G01*
X103387868Y-74950000D02*
G75*
G02*
X103812132Y-74950000I212132J0D01*
G01*
X103741421Y-74950000D02*
G75*
G02*
X103458579Y-74950000I-141421J0D01*
G01*
X103458579Y-74950000D02*
G75*
G02*
X103741421Y-74950000I141421J0D01*
G01*
X103650000Y-74950000D02*
G75*
G02*
X103550000Y-74950000I-50000J0D01*
G01*
X103550000Y-74950000D02*
G75*
G02*
X103650000Y-74950000I50000J0D01*
G01*
D10*
X103250000Y-63800000D02*
X103250000Y-69200000D01*
X103250000Y-69200000D02*
X104750000Y-69200000D01*
X103500000Y-67000000D02*
X104000000Y-66100000D01*
X104000000Y-66100000D02*
X104500000Y-67000000D01*
X104500000Y-66000000D02*
X103500000Y-66000000D01*
X104500000Y-67000000D02*
X103500000Y-67000000D01*
X104750000Y-63800000D02*
X103250000Y-63800000D01*
X104750000Y-69200000D02*
X104750000Y-63800000D01*
D13*
X103062132Y-64700000D02*
G75*
G02*
X102637868Y-64700000I-212132J0D01*
G01*
X102637868Y-64700000D02*
G75*
G02*
X103062132Y-64700000I212132J0D01*
G01*
X102991421Y-64700000D02*
G75*
G02*
X102708579Y-64700000I-141421J0D01*
G01*
X102708579Y-64700000D02*
G75*
G02*
X102991421Y-64700000I141421J0D01*
G01*
X102900000Y-64700000D02*
G75*
G02*
X102800000Y-64700000I-50000J0D01*
G01*
X102800000Y-64700000D02*
G75*
G02*
X102900000Y-64700000I50000J0D01*
G01*
D10*
X97525000Y-97750000D02*
X97525000Y-99250000D01*
X97525000Y-99250000D02*
X102925000Y-99250000D01*
X99725000Y-98000000D02*
X99725000Y-99000000D01*
X99825000Y-98500000D02*
X100725000Y-98000000D01*
X100725000Y-98000000D02*
X100725000Y-99000000D01*
X100725000Y-99000000D02*
X99825000Y-98500000D01*
X102925000Y-97750000D02*
X97525000Y-97750000D01*
X102925000Y-99250000D02*
X102925000Y-97750000D01*
D13*
X98475000Y-99650000D02*
G75*
G02*
X98375000Y-99650000I-50000J0D01*
G01*
X98375000Y-99650000D02*
G75*
G02*
X98475000Y-99650000I50000J0D01*
G01*
X98566421Y-99650000D02*
G75*
G02*
X98283579Y-99650000I-141421J0D01*
G01*
X98283579Y-99650000D02*
G75*
G02*
X98566421Y-99650000I141421J0D01*
G01*
X98637132Y-99650000D02*
G75*
G02*
X98212868Y-99650000I-212132J0D01*
G01*
X98212868Y-99650000D02*
G75*
G02*
X98637132Y-99650000I212132J0D01*
G01*
X114500000Y-54800000D02*
X122300000Y-54800000D01*
X120400000Y-56550000D02*
X120400000Y-56650000D01*
X120400000Y-56650000D02*
X122100000Y-56650000D01*
X120400000Y-56650000D02*
X122200000Y-56650000D01*
X120400000Y-56750000D02*
X120400000Y-56650000D01*
X120400000Y-57950000D02*
X122100000Y-57950000D01*
X120400000Y-58050000D02*
X120400000Y-57950000D01*
X120400000Y-58050000D02*
X120400000Y-58150000D01*
X120400000Y-58150000D02*
X122300000Y-58150000D01*
X120400000Y-58250000D02*
X120400000Y-58150000D01*
X122100000Y-56550000D02*
X122400000Y-56550000D01*
X122100000Y-56650000D02*
X122100000Y-56550000D01*
X122100000Y-56750000D02*
X120400000Y-56750000D01*
X122100000Y-57950000D02*
X122100000Y-56750000D01*
X122200000Y-56650000D02*
X122200000Y-58050000D01*
X122200000Y-58050000D02*
X120400000Y-58050000D01*
X122300000Y-56550000D02*
X120400000Y-56550000D01*
X122300000Y-58150000D02*
X122300000Y-56550000D01*
X122300000Y-58500000D02*
X114500000Y-58500000D01*
X122400000Y-56550000D02*
X122400000Y-58250000D01*
X122400000Y-58250000D02*
X120400000Y-58250000D01*
X123000000Y-57450000D02*
X123000000Y-57550000D01*
X123000000Y-57550000D02*
X123000000Y-57650000D01*
X123282843Y-57450000D02*
G75*
G02*
X122717157Y-57450000I-282843J0D01*
G01*
X122717157Y-57450000D02*
G75*
G02*
X123282843Y-57450000I282843J0D01*
G01*
X123223607Y-57450000D02*
G75*
G02*
X122776393Y-57450000I-223607J0D01*
G01*
X122776393Y-57450000D02*
G75*
G02*
X123223607Y-57450000I223607J0D01*
G01*
X123141421Y-57450000D02*
G75*
G02*
X122858579Y-57450000I-141421J0D01*
G01*
X122858579Y-57450000D02*
G75*
G02*
X123141421Y-57450000I141421J0D01*
G01*
X123100000Y-57450000D02*
G75*
G02*
X122900000Y-57450000I-100000J0D01*
G01*
X122900000Y-57450000D02*
G75*
G02*
X123100000Y-57450000I100000J0D01*
G01*
D10*
X162685000Y-73250000D02*
X162685000Y-74750000D01*
X162685000Y-74750000D02*
X168085000Y-74750000D01*
X164885000Y-73500000D02*
X164885000Y-74500000D01*
X164985000Y-74000000D02*
X165885000Y-73500000D01*
X165885000Y-73500000D02*
X165885000Y-74500000D01*
X165885000Y-74500000D02*
X164985000Y-74000000D01*
X168085000Y-73250000D02*
X162685000Y-73250000D01*
X168085000Y-74750000D02*
X168085000Y-73250000D01*
D13*
X163635000Y-75150000D02*
G75*
G02*
X163535000Y-75150000I-50000J0D01*
G01*
X163535000Y-75150000D02*
G75*
G02*
X163635000Y-75150000I50000J0D01*
G01*
X163726421Y-75150000D02*
G75*
G02*
X163443579Y-75150000I-141421J0D01*
G01*
X163443579Y-75150000D02*
G75*
G02*
X163726421Y-75150000I141421J0D01*
G01*
X163797132Y-75150000D02*
G75*
G02*
X163372868Y-75150000I-212132J0D01*
G01*
X163372868Y-75150000D02*
G75*
G02*
X163797132Y-75150000I212132J0D01*
G01*
D10*
X124700000Y-72750000D02*
X124700000Y-74250000D01*
X124700000Y-74250000D02*
X130100000Y-74250000D01*
X126900000Y-73000000D02*
X126900000Y-74000000D01*
X127000000Y-73500000D02*
X127900000Y-73000000D01*
X127900000Y-73000000D02*
X127900000Y-74000000D01*
X127900000Y-74000000D02*
X127000000Y-73500000D01*
X130100000Y-72750000D02*
X124700000Y-72750000D01*
X130100000Y-74250000D02*
X130100000Y-72750000D01*
D13*
X125650000Y-74650000D02*
G75*
G02*
X125550000Y-74650000I-50000J0D01*
G01*
X125550000Y-74650000D02*
G75*
G02*
X125650000Y-74650000I50000J0D01*
G01*
X125741421Y-74650000D02*
G75*
G02*
X125458579Y-74650000I-141421J0D01*
G01*
X125458579Y-74650000D02*
G75*
G02*
X125741421Y-74650000I141421J0D01*
G01*
X125812132Y-74650000D02*
G75*
G02*
X125387868Y-74650000I-212132J0D01*
G01*
X125387868Y-74650000D02*
G75*
G02*
X125812132Y-74650000I212132J0D01*
G01*
D10*
X200800000Y-100729409D02*
X200800000Y-102229409D01*
X200800000Y-102229409D02*
X206200000Y-102229409D01*
X203000000Y-100979409D02*
X203000000Y-101979409D01*
X203100000Y-101479409D02*
X204000000Y-100979409D01*
X204000000Y-100979409D02*
X204000000Y-101979409D01*
X204000000Y-101979409D02*
X203100000Y-101479409D01*
X206200000Y-100729409D02*
X200800000Y-100729409D01*
X206200000Y-102229409D02*
X206200000Y-100729409D01*
D13*
X201750000Y-102629409D02*
G75*
G02*
X201650000Y-102629409I-50000J0D01*
G01*
X201650000Y-102629409D02*
G75*
G02*
X201750000Y-102629409I50000J0D01*
G01*
X201841421Y-102629409D02*
G75*
G02*
X201558579Y-102629409I-141421J0D01*
G01*
X201558579Y-102629409D02*
G75*
G02*
X201841421Y-102629409I141421J0D01*
G01*
X201912132Y-102629409D02*
G75*
G02*
X201487868Y-102629409I-212132J0D01*
G01*
X201487868Y-102629409D02*
G75*
G02*
X201912132Y-102629409I212132J0D01*
G01*
D10*
X200985000Y-80750000D02*
X200985000Y-82250000D01*
X200985000Y-82250000D02*
X206385000Y-82250000D01*
X203185000Y-81000000D02*
X203185000Y-82000000D01*
X203285000Y-81500000D02*
X204185000Y-81000000D01*
X204185000Y-81000000D02*
X204185000Y-82000000D01*
X204185000Y-82000000D02*
X203285000Y-81500000D01*
X206385000Y-80750000D02*
X200985000Y-80750000D01*
X206385000Y-82250000D02*
X206385000Y-80750000D01*
D13*
X201935000Y-82650000D02*
G75*
G02*
X201835000Y-82650000I-50000J0D01*
G01*
X201835000Y-82650000D02*
G75*
G02*
X201935000Y-82650000I50000J0D01*
G01*
X202026421Y-82650000D02*
G75*
G02*
X201743579Y-82650000I-141421J0D01*
G01*
X201743579Y-82650000D02*
G75*
G02*
X202026421Y-82650000I141421J0D01*
G01*
X202097132Y-82650000D02*
G75*
G02*
X201672868Y-82650000I-212132J0D01*
G01*
X201672868Y-82650000D02*
G75*
G02*
X202097132Y-82650000I212132J0D01*
G01*
X209210000Y-61150000D02*
X217010000Y-61150000D01*
X215110000Y-61400000D02*
X215110000Y-61500000D01*
X215110000Y-61500000D02*
X217010000Y-61500000D01*
X215110000Y-61600000D02*
X215110000Y-61500000D01*
X215110000Y-61600000D02*
X215110000Y-61700000D01*
X215110000Y-61700000D02*
X216810000Y-61700000D01*
X215110000Y-62900000D02*
X215110000Y-63000000D01*
X215110000Y-63000000D02*
X216810000Y-63000000D01*
X215110000Y-63000000D02*
X216910000Y-63000000D01*
X215110000Y-63100000D02*
X215110000Y-63000000D01*
X216810000Y-61700000D02*
X216810000Y-62900000D01*
X216810000Y-62900000D02*
X215110000Y-62900000D01*
X216810000Y-63000000D02*
X216810000Y-63100000D01*
X216810000Y-63100000D02*
X217110000Y-63100000D01*
X216910000Y-61600000D02*
X215110000Y-61600000D01*
X216910000Y-63000000D02*
X216910000Y-61600000D01*
X217010000Y-61500000D02*
X217010000Y-63100000D01*
X217010000Y-63100000D02*
X215110000Y-63100000D01*
X217010000Y-64850000D02*
X209210000Y-64850000D01*
X217110000Y-61400000D02*
X215110000Y-61400000D01*
X217110000Y-63100000D02*
X217110000Y-61400000D01*
X217710000Y-62100000D02*
X217710000Y-62000000D01*
X217710000Y-62200000D02*
X217710000Y-62100000D01*
X217992843Y-62200000D02*
G75*
G02*
X217427157Y-62200000I-282843J0D01*
G01*
X217427157Y-62200000D02*
G75*
G02*
X217992843Y-62200000I282843J0D01*
G01*
X217851421Y-62200000D02*
G75*
G02*
X217568579Y-62200000I-141421J0D01*
G01*
X217568579Y-62200000D02*
G75*
G02*
X217851421Y-62200000I141421J0D01*
G01*
X217933607Y-62200000D02*
G75*
G02*
X217486393Y-62200000I-223607J0D01*
G01*
X217486393Y-62200000D02*
G75*
G02*
X217933607Y-62200000I223607J0D01*
G01*
X217810000Y-62200000D02*
G75*
G02*
X217610000Y-62200000I-100000J0D01*
G01*
X217610000Y-62200000D02*
G75*
G02*
X217810000Y-62200000I100000J0D01*
G01*
X94440000Y-73560000D02*
X94440000Y-77810000D01*
X94440000Y-77810000D02*
X95460000Y-77810000D01*
X95460000Y-76210000D02*
X96740000Y-76210000D01*
X95460000Y-77810000D02*
X95460000Y-76210000D01*
X96160000Y-69990000D02*
X100840000Y-69990000D01*
X96740000Y-76210000D02*
X96740000Y-79100000D01*
X101540000Y-76210000D02*
X100260000Y-76210000D01*
X101540000Y-77810000D02*
X101540000Y-76210000D01*
X102560000Y-73560000D02*
X102560000Y-77810000D01*
X102560000Y-77810000D02*
X101540000Y-77810000D01*
X88595000Y-77920000D02*
X89665000Y-77920000D01*
X88595000Y-88580000D02*
X88595000Y-77920000D01*
X89665000Y-88580000D02*
X88595000Y-88580000D01*
X91485000Y-77970000D02*
X92455000Y-77970000D01*
X92455000Y-77970000D02*
X92455000Y-80590000D01*
X92455000Y-85910000D02*
X92455000Y-88530000D01*
X92455000Y-88530000D02*
X91485000Y-88530000D01*
X92975000Y-85910000D02*
X92455000Y-85910000D01*
M02*
